<svg width="141" height="83" viewBox="0 0 141 83" fill="none" xmlns="http://www.w3.org/2000/svg"><g clip-path="url(#clip0_64_226)"><path d="M8.30815 63.6741c-4.15014-1.49-7.752718-5.0545-8.20973-9.3897 4.02888 2.5798 8.85245 3.6699 13.61728 3.0774 1.8367-.235 3.8548-.6852 5.4266.2818.978.6016 1.5852 1.6699 1.8637 2.7736.2786 1.1037.266 2.2559.2518 3.3933l.1292.2537c-4.3353.8306-8.9287 1.1-13.07885-.3901z" fill="#F0F0F0"/><path d="M.188451 54.2628C2.30336 57.2053 5.30391 59.4154 8.76391 60.579c.74035.2636 1.51819.4103 2.30479.4348.7671-.0006 1.52-.2039 2.1806-.5888.6232-.3466 1.22-.7725 1.9177-.9636.3586-.0926.733-.1093 1.0987-.0491.3656.0603.7142.1961 1.0229.3986.7825.4849 1.3419 1.2184 1.8636 1.9545.5792.8172 1.1678 1.6751 2.072 2.1713.1096.0601.0087.2244-.1007.1644-1.5733-.8633-2.1558-2.6942-3.4949-3.8073-.6248-.5193-1.412-.856-2.2378-.6882-.7221.1467-1.3379.5853-1.9659.9417-.6388.3848-1.3633.6094-2.1103.6541-.7854.0151-1.56766-.1018-2.31329-.3457-1.68753-.5227-3.28129-1.3041-4.7229-2.3154-1.65179-1.1453-3.0929-2.5609-4.261005-4.1858-.072256-.1006.099263-.1917.171046-.0917z" fill="#fff"/><path d="M7.62747 60.269c-.27661.5465-.74102.9781-1.3103 1.2178-.56928.2397-1.20634.2718-1.79743.0907-.11948-.037-.06676-.222.05288-.1849.5501.1696 1.14353.1396 1.67318-.0846.52964-.2243.96062-.6281 1.21515-1.1384.05544-.1108.22165-.0108.16652.0994zM12.9567 60.6419c-.3897-1.188-1.2187-2.1874-2.3218-2.7989-.1094-.0605-.0085-.2248.1007-.1643 1.1467.6384 2.0074 1.6801 2.4101 2.9173.0384.1179-.1508.1632-.189.0459zM2.84666 57.262c.15167-.1895.2533-.4131.29576-.6509.04245-.2377.02441-.4822-.05251-.7114-.03981-.1174.14945-.1625.189-.0459.08379.2536.10338.5236.05706.7864-.04632.2628-.15714.5104-.32277.7212-.01393.0211-.0355.0363-.06032.0423-.02482.006-.05104.0025-.07333-.0099-.02198-.0132-.03776-.0345-.04392-.0592-.00616-.0247-.00219-.0508.01103-.0726z" fill="#fff"/><path d="M10.5728 43.7529c.0269.0726.0539.1452.0825.2183.3676.9744.8149 1.9176 1.3373 2.8205.0393.0704.0802.1412.1214.2104 1.2822 2.162 2.96 4.0703 4.948 5.6278.7916.619 1.6298 1.1777 2.5073 1.6712 1.212.6816 2.581 1.3253 3.4679 2.3325.0938.1041.1809.2138.2609.3285l-1.6076 6.9268c-.0116.0139-.0217.0283-.0334.0423l-.0514.2795c-.047-.0224-.0953-.0465-.1424-.0689-.0274-.0128-.0543-.0272-.0817-.04-.0181-.0091-.0362-.0182-.0531-.0253-.0061-.003-.0121-.0061-.0165-.0087-.0169-.0072-.0318-.0156-.0471-.0224-.2705-.1343-.5405-.2707-.81-.4093-.0016-.0003-.0016-.0003-.0028-.0022-2.0639-1.0363-3.9959-2.3106-5.7556-3.7961-.0519-.045-.1054-.0904-.1566-.1386-.774-.6786-1.4906-1.4186-2.1424-2.2125-.3556-.4358-.6885-.8891-.9976-1.3582-.7963-1.2135-1.3943-2.5431-1.77195-3.94-.75247-2.7849-.59416-5.7762.83385-8.2478.0366-.0632.0728-.1249.111-.1878z" fill="#F0F0F0"/><path d="M10.6583 43.7886c-.1064 3.6062.9412 7.1538 2.994 10.1389.4303.6504.9619 1.2298 1.575 1.7168.6128.4553 1.338.7404 2.1002.8256.7091.0935 1.4454.1082 2.119.3702.3429.1392.652.3483.9072.6136.2552.2654.4507.581.5736.9262.329.8521.3281 1.7701.2957 2.6679-.036.9967-.0894 2.0314.3299 2.9649.0508.1131-.13.1843-.1807.0714-.7296-1.6241-.0778-3.4321-.468-5.1166-.1821-.786-.6053-1.5226-1.367-1.8793-.666-.312-1.4253-.3277-2.144-.4163-.7448-.0723-1.4603-.3235-2.0841-.7317-.6363-.4547-1.1895-1.0128-1.6361-1.6507-1.0285-1.4201-1.8244-2.991-2.3585-4.6552-.6202-1.8959-.9073-3.8826-.8488-5.8741.0037-.1232.1962-.094.1926.0284z" fill="#fff"/><path d="M12.9339 53.0047c-.5542.2719-1.1883.3406-1.789.1937-.6008-.1469-1.129-.4998-1.49051-.9956-.07279-.1006.08214-.217.15503-.1163.33578.4624.82788.791 1.38758.9267.5597.1357 1.1501.0694 1.6646-.1868.1119-.0556.1836.1231.0723.1783zM16.9617 56.4693c.4135-1.1801.3612-2.4707-.1466-3.6145-.0504-.1132.1304-.1845.1807-.0713.5262 1.1911.5778 2.5343.1448 3.7614-.0414.117-.2201.0407-.1789-.0756zM10.9511 47.7628c.2367-.0611.4542-.1792.6332-.3439.1789-.1646.3136-.3705.392-.5992.0399-.1174.2185-.0409.1789.0757-.0878.2523-.2368.4795-.4341.6618-.1973.1823-.4368.3141-.6977.384-.024.0086-.0504.0079-.0739-.0021-.0235-.0099-.0423-.0283-.0526-.0514-.0094-.0237-.009-.05.0011-.0734.0102-.0234.0293-.0419.0531-.0515z" fill="#fff"/><path d="M133.921 63.531c3.933-1.9822 7.065-5.9567 6.978-10.3144-3.677 3.0489-8.328 4.7159-13.131 4.706-1.852-.0104-3.911-.2124-5.35.938-.896.7157-1.365 1.8496-1.504 2.9787s.017 2.271.173 3.3981l-.097.2674c4.406.2983 8.998.0084 12.931-1.9738z" fill="#F0F0F0"/><path d="M140.807 53.206c-1.732 3.1768-4.435 5.7341-7.724 7.3087-.702.3514-1.455.5913-2.233.7111-.761.0925-1.534-.0179-2.237-.3198-.662-.2684-1.307-.6186-2.023-.7236-.368-.0484-.741-.0196-1.097.0845-.355.1042-.684.2813-.965.5197-.717.5762-1.18 1.3719-1.606 2.1657-.473.8813-.951 1.8042-1.786 2.4062-.102.073.019.2238.12.1509 1.454-1.0475 1.804-2.9352 2.994-4.2023.556-.5912 1.295-1.0209 2.135-.9545.735.058 1.401.4186 2.069.6961.682.3044 1.429.4393 2.176.3931.781-.0803 1.543-.2912 2.252-.6237 1.61-.7235 3.094-1.6923 4.399-2.8709 1.497-1.3369 2.75-2.9167 3.707-4.6709.059-.1086-.122-.1782-.181-.0703z" fill="#fff"/><path d="M134.173 60.0692c.342.5087.857.8807 1.452 1.0495.594.1688 1.231.1235 1.795-.128.114-.0512.038-.2284-.076-.1771-.525.2351-1.117.2773-1.671.119-.553-.1583-1.031-.5067-1.348-.9823-.068-.1033-.221.0162-.152.1189zM128.93 61.0858c.239-1.2262.937-2.3186 1.956-3.0593.101-.0733-.02-.2241-.121-.1509-1.058.7727-1.783 1.911-2.028 3.1876-.024.1217.17.1436.193.0226zM138.543 56.505c-.175-.1696-.303-.3792-.375-.61-.072-.2308-.084-.4756-.036-.7124.024-.1213-.169-.1432-.194-.0226-.051.2618-.037.5322.042.7873.078.2552.219.4875.41.6766.016.0193.039.0317.065.0347.025.0029.051-.0037.071-.0187.021-.0159.034-.0389.037-.0642.003-.0252-.005-.0506-.02-.0707z" fill="#fff"/><path d="M129.193 44.0356c-.018.0754-.036.1507-.055.2267-.244 1.0116-.57 2.0019-.976 2.9613-.03.0747-.062.1499-.094.2236-1.004 2.3011-2.431 4.3984-4.21 6.1853-.708.7104-1.471 1.3666-2.28 1.9628-1.118.8234-2.396 1.6283-3.151 2.7355-.08.1147-.153.2341-.218.3576l2.458 6.6793c.013.0124.025.0254.038.0379l.086.2711c.044-.0278.089-.0577.133-.0856.025-.016.05-.0336.076-.0496.017-.0112.034-.0225.05-.0316.005-.0037.011-.0075.015-.0106.016-.0092.029-.0193.044-.0279.252-.1661.502-.3343.753-.5045.001-.0005.001-.0005.002-.0026 1.919-1.2788 3.678-2.7778 5.239-4.4655.046-.051.094-.1024.138-.1565.684-.7674 1.303-1.5887 1.851-2.4556.299-.4757.573-.966.821-1.469.639-1.3009 1.067-2.693 1.268-4.1251.4-2.855-.13-5.8045-1.855-8.0841-.044-.0583-.088-.1151-.133-.1729z" fill="#F0F0F0"/><path d="M129.112 44.0815c.555 3.566-.043 7.2137-1.708 10.4253-.346.6976-.802 1.3371-1.35 1.8948-.551.5262-1.235.8971-1.981 1.0741-.692.1789-1.421.2827-2.057.6244-.323.1797-.604.4248-.824.7191-.22.2943-.375.6312-.454.9887-.22.8856-.105 1.7965.039 2.6835.16.9848.342 2.0052.042 2.9825-.036.1184.152.1671.188.0489.522-1.7003-.35-3.4155-.173-5.1345.083-.8022.411-1.5845 1.123-2.031.622-.3903 1.374-.498 2.076-.6731.73-.1622 1.409-.4983 1.977-.9791.575-.5284 1.054-1.1494 1.418-1.8366.844-1.5341 1.438-3.1897 1.761-4.906.379-1.9568.417-3.9633.111-5.9325-.019-.1219-.207-.0696-.188.0515z" fill="#fff"/><path d="M128.002 53.5037c.583.2027 1.221.1939 1.799-.0248.578-.2187 1.058-.633 1.355-1.1689.06-.1086-.108-.2053-.168-.0965-.276.4995-.723.8854-1.262 1.0879-.538.2026-1.132.2085-1.675.0166-.118-.0416-.167.1444-.049.1857zM124.436 57.4306c-.557-1.121-.666-2.4081-.305-3.6048.036-.1185-.152-.1673-.188-.0489-.374 1.246-.258 2.5852.325 3.7505.055.111.223.0137.168-.0968zM129.317 48.061c-.243-.0319-.474-.1228-.672-.2644-.198-.1417-.357-.3297-.463-.5471-.055-.1117-.222-.0142-.168.0967.118.2397.294.4472.513.6041.218.157.472.2588.74.2965.025.0056.051.0017.073-.011s.039-.0332.046-.0574c.006-.0247.003-.0508-.01-.0728-.013-.0219-.035-.038-.059-.0446zM122.821 2.85303h-27.71v1.75936c-.0004.09009.0309.17751.0887.24726-.0559 1.37517-.0887 3.13072-.0887 5.03843V56.9349c0 4.4088.1792 7.996.3989 7.996h26.9121c.22 0 .399-3.5872.399-7.996V9.89808c0-1.90771-.033-3.66326-.089-5.03843.058-.06976.089-.15718.089-.24726V2.85303z" fill="#fff"/><path d="M122.422 65.1211H95.5099c-.2097 0-.3483 0-.4743-2.5256-.0757-1.5156-.1174-3.526-.1174-5.6607V9.89806c0-1.84378.0316-3.63583.0889-5.04609.0358-.84671.0769-1.52495.122-2.01615.0886-.9616.1728-1.12403.3808-1.12403h26.9121c.208 0 .292.16243.381 1.12403.045.49305.086 1.1713.122 2.01578v.00037c.057 1.40877.089 3.20082.089 5.04609V56.9348c0 2.1348-.042 4.1452-.118 5.6607-.126 2.5256-.264 2.5256-.474 2.5256zm-26.8026-.3804h26.6936c.139-.5198.315-3.3419.315-7.8059V9.89806c0-1.84025-.031-3.62673-.088-5.03049-.036-.83844-.076-1.51046-.121-1.99739-.017-.26154-.053-.52154-.108-.77799H95.6212c-.0548.25645-.091.51645-.1082.77799-.0446.48507-.0852 1.15709-.1208 1.99739-.0571 1.40496-.0886 3.19163-.0886 5.03049V56.9348c0 4.4639.1763 7.2861.3158 7.8059z" fill="#E4E4E4"/><path d="M122.422 1.90198H95.5099c-.1057.0002-.2071.04174-.2819.11553-.0747.07379-.1168.17382-.1171.27819v2.31665c-.0004.09008.031.17751.0888.24726.0374.04561.0847.08241.1384.10774.0536.02534.1123.03856.1718.03871h26.9121c.06-.00016.118-.01339.172-.03872.054-.02534.101-.06213.138-.10773.058-.06976.089-.15718.089-.24726V2.2957c0-.10436-.042-.20439-.117-.27818-.075-.07379-.176-.11534-.282-.11554z" fill="#CACACA"/><path d="M97.4273 3.9001c.3129 0 .5665-.25033.5665-.55912 0-.30879-.2536-.55912-.5665-.55912s-.5665.25033-.5665.55912c0 .30879.2536.55912.5665.55912zM99.5776 3.9001c.3128 0 .5664-.25033.5664-.55912 0-.30879-.2536-.55912-.5664-.55912-.3129 0-.5666.25033-.5666.55912 0 .30879.2537.55912.5666.55912zM101.728 3.9001c.313 0 .566-.25033.566-.55912 0-.30879-.253-.55912-.566-.55912-.313 0-.567.25033-.567.55912 0 .30879.254.55912.567.55912zM120.316 2.59436h-2.477c-.048.00032-.094.01946-.129.05328-.034.03382-.053.07959-.054.12741 0 .02723.006.05416.02.07798.014.03064.038.05654.066.07471.029.01818.063.02789.097.028h2.477c.034.00017.068-.0094.098-.02758.029-.01819.053-.04425.068-.07513.011-.02431.017-.05101.017-.07798 0-.02373-.005-.04724-.014-.06917-.009-.02193-.023-.04185-.04-.05863-.017-.01679-.037-.03009-.059-.03917-.022-.00907-.046-.01374-.07-.01372zM120.316 3.27332h-2.477c-.048 0-.095.01903-.129.05292-.034.03388-.054.07984-.054.12777 0 .04792.02.09388.054.12776.034.03389.081.05293.129.05293h2.477c.048 0 .095-.01904.129-.05293.035-.03388.054-.07984.054-.12776 0-.04793-.019-.09389-.054-.12777-.034-.03389-.081-.05292-.129-.05292zM120.316 3.95239h-2.477c-.048 0-.095.01904-.129.05293-.034.03388-.054.07984-.054.12776 0 .04793.02.09389.054.12777.034.03389.081.05293.129.05293h2.477c.048 0 .095-.01904.129-.05293.035-.03388.054-.07984.054-.12777 0-.04792-.019-.09388-.054-.12776-.034-.03389-.081-.05293-.129-.05293z" fill="#fff"/><path d="M111.644 10.0845h-5.096c-.255.0001-.5.1003-.681.2786-.181.1784-.282.4202-.282.6724v4.3556c0 .2521.102.4937.283.672.18.1782.425.2786.68.279h5.096c.255-.0007.5-.1012.68-.2794.181-.1781.283-.4196.283-.6716v-4.3556c0-.2521-.102-.4938-.282-.672-.181-.1783-.426-.2786-.681-.279z" fill="#DF5D01"/><path d="M117.974 19.1875h-17.758c-.116 0-.2274.0455-.3094.1265-.082.0809-.1281.1907-.1281.3053 0 .1145.0461.2243.1281.3053.082.0809.1934.1264.3094.1264h17.758c.116 0 .228-.0455.31-.1264.082-.081.128-.1908.128-.3053 0-.1146-.046-.2244-.128-.3053-.082-.081-.194-.1265-.31-.1265zM106.961 21.2112h-6.745c-.116 0-.2274.0455-.3094.1264-.082.081-.1281.1908-.1281.3053 0 .1146.0461.2244.1281.3053.082.081.1934.1265.3094.1265h6.745c.116 0 .227-.0455.309-.1265.082-.0809.128-.1907.128-.3053 0-.1145-.046-.2243-.128-.3053-.082-.0809-.193-.1264-.309-.1264z" fill="#E4E4E4"/><path d="M111.644 28.9144h-5.096c-.255.0001-.5.1004-.681.2787-.181.1783-.282.4201-.282.6723v4.3556c0 .2521.102.4938.283.672.18.1783.425.2786.68.2791h5.096c.255-.0008.5-.1012.68-.2794.181-.1782.283-.4197.283-.6717v-4.3556c0-.2521-.102-.4937-.282-.672-.181-.1782-.426-.2786-.681-.279z" fill="#DF5D01"/><path d="M117.974 38.0175h-17.758c-.116 0-.2274.0454-.3094.1264-.082.081-.1281.1908-.1281.3053 0 .1145.0461.2243.1281.3053.082.081.1934.1265.3094.1265h17.758c.116 0 .228-.0455.31-.1265.082-.081.128-.1908.128-.3053 0-.1145-.046-.2243-.128-.3053-.082-.081-.194-.1264-.31-.1264zM106.961 40.0411h-6.745c-.116 0-.2274.0455-.3094.1265-.082.081-.1281.1908-.1281.3053 0 .1145.0461.2243.1281.3053.082.081.1934.1265.3094.1265h6.745c.116 0 .227-.0455.309-.1265.082-.081.128-.1908.128-.3053 0-.1145-.046-.2243-.128-.3053-.082-.081-.193-.1265-.309-.1265z" fill="#E4E4E4"/><path d="M111.644 47.7443h-5.096c-.255.0001-.5.1003-.681.2786-.181.1783-.282.4202-.282.6724v4.3556c0 .2521.102.4937.283.672.18.1782.425.2786.68.279h5.096c.255-.0008.5-.1012.68-.2794.181-.1782.283-.4196.283-.6716v-4.3556c0-.2521-.102-.4938-.282-.672-.181-.1783-.426-.2786-.681-.279z" fill="#DF5D01"/><path d="M117.974 56.8473h-17.758c-.116 0-.2274.0455-.3094.1264-.082.081-.1281.1908-.1281.3054 0 .1145.0461.2243.1281.3052.082.081.1934.1265.3094.1265h17.758c.116 0 .228-.0455.31-.1265.082-.0809.128-.1907.128-.3052 0-.1146-.046-.2244-.128-.3054-.082-.0809-.194-.1264-.31-.1264zM106.961 58.8711h-6.745c-.116 0-.2274.0455-.3094.1265-.082.0809-.1281.1907-.1281.3052 0 .1146.0461.2244.1281.3053.082.081.1934.1265.3094.1265h6.745c.116 0 .227-.0455.309-.1265.082-.0809.128-.1907.128-.3053 0-.1145-.046-.2243-.128-.3052-.082-.081-.193-.1265-.309-.1265z" fill="#E4E4E4"/><path d="M87.5547.583904c-.0002-.104354-.0423-.204379-.117-.278172-.0748-.073792-.1761-.115341-.2819-.115546H15.9199c-.1058.000201-.2071.041744-.2819.115535-.0748.073791-.1169.173819-.1171.278183V2.90055c-.0004.09645.0361.18949.1022.26058-.0636 1.57297-.1022 3.64616-.1022 5.91716V61.3665c0 4.9034.1792 8.89.399 8.89h71.2359c.2198 0 .3989-3.9866.3989-8.89V9.07829c0-2.271-.0385-4.34419-.1021-5.91716.066-.0711.1025-.16414.1021-.26058V.583904z" fill="#fff"/><path d="M87.1558 70.4467h-71.236c-.2177 0-.3492 0-.4744-2.788-.0756-1.6842-.1172-3.9188-.1172-6.2922V9.07831c0-2.18871.0363-4.29282.1023-5.92476C15.5572.000003 15.7015 0 15.9198 0h71.236c.2184 0 .3627.00056.4894 3.15355.0659 1.63046.1022 3.73456.1022 5.92476V61.3665c0 2.3735-.0416 4.6081-.1172 6.2922-.1252 2.788-.2566 2.788-.4744 2.788zm-71.1235-.3804h71.011c.1577-.5963.3187-3.9448.3187-8.6998V9.07831c0-2.18528-.0362-4.28409-.1019-5.90953-.0803-1.99776-.174-2.605792-.2188-2.788377H16.0344c-.0448.182593-.1385.790527-.2188 2.788287-.0658 1.62711-.102 3.72583-.102 5.90962V61.3665c0 4.755.161 8.1034.3187 8.6998z" fill="#E4E4E4"/><path d="M87.1558.190186H15.9199c-.1058.000201-.2071.041744-.2819.115535-.0748.073791-.1169.173819-.1171.278183V2.90055c-.0004.09645.0361.18949.1022.26058.037.04175.0826.07521.1338.09817a.399652.399652 0 00.1629.03497h71.236c.0562-.00009.1118-.01201.163-.03497.0511-.02296.0968-.05642.1338-.09817.066-.0711.1025-.16414.1021-.26058V.583904c-.0002-.104352-.0423-.204373-.117-.278166-.0748-.073792-.1761-.115343-.2819-.115552z" fill="#CACACA"/><path d="M17.8373 2.18831c.3128 0 .5665-.25033.5665-.55912 0-.3088-.2537-.55912-.5665-.55912-.3129 0-.5665.25032-.5665.55912 0 .30879.2536.55912.5665.55912zM19.9875 2.18831c.3129 0 .5665-.25033.5665-.55912 0-.3088-.2536-.55912-.5665-.55912s-.5665.25032-.5665.55912c0 .30879.2536.55912.5665.55912zM22.1379 2.18831c.3128 0 .5665-.25033.5665-.55912 0-.3088-.2537-.55912-.5665-.55912-.3129 0-.5665.25032-.5665.55912 0 .30879.2536.55912.5665.55912zM85.0495.882568h-2.4764c-.0486 0-.0951.019037-.1295.052923-.0343.033886-.0536.079849-.0536.127769 0 .04792.0193.09388.0536.12777.0344.03388.0809.05292.1295.05292h2.4764c.0485 0 .0951-.01904.1294-.05292.0344-.03389.0536-.07985.0536-.12777 0-.04792-.0192-.093883-.0536-.127769-.0343-.033886-.0809-.052923-.1294-.052923zM85.0495 1.56152h-2.4764c-.0486 0-.0951.01904-.1295.05293-.0343.03388-.0536.07984-.0536.12776 0 .04793.0193.09389.0536.12777.0344.03389.0809.05292.1295.05292h2.4764c.0485 0 .0951-.01903.1294-.05292.0344-.03388.0536-.07984.0536-.12777 0-.04792-.0192-.09388-.0536-.12776-.0343-.03389-.0809-.05293-.1294-.05293zM85.0495 2.2406h-2.4764c-.0486 0-.0951.01904-.1295.05293-.0343.03388-.0536.07984-.0536.12776 0 .04792.0193.09388.0536.12777.0344.03389.0809.05292.1295.05292h2.4764c.0485 0 .0951-.01903.1294-.05292.0344-.03389.0536-.07985.0536-.12777 0-.04792-.0192-.09388-.0536-.12776-.0343-.03389-.0809-.05293-.1294-.05293z" fill="#fff"/><path d="M38.9451 11.7963h-8.3368c-.4179.0005-.8186.1646-1.1141.4562-.2955.2917-.4617.6871-.4622 1.0996v7.1269c.0005.4124.1667.8079.4622 1.0995.2955.2917.6962.4558 1.1141.4563h8.3368c.4179-.0005.8186-.1646 1.1141-.4563.2955-.2916.4617-.6871.4622-1.0995v-7.1269c-.0005-.4125-.1667-.8079-.4622-1.0996-.2955-.2916-.6962-.4557-1.1141-.4562z" fill="#DF5D01"/><path d="M73.3306 14.5522H44.2735c-.1898 0-.3719.0745-.5062.207-.1343.1325-.2097.3122-.2097.4996s.0754.3672.2097.4997c.1343.1325.3164.2069.5062.2069h29.0571c.1899 0 .372-.0744.5063-.2069.1342-.1325.2097-.3123.2097-.4997 0-.1874-.0755-.3671-.2097-.4996-.1343-.1325-.3164-.207-.5063-.207zM55.3102 17.8636H44.2735c-.1898 0-.3719.0745-.5062.207-.1343.1325-.2097.3122-.2097.4996s.0754.3672.2097.4997c.1343.1325.3164.2069.5062.2069h11.0367c.1898 0 .3719-.0744.5062-.2069.1343-.1325.2097-.3123.2097-.4997 0-.1874-.0754-.3671-.2097-.4996s-.3164-.207-.5062-.207z" fill="#E4E4E4"/><path d="M38.9451 30.8164h-8.3368c-.4179.0005-.8186.1646-1.1141.4563-.2955.2916-.4617.6871-.4622 1.0996v7.1268c.0005.4125.1667.8079.4622 1.0996.2955.2917.6962.4557 1.1141.4562h8.3368c.4179-.0005.8186-.1645 1.1141-.4562.2955-.2917.4617-.6871.4622-1.0996v-7.1268c-.0005-.4125-.1667-.808-.4622-1.0996-.2955-.2917-.6962-.4558-1.1141-.4563z" fill="#DF5D01"/><path d="M73.3306 33.5724H44.2735c-.1898 0-.3719.0744-.5062.2069-.1343.1326-.2097.3123-.2097.4997 0 .1874.0754.3671.2097.4996s.3164.207.5062.207h29.0571c.1899 0 .372-.0745.5063-.207.1342-.1325.2097-.3122.2097-.4996s-.0755-.3671-.2097-.4997c-.1343-.1325-.3164-.2069-.5063-.2069zM55.3102 36.8838H44.2735c-.1898 0-.3719.0744-.5062.2069-.1343.1326-.2097.3123-.2097.4997 0 .1874.0754.3671.2097.4996s.3164.207.5062.207h11.0367c.1898 0 .3719-.0745.5062-.207.1343-.1325.2097-.3122.2097-.4996s-.0754-.3671-.2097-.4997c-.1343-.1325-.3164-.2069-.5062-.2069z" fill="#E4E4E4"/><path d="M38.9451 49.8365h-8.3368c-.4179.0006-.8186.1646-1.1141.4563-.2955.2917-.4617.6871-.4622 1.0996v7.1268c.0005.4125.1667.808.4622 1.0996.2955.2917.6962.4558 1.1141.4563h8.3368c.4179-.0005.8186-.1646 1.1141-.4563.2955-.2916.4617-.6871.4622-1.0996v-7.1268c-.0005-.4125-.1667-.8079-.4622-1.0996-.2955-.2917-.6962-.4557-1.1141-.4563z" fill="#DF5D01"/><path d="M73.3306 52.5925H44.2735c-.1898 0-.3719.0745-.5062.207-.1343.1325-.2097.3122-.2097.4996s.0754.3672.2097.4997c.1343.1325.3164.2069.5062.2069h29.0571c.1899 0 .372-.0744.5063-.2069.1342-.1325.2097-.3123.2097-.4997 0-.1874-.0755-.3671-.2097-.4996-.1343-.1325-.3164-.207-.5063-.207zM55.3102 55.9039H44.2735c-.1898 0-.3719.0745-.5062.207-.1343.1325-.2097.3122-.2097.4996s.0754.3672.2097.4997c.1343.1325.3164.2069.5062.2069h11.0367c.1898 0 .3719-.0744.5062-.2069.1343-.1325.2097-.3123.2097-.4997 0-.1874-.0754-.3671-.2097-.4996s-.3164-.207-.5062-.207z" fill="#E4E4E4"/><path d="M99.8754 82.8098H52.1505c-.22 0-.399-3.338-.399-7.4413V31.5967c0-4.1034.179-7.4413.399-7.4413h47.7249c.2196 0 .3986 3.3379.3986 7.4413v43.7718c0 4.1033-.179 7.4413-.3986 7.4413z" fill="#fff"/><path d="M99.8754 83h-47.725c-.2018 0-.3477 0-.4744-2.362-.0756-1.4103-.1173-3.2817-.1173-5.2695V31.5968c0-1.9878.0417-3.8592.1173-5.2695.1267-2.3621.2726-2.3621.4744-2.3621h47.725c.2016 0 .3476 0 .4746 2.3621.075 1.4103.117 3.2817.117 5.2695v43.7717c0 1.9878-.042 3.8592-.117 5.2695C100.223 83 100.077 83 99.8754 83zm-47.6183-.3804h47.5116c.1383-.4927.3133-3.1181.3133-7.2511V31.5968c0-4.133-.175-6.7584-.3133-7.2512H52.2571c-.1383.4928-.313 3.1182-.313 7.2512v43.7717c0 4.133.1747 6.7584.313 7.2511z" fill="#E4E4E4"/><path d="M99.8754 27.2596H52.1505c-.1058-.0002-.2072-.0417-.282-.1155-.0748-.0738-.1169-.1739-.117-.2784v-2.3165c.0001-.1044.0422-.2045.117-.2783.0748-.0739.1762-.1154.282-.1155h47.7249c.1058.0001.2076.0416.2816.1155.075.0738.117.1739.117.2783v2.3165c0 .1045-.042.2046-.117.2784-.074.0738-.1758.1153-.2816.1155z" fill="#CACACA"/><path d="M54.0671 26.1536c.3129 0 .5665-.2503.5665-.5591s-.2536-.5591-.5665-.5591-.5665.2503-.5665.5591.2536.5591.5665.5591zM56.2173 26.1536c.3129 0 .5665-.2503.5665-.5591s-.2536-.5591-.5665-.5591c-.3128 0-.5665.2503-.5665.5591s.2537.5591.5665.5591zM58.3677 26.1536c.3129 0 .5665-.2503.5665-.5591s-.2536-.5591-.5665-.5591-.5665.2503-.5665.5591.2536.5591.5665.5591zM97.7686 25.2097h-2.4761c-.0487 0-.0953-.0191-.1297-.053-.0344-.034-.0537-.08-.0537-.128s.0193-.0941.0537-.128c.0344-.034.081-.053.1297-.053h2.4761c.0485.0001.095.0193.1293.0532s.0535.0799.0535.1278-.0192.0938-.0535.1278c-.0343.0339-.0808.053-.1293.0532zM97.7686 25.8885h-2.4761c-.0487 0-.0953-.019-.1297-.053-.0344-.0339-.0537-.08-.0537-.128s.0193-.094.0537-.128c.0344-.0339.081-.053.1297-.053h2.4761c.0486 0 .0953.0191.1297.053.0344.034.0537.08.0537.128s-.0193.0941-.0537.128c-.0344.034-.0811.053-.1297.053zM97.7686 26.5674h-2.4761c-.0487 0-.0953-.0191-.1297-.0531-.0344-.0339-.0537-.0799-.0537-.128 0-.048.0193-.094.0537-.128.0344-.0339.081-.053.1297-.053h2.4761c.0485.0002.095.0193.1293.0532.0343.034.0535.0799.0535.1278 0 .048-.0192.0939-.0535.1278-.0343.034-.0808.0531-.1293.0533z" fill="#fff"/><path d="M66.8158 41.6381h-6.0884c-.3052-.0003-.5979-.1201-.8137-.3332-.2159-.213-.3373-.5019-.3377-.8031v-5.2045c.0004-.3013.1218-.5902.3377-.8032.2158-.213.5085-.3329.8137-.3332h6.0884c.3053.0003.5979.1202.8138.3332.2158.213.3372.5019.3376.8032v5.2045c-.0004.3012-.1218.5901-.3376.8031-.2159.2131-.5085.3329-.8138.3332z" fill="#DF5D01"/><path d="M91.9271 37.2064H70.7075c-.1387 0-.2716-.0544-.3696-.1511-.0981-.0968-.1531-.228-.1531-.3648 0-.1369.055-.2681.1531-.3648.098-.0968.2309-.1511.3696-.1511h21.2196c.1386 0 .2716.0543.3696.1511.098.0967.1531.2279.1531.3648 0 .1368-.0551.268-.1531.3648-.098.0967-.231.1511-.3696.1511zM78.767 39.6246h-8.0595c-.1387 0-.2716-.0544-.3696-.1511-.0981-.0968-.1531-.228-.1531-.3648s.055-.2681.1531-.3648c.098-.0968.2309-.1511.3696-.1511h8.0595c.0687-.0002.1368.0131.2004.039.0635.0258.1212.0638.1699.1117.0486.048.0872.1049.1136.1675.0263.0627.0399.1299.0399.1977s-.0136.135-.0399.1976c-.0264.0627-.065.1196-.1136.1675-.0487.048-.1064.0859-.1699.1118-.0636.0259-.1317.0391-.2004.039z" fill="#E4E4E4"/><path d="M66.8158 57.0445h-6.0884c-.3052-.0003-.5979-.1202-.8137-.3332-.2159-.213-.3373-.5019-.3377-.8032v-5.2045c.0004-.3012.1218-.5901.3377-.8031.2158-.2131.5085-.3329.8137-.3332h6.0884c.3053.0003.5979.1201.8138.3332.2158.213.3372.5019.3376.8031v5.2045c-.0004.3013-.1218.5902-.3376.8032-.2159.213-.5085.3329-.8138.3332z" fill="#DF5D01"/><path d="M91.9271 52.6126H70.7075c-.1387 0-.2716-.0543-.3696-.1511-.0981-.0967-.1531-.2279-.1531-.3648 0-.1368.055-.268.1531-.3648.098-.0967.2309-.1511.3696-.1511h21.2196c.1386 0 .2716.0544.3696.1511.098.0968.1531.228.1531.3648 0 .1369-.0551.2681-.1531.3648-.098.0968-.231.1511-.3696.1511zM78.767 55.0308h-8.0595c-.1387 0-.2716-.0543-.3696-.1511-.0981-.0967-.1531-.2279-.1531-.3648 0-.1368.055-.268.1531-.3648.098-.0967.2309-.1511.3696-.1511h8.0595c.0687-.0001.1368.0131.2004.039.0635.0259.1212.0639.1699.1118.0486.0479.0872.1048.1136.1675.0263.0626.0399.1298.0399.1976 0 .0679-.0136.135-.0399.1977-.0264.0627-.065.1196-.1136.1675-.0487.0479-.1064.0859-.1699.1118-.0636.0258-.1317.0391-.2004.0389z" fill="#E4E4E4"/><path d="M66.8158 72.4508h-6.0884c-.3052-.0004-.5979-.1202-.8137-.3333-.2159-.213-.3373-.5018-.3377-.8031v-5.2045c.0004-.3013.1218-.5901.3377-.8032.2158-.213.5085-.3328.8137-.3332h6.0884c.3053.0004.5979.1202.8138.3332.2158.2131.3372.5019.3376.8032v5.2045c-.0004.3013-.1218.5901-.3376.8031-.2159.2131-.5085.3329-.8138.3333z" fill="#DF5D01"/><path d="M91.9271 68.019H70.7075c-.1387 0-.2716-.0543-.3696-.1511-.0981-.0967-.1531-.228-.1531-.3648s.055-.2681.1531-.3648c.098-.0968.2309-.1511.3696-.1511h21.2196c.1386 0 .2716.0543.3696.1511.098.0967.1531.228.1531.3648s-.0551.2681-.1531.3648c-.098.0968-.231.1511-.3696.1511zM78.767 70.4372h-8.0595c-.1387 0-.2716-.0543-.3696-.1511-.0981-.0967-.1531-.228-.1531-.3648s.055-.268.1531-.3648c.098-.0968.2309-.1511.3696-.1511h8.0595c.0687-.0001.1368.0131.2004.039.0635.0258.1212.0638.1699.1118.0486.0479.0872.1048.1136.1674.0263.0627.0399.1299.0399.1977s-.0136.135-.0399.1977c-.0264.0626-.065.1195-.1136.1675a.523127.523127 0 01-.1699.1117c-.0636.0259-.1317.0391-.2004.039z" fill="#E4E4E4"/></g><defs><clipPath id="clip0_64_226"><path fill="#fff" d="M0 0h141v83H0z"/></clipPath></defs></svg>