<svg width="169" height="91" viewBox="0 0 169 91" fill="none" xmlns="http://www.w3.org/2000/svg"><path d="M119.21 73.6406H0V0h119.21v73.6406z" fill="#fff"/><path d="M119.21 73.6406H0V0h119.21v73.6406zM.544337 73.1031H118.665V.537524H.544337V73.1031z" fill="#3F3D56"/><path d="M168.942 82.5864H100.9V8.9458h68.042v73.6406z" fill="#fff"/><path d="M168.942 82.5864H100.9V8.9458h68.042v73.6406zm-67.497-.5375h66.953V9.48332h-66.953V82.0489z" fill="#3F3D56"/><path d="M159.689 75.6312h-14.153v.5666h14.153v-.5666zM159.689 77.3309h-14.153v.5666h14.153v-.5666zM159.689 79.0306h-14.153v.5666h14.153v-.5666z" fill="#3F3D56"/><path d="M134.921 22.115v5.9127c3.553 0 7.026 1.0404 9.98 2.9895 2.954 1.9491 5.256 4.7194 6.616 7.9607 1.36 3.2412 1.715 6.8078 1.022 10.2487-.693 3.4408-2.404 6.6015-4.916 9.0822l4.234 4.181c3.35-3.3077 5.631-7.5219 6.555-12.1097.924-4.5879.45-9.3433-1.363-13.665-1.813-4.3216-4.883-8.0154-8.821-10.6142-3.939-2.5988-8.57-3.9859-13.307-3.9859z" fill="#E6E6E6"/><path d="M151.857 62.4898l-4.234-4.181c-3.071 3.0333-7.151 4.8647-11.485 5.1548-4.334.2902-8.627-.9805-12.085-3.5767l-3.624 4.7089c4.611 3.4606 10.336 5.1541 16.114 4.7669 5.778-.3872 11.219-2.8289 15.314-6.8729z" fill="#575A89"/><path d="M116.958 45.766c0-2.3294.465-4.636 1.368-6.7881.902-2.1521 2.225-4.1076 3.893-5.7548 1.668-1.6471 3.649-2.9537 5.828-3.8451 2.179-.8914 4.515-1.3503 6.874-1.3503V22.115c-5.014-.0001-9.901 1.5537-13.973 4.4422-4.072 2.8885-7.124 6.9662-8.724 11.6582-1.601 4.6919-1.67 9.7617-.198 14.4945 1.472 4.7329 4.411 8.8902 8.403 11.8859l3.624-4.7089c-2.206-1.6528-3.995-3.7879-5.226-6.2378-1.231-2.4499-1.871-5.1482-1.869-7.8831z" fill="#DF5D01"/><path d="M100.636 58.3017H16.5073c-.0698 0-.1368-.0281-.1862-.0781-.0493-.0499-.0771-.1177-.0771-.1884V17.2325c0-.0707.0278-.1384.0771-.1884.0494-.05.1164-.078.1862-.078s.1368.028.1862.078c.0493.05.0771.1177.0771.1884v40.5363h83.8654c.035-.0001.069.0067.101.02.032.0134.061.033.086.0577.024.0248.044.0542.057.0866.013.0324.02.0671.02.1021 0 .0351-.007.0698-.02.1022-.013.0324-.033.0618-.057.0865-.025.0248-.054.0444-.086.0577-.032.0134-.066.0202-.101.0201z" fill="#3F3D56"/><path d="M34.951 55.3127h-7.8311c-.212-.0002-.4153-.0835-.5653-.2316-.1499-.148-.2343-.3488-.2345-.5582v-10.66c.0002-.2094.0846-.4101.2345-.5582.15-.1481.3533-.2313.5653-.2316h7.8311c.212.0003.4153.0835.5653.2316.1499.1481.2343.3488.2345.5582v10.66c-.0002.2094-.0846.4102-.2345.5582-.15.1481-.3533.2314-.5653.2316zM49.2317 55.3127h-7.831c-.2121-.0003-.4154-.0835-.5653-.2316-.15-.1481-.2343-.3488-.2346-.5582v-20.771c.0003-.2094.0846-.4101.2346-.5582.1499-.148.3532-.2313.5653-.2315h7.831c.2121.0002.4154.0835.5653.2315.15.1481.2343.3488.2346.5582v20.771c-.0003.2094-.0846.4101-.2346.5582-.1499.1481-.3532.2313-.5653.2316zM63.5126 55.3127h-7.831c-.2121-.0002-.4154-.0835-.5653-.2316-.15-.148-.2343-.3488-.2346-.5582v-10.66c.0003-.2094.0846-.4101.2346-.5582.1499-.1481.3532-.2313.5653-.2316h7.831c.2121.0003.4154.0835.5653.2316.15.1481.2343.3488.2346.5582v10.66c-.0003.2094-.0846.4102-.2346.5582-.1499.1481-.3532.2314-.5653.2316zM77.7935 55.3127h-7.831c-.2072.0044-.4077-.0725-.5577-.2138-.1499-.1414-.237-.3356-.2421-.5402V29.725c.0051-.2046.0922-.3989.2421-.5402.15-.1413.3505-.2182.5577-.2138h7.831c.2073-.0044.4078.0725.5577.2138.15.1413.2371.3356.2422.5402v24.8337c-.0051.2046-.0922.3988-.2422.5402-.1499.1413-.3504.2182-.5577.2138zM92.0745 55.3126h-7.8311c-.212-.0002-.4153-.0835-.5653-.2315-.1499-.1481-.2343-.3488-.2345-.5582V22.5767c.0002-.2094.0846-.4102.2345-.5583.15-.148.3533-.2313.5653-.2315h7.8311c.212.0002.4153.0835.5653.2315.1499.1481.2343.3489.2345.5583v31.9462c-.0002.2094-.0846.4101-.2345.5582-.15.148-.3533.2313-.5653.2315z" fill="#DF5D01"/><path d="M31.0355 39.8802c.8928 0 1.6167-.7148 1.6167-1.5965s-.7239-1.5964-1.6167-1.5964c-.8929 0-1.6167.7147-1.6167 1.5964s.7238 1.5965 1.6167 1.5965zM45.3163 29.5032c.8929 0 1.6168-.7147 1.6168-1.5964s-.7239-1.5965-1.6168-1.5965c-.8928 0-1.6167.7148-1.6167 1.5965s.7239 1.5964 1.6167 1.5964zM59.5971 39.8802c.8929 0 1.6167-.7148 1.6167-1.5965s-.7238-1.5964-1.6167-1.5964-1.6167.7147-1.6167 1.5964.7238 1.5965 1.6167 1.5965zM73.878 24.4477c.8929 0 1.6167-.7148 1.6167-1.5965s-.7238-1.5964-1.6167-1.5964-1.6167.7147-1.6167 1.5964.7238 1.5965 1.6167 1.5965zM88.1588 18.5939c.8929 0 1.6167-.7147 1.6167-1.5964s-.7238-1.5965-1.6167-1.5965-1.6167.7148-1.6167 1.5965.7238 1.5964 1.6167 1.5964z" fill="#3F3D56"/><path d="M59.6311 38.6413L45.3164 28.0535 31.1969 38.4966l-.323-.426 14.4425-10.6821L59.563 37.926l14.1576-15.2988.0568-.0229 14.2807-5.6821.2014.4939-14.2241 5.6593-14.4043 15.5659z" fill="#3F3D56"/></svg>