<svg width="139" height="87" viewBox="0 0 139 87" fill="none" xmlns="http://www.w3.org/2000/svg"><path fill="#fff" d="M0 0h139v87H0z"/><path d="M60.7425 8.75061c4.0632.06703 4.0626 5.90519-.0001 5.97159-4.0631-.067-4.0625-5.90513.0001-5.97159z" fill="#3F3D56"/><path d="M69.4362 8.75061c4.0632.06703 4.0626 5.90519-.0002 5.97159-4.0631-.067-4.0624-5.90513.0002-5.97159z" fill="#DF5D01"/><path d="M78.1298 8.75061c4.0633.06703 4.0626 5.90519-.0001 5.97159-4.0631-.067-4.0624-5.90513.0001-5.97159zM51.83 31.6127H24.163v.3239H51.83v-.3239zM114.877 78.5831H76.8141v-34.337h38.0629v34.337zm-37.7276-.3239h37.3926V44.57H77.1495l-.0001 33.6892z" fill="#CACACA"/><path d="M77.0961 44.2896l-.2289.2369 37.7278 34.0131.229-.2369-37.7279-34.0131z" fill="#CACACA"/><path d="M114.596 44.2904L76.8665 78.3018l.2288.2369 37.7297-34.0114-.229-.2369zM114.877 27.0775H23.9954v-5.9928h90.8816v5.9928zm-90.5463-.3239h90.2113v-5.3449H24.3307v5.3449zM57.61 53.5671H24.2642v-5.9928H57.61v5.9928zm-33.0104-.3239h32.6751v-5.3449H24.5996v5.3449zM57.61 63.6954H24.2642v-5.9928H57.61v5.9928zm-33.0104-.3239h32.6751v-5.3449H24.5996v5.3449zM57.61 73.8238H24.2642v-5.9927H57.61v5.9927zm-33.0104-.3239h32.6751V68.155H24.5996v5.3449z" fill="#CACACA"/><path d="M32.997 39.0384h-8.9436c.6904-2.6838.6071-5.5871 0-8.639h8.9436c-.6192 1.3615-.9389 2.8324-.9389 4.3195 0 1.4871.3197 2.958.9389 4.3195z" fill="#DF5D01"/><path d="M30.8288 32.2319h-5.4204v1.0472h5.4204v-1.0472zM30.8288 34.3263h-5.4204v1.0471h5.4204v-1.0471zM30.8288 36.4204h-5.4204v1.0472h5.4204v-1.0472z" fill="#fff"/><path d="M100.348 52.0851h-8.9436c.6904-2.6838.6071-5.5871 0-8.6391h8.9436c-.6192 1.3616-.939 2.8324-.939 4.3195 0 1.4871.3198 2.958.939 4.3196z" fill="#DF5D01"/><path d="M98.1798 45.2786h-5.4203v1.0471h5.4203v-1.0471zM98.1798 47.3728h-5.4203V48.42h5.4203v-1.0472zM98.1798 49.4672h-5.4203v1.0471h5.4203v-1.0471z" fill="#fff"/><path d="M111.847 33.5728h-8.944c.691-2.6838.607-5.5871 0-8.639h8.944c-.619 1.3615-.939 2.8324-.939 4.3195 0 1.4871.32 2.958.939 4.3195z" fill="#DF5D01"/><path d="M109.679 26.7664h-5.421v1.0471h5.421v-1.0471zM109.679 28.8607h-5.421v1.0472h5.421v-1.0472zM109.679 30.955h-5.421v1.0471h5.421V30.955z" fill="#fff"/></svg>