<svg width="88" height="22" viewBox="0 0 88 22" fill="none" xmlns="http://www.w3.org/2000/svg">
<path d="M11 0L13.4697 7.60081H21.4616L14.996 12.2984L17.4656 19.8992L11 15.2016L4.53436 19.8992L7.00402 12.2984L0.538379 7.60081H8.53035L11 0Z" fill="#DF5D01"/>
<path d="M33 0L35.4697 7.60081H43.4616L36.996 12.2984L39.4656 19.8992L33 15.2016L26.5344 19.8992L29.004 12.2984L22.5384 7.60081H30.5303L33 0Z" fill="#DF5D01"/>
<path d="M55 0L57.4697 7.60081H65.4616L58.996 12.2984L61.4656 19.8992L55 15.2016L48.5344 19.8992L51.004 12.2984L44.5384 7.60081H52.5303L55 0Z" fill="#DF5D01"/>
<path d="M77 0L79.4697 7.60081H87.4616L80.996 12.2984L83.4656 19.8992L77 15.2016L70.5344 19.8992L73.004 12.2984L66.5384 7.60081H74.5303L77 0Z" fill="#DF5D01"/>
</svg>
