<svg width="165" height="79" viewBox="0 0 165 79" fill="none" xmlns="http://www.w3.org/2000/svg"><g clip-path="url(#clip0_64_182)"><path d="M57.9501 49.6173c-1.072.0558-2.0201-.089-2.8442-.4343-.8247-.3552-1.4784-.8686-1.9612-1.5402-.4735-.6821-.7342-1.4846-.7822-2.4078-.0475-.9132.0677-1.7602.3456-2.541.2878-.7814.71-1.4652 1.2668-2.0515.5567-.5864 1.2293-1.0493 2.0178-1.3889.7881-.3496 1.6635-.5494 2.6263-.5995 1.0025-.0521 1.9002.0803 2.6931.3974.7928.3171 1.3953.8033 1.8076 1.4586l-2.4281 2.112c-.2385-.3758-.5369-.6589-.8952-.8492-.3587-.2003-.7763-.2881-1.2528-.2633-.4169.0217-.7949.121-1.1341.2978-.3297.1665-.6112.4001-.8444.7009-.2336.2908-.4099.6334-.5287 1.0277-.1189.3944-.1661.8248-.1419 1.2914.0212.4069.1291.7596.3238 1.058.1947.2984.4552.5238.7816.676.3364.1517.7179.2164 1.1448.1942.4069-.0211.7991-.1361 1.1764-.3448.3872-.2093.7484-.5366 1.0835-.982l2.1726 1.8726c-.595.8073-1.2765 1.3852-2.0447 1.7337-.7587.338-1.6195.5321-2.5824.5822zm10.802-.5619c-1.0819.0563-2.0303-.0935-2.845-.4492-.8048-.3562-1.4437-.8704-1.9166-1.5425-.4635-.6826-.719-1.4805-.7665-2.3937-.048-.9231.0672-1.7701.3456-2.541.2878-.7814.7101-1.4652 1.2668-2.0515.5567-.5864 1.2294-1.0493 2.0179-1.3889.788-.3496 1.6584-.5491 2.6114-.5987 1.0819-.0563 2.0253.0937 2.8301.45.8147.3557 1.4539.8749 1.9173 1.5574.4729.6721.7331 1.4648.7806 2.378.048.9231-.0718 1.7753-.3597 2.5567-.2783.7709-.6959 1.4495-1.2526 2.0358-.5568.5864-1.2291 1.0543-2.0171 1.4038-.7886.3396-1.6593.5342-2.6122.5838zm.1499-2.8593c.4367-.0227.8145-.127 1.1333-.3128.3287-.1863.6044-.4345.8271-.7447.2228-.3102.3839-.6569.4834-1.0403.099-.3934.1374-.8034.1151-1.2302-.0211-.407-.1238-.755-.3081-1.044-.1748-.2995-.4204-.5255-.7369-.6783-.3066-.1532-.6733-.2188-1.1001-.1966-.4268.0222-.8046.1265-1.1333.3128-.3287.1863-.6044.4345-.8272.7447-.2227.3102-.3836.6619-.4825 1.0552-.0995.3834-.1382.7885-.116 1.2154.0207.397.1184.7452.2932 1.0447.1848.2989.4304.525.737.6783.3165.1527.6882.218 1.115.1958zm6.5923 2.2697l1.5423-10.5308 2.8885-.1503 4.2458 6.1391-1.2209.0635.9356-6.4086 3.4245-.1781-1.5423 10.5308-2.8885.1503-4.2458-6.1391 1.2209-.0635-.9356 6.4086-3.4245.1781zm14.2297-.7402l1.1332-7.7775-3.0523.1588.4092-2.7534 9.6184-.5003-.4092 2.7534-3.0523.1588-1.1331 7.7774-3.5139.1828zm7.4788-.389l1.5423-10.5309 4.6749-.2432c1.38-.0717 2.463.1755 3.249.7418.785.5563 1.206 1.3754 1.262 2.4574.046.8735-.133 1.6491-.536 2.327-.392.6773-.976 1.2203-1.751 1.6288-.765.4081-1.684.64-2.756.6958l-3.3648.175 1.7998-1.5716-.606 4.1371-3.5142.1828zm6.3722-.3315l-2.341-3.6852 3.618-.1882 2.371 3.6836-3.648.1898zm-2.32-3.5669l-1.3187-1.5288 2.9927-.1557c.486-.0253.857-.164 1.113-.4162.255-.2621.371-.6115.349-1.0483-.02-.3772-.153-.639-.4-.7854-.237-.1569-.559-.2247-.966-.2035l-2.724.1417 1.79-1.7354-.836 5.7316zm5.91 3.3801l6.099-10.7678 3.454-.1797 3.014 10.2939-3.499.182-2.14-8.712 1.37-.0713-4.59 9.0621-3.708.1928zm2.973-1.976l1.268-2.6039 4.794-.2494.519 2.511-6.581.3423zm15.948 1.2307c-1.072.0558-2.021-.089-2.845-.4343-.824-.3552-1.478-.8686-1.961-1.5402-.473-.682-.734-1.4846-.782-2.4077-.048-.9132.068-1.7602.345-2.5411.288-.7813.711-1.4652 1.267-2.0515.557-.5863 1.23-1.0493 2.018-1.3889.788-.3495 1.664-.5493 2.626-.5994 1.003-.0522 1.901.0803 2.693.3974.793.317 1.396.8032 1.808 1.4586l-2.428 2.1119c-.239-.3757-.537-.6588-.895-.8492-.359-.2003-.777-.2881-1.253-.2633-.417.0217-.795.121-1.134.2979-.33.1664-.611.4-.844.7008-.234.2909-.41.6334-.529 1.0278-.119.3943-.166.8248-.142 1.2913.021.407.129.7597.324 1.0581.194.2984.455.5237.781.6759.337.1517.718.2165 1.145.1943.407-.0212.799-.1361 1.176-.3449.388-.2092.749-.5365 1.084-.982l2.173 1.8727c-.595.8072-1.277 1.3851-2.045 1.7336-.759.3381-1.62.5322-2.582.5822zm7.331-.6202l1.134-7.7775-3.053.1588.409-2.7534 9.619-.5003-.409 2.7534-3.053.1587-1.133 7.7775-3.514.1828zm13.212-.4484c-1.082.0563-2.03-.0935-2.845-.4492-.804-.3562-1.443-.8704-1.916-1.5425-.464-.6826-.719-1.4805-.767-2.3937-.048-.9231.068-1.7701.346-2.541.288-.7814.71-1.4652 1.267-2.0515.556-.5864 1.229-1.0493 2.018-1.3889.788-.3496 1.658-.5491 2.611-.5987 1.082-.0563 2.025.0937 2.83.45.815.3557 1.454.8749 1.917 1.5574.473.6721.734 1.4648.781 2.378.048.9231-.072 1.7753-.36 2.5567-.278.7709-.696 1.4495-1.252 2.0358-.557.5864-1.229 1.0543-2.017 1.4038-.789.3396-1.66.5342-2.613.5838zm.15-2.8593c.437-.0227.815-.127 1.134-.3128.328-.1863.604-.4345.827-.7447.223-.3102.384-.657.483-1.0403.099-.3934.137-.8034.115-1.2302-.021-.407-.124-.755-.308-1.044-.175-.2995-.42-.5256-.737-.6783-.306-.1532-.673-.2188-1.1-.1966-.427.0222-.804.1265-1.133.3128-.329.1863-.605.4345-.827.7447-.223.3102-.384.6619-.483 1.0552-.099.3834-.138.7885-.116 1.2153.021.3971.119.7453.293 1.0448.185.2989.431.525.737.6783.317.1527.688.218 1.115.1958zm6.593 2.2697l1.542-10.5308 4.675-.2432c1.38-.0718 2.463.1754 3.249.7417.785.5563 1.206 1.3754 1.262 2.4574.045.8735-.133 1.6492-.536 2.327-.393.6773-.976 1.2203-1.751 1.6289-.765.408-1.684.6399-2.756.6957l-3.365.175 1.799-1.5716-.606 4.1371-3.513.1828zm6.372-.3315l-2.341-3.6852 3.618-.1882 2.371 3.6837-3.648.1897zm-2.32-3.5669l-1.319-1.5288 2.993-.1557c.486-.0253.857-.164 1.113-.4162.255-.2621.371-.6115.348-1.0482-.019-.3772-.152-.639-.399-.7855-.237-.1568-.559-.2247-.966-.2035l-2.725.1417 1.791-1.7354-.836 5.7316zM115.683 52.6479l-1.096-2.9175.863-.0396.925 2.5268-.436.02.733-2.6028.77-.0353.922 2.527-.419.0192.716-2.6021.799-.0366-.824 3.0056-.897.0411-.785-2.1475.241-.011-.615 2.2116-.897.0411zm7.016-2.1404l1.375-.063.028.6262-1.375.063-.028-.6262zm.112 1.165l1.549-.071.029.6473-2.377.109-.136-2.9615 2.323-.1065.029.6473-1.493.0685.076 1.6669zm4.159.4581l-.136-2.9616 1.515-.0694c.389-.0178.683.0408.881.1758.198.1323.303.314.313.5453.007.1523-.028.2882-.104.4076-.074.1164-.182.2118-.326.2862-.141.0715-.311.1118-.512.121l.076-.207c.208-.0095.392.0146.55.0723.158.055.282.1412.372.2586.093.1144.143.2577.151.4297.012.2567-.083.4617-.285.6151-.2.1505-.498.2349-.896.2531l-1.599.0733zm.801-.643l.702-.0322c.144-.0066.252-.0356.323-.0869.074-.0542.108-.1321.104-.2337-.005-.1015-.046-.1745-.125-.219-.075-.0474-.185-.0678-.329-.0612l-.762.0349-.026-.5796.634-.0291c.141-.0065.246-.0353.314-.0865.069-.0511.101-.1247.096-.2206-.004-.0959-.043-.1648-.115-.2067-.073-.0447-.18-.0638-.321-.0574l-.575.0264.08 1.7516zm7.557.2599l1.171-3.0215.825-.0378 1.448 2.9014-.872.04-1.141-2.5043.33-.0151-.906 2.5981-.855.0392zm.689-.6082l.187-.6276 1.447-.0663.244.6078-1.878.0861zm6.55.3358c-.234.0107-.453-.016-.657-.0802-.204-.067-.382-.1662-.535-.2977-.15-.1316-.27-.2886-.361-.471-.09-.1852-.141-.3907-.151-.6163-.01-.2256.021-.4334.095-.6233.073-.1927.179-.3616.32-.5065.14-.1449.309-.2586.506-.3412.199-.0854.419-.1336.659-.1446.279-.0128.531.0223.755.1053.224.083.412.2086.564.3769l-.511.5067c-.107-.1053-.22-.1821-.341-.2302-.118-.0512-.249-.0734-.393-.0668-.127.0058-.242.0308-.345.0751-.102.0443-.188.1062-.258.1857-.07.0767-.124.1682-.161.2745-.035.1033-.05.2199-.044.3496.006.1241.031.2374.075.34.047.1024.109.19.186.2628.077.07.167.1238.27.1615.107.0347.222.0492.346.0435.124-.0057.244-.031.361-.0759.116-.0478.233-.1238.35-.228l.496.5665c-.163.129-.355.2311-.575.3062-.22.0751-.437.1175-.651.1274zm.481-.5097l-.051-1.1169.74-.0339.056 1.2269-.745-.0761zm4.093-1.5782l1.375-.063.029.6262-1.375.063-.029-.6262zm.113 1.165l1.549-.071.029.6473-2.378.109-.135-2.9615 2.322-.1065.03.6473-1.493.0685.076 1.6669zm4.158.4581l-.135-2.9616.689-.0316 1.724 1.8967-.326.0149-.09-1.9715.82-.0376.136 2.9615-.689.0316-1.724-1.8967.326-.0149.09 1.9716-.821.0376zm7.004-.2616c-.234.0107-.453-.016-.657-.0802-.201-.0671-.378-.1664-.531-.2979-.15-.1316-.27-.2886-.361-.471-.09-.1852-.14-.3907-.151-.6163-.01-.2256.021-.4334.095-.6233.073-.1927.178-.3615.316-.5063.14-.1449.307-.2586.501-.341.197-.0853.412-.1333.647-.1441.273-.0125.519.0243.738.1103.222.086.408.2159.561.3898l-.511.5068c-.101-.1085-.211-.1896-.33-.2436-.115-.054-.243-.0778-.384-.0714-.122.0056-.232.0305-.332.0746s-.184.106-.254.1855c-.067.0765-.12.168-.157.2743-.035.1061-.049.2227-.044.3496.006.1269.031.2417.076.3442.047.1024.107.1901.181.263.077.07.167.1224.27.1572.104.0349.216.0495.337.044.141-.0065.267-.0419.377-.1063.113-.0646.215-.1554.305-.2727l.556.4579c-.136.1843-.31.3308-.523.4395-.21.1057-.452.1648-.725.1774zm4.496-.2655l-.058-1.2523.218.4946-1.426-2.1521.885-.0405 1.029 1.5597-.512.0234.887-1.6475.813-.0372-1.219 2.2732.163-.512.057 1.2523-.837.0384z" fill="#fff"/><path d="M41.7452 60.442l72.3688-8.8649-72.3688 1.9342-15.1507 10.9601 5.6412-17.7296-14.9896-10.9602h18.6967l5.6413-17.7296 5.6412 17.7296 101.7037-5.6412H51.2548L41.5841 0l-9.8319 30.1404H0l25.7886 18.8579-9.8319 30.1404L41.7452 60.442z" fill="url(#paint0_linear_64_182)"/><path d="M40.7728 30.345l3.0379 8.4897 9.013-.2657-7.1355 5.5127 3.0379 8.4898-7.4479-5.0828-7.1355 5.5127 2.5325-8.654-7.4479-5.0827 9.013-.2657 2.5325-8.654z" fill="#E96801"/></g><defs><linearGradient id="paint0_linear_64_182" x1="31.4298" y1="24.1768" x2="125.397" y2="77.8492" gradientUnits="userSpaceOnUse"><stop stop-color="#D95500"/><stop offset="1" stop-color="#FF8200"/></linearGradient><clipPath id="clip0_64_182"><path fill="#fff" d="M0 0h165v79H0z"/></clipPath></defs></svg>