<svg width="626" height="300" viewBox="0 0 626 300" fill="none" xmlns="http://www.w3.org/2000/svg">
<g clip-path="url(#clip0_2_31)">
<path d="M219.778 190.016C215.714 190.228 212.12 189.679 208.996 188.37C205.87 187.023 203.392 185.077 201.561 182.531C199.767 179.946 198.779 176.903 198.596 173.404C198.416 169.942 198.853 166.731 199.906 163.771C200.997 160.809 202.598 158.217 204.709 155.994C206.819 153.772 209.369 152.017 212.358 150.729C215.345 149.404 218.664 148.647 222.314 148.457C226.114 148.259 229.517 148.761 232.523 149.963C235.528 151.165 237.812 153.008 239.375 155.493L230.17 163.499C229.266 162.074 228.135 161.001 226.777 160.279C225.417 159.52 223.834 159.187 222.028 159.281C220.447 159.364 219.014 159.74 217.729 160.411C216.479 161.041 215.412 161.927 214.528 163.067C213.642 164.17 212.974 165.468 212.523 166.963C212.073 168.458 211.894 170.09 211.986 171.858C212.066 173.401 212.475 174.738 213.213 175.869C213.951 177.001 214.939 177.855 216.176 178.432C217.451 179.007 218.898 179.252 220.516 179.168C222.058 179.088 223.545 178.652 224.975 177.861C226.443 177.068 227.812 175.827 229.083 174.138L237.319 181.237C235.063 184.297 232.479 186.488 229.567 187.809C226.691 189.091 223.428 189.826 219.778 190.016ZM260.726 187.886C256.625 188.099 253.03 187.532 249.941 186.183C246.891 184.833 244.469 182.884 242.676 180.336C240.919 177.748 239.951 174.724 239.771 171.262C239.589 167.763 240.025 164.552 241.081 161.629C242.172 158.667 243.772 156.075 245.883 153.852C247.993 151.63 250.543 149.875 253.532 148.587C256.519 147.262 259.819 146.506 263.431 146.318C267.533 146.105 271.109 146.673 274.16 148.024C277.248 149.372 279.671 151.34 281.428 153.928C283.221 156.476 284.207 159.48 284.387 162.942C284.569 166.442 284.115 169.672 283.024 172.634C281.968 175.557 280.386 178.129 278.275 180.352C276.165 182.574 273.616 184.348 270.629 185.673C267.639 186.961 264.339 187.698 260.726 187.886ZM261.295 177.047C262.95 176.961 264.382 176.566 265.591 175.861C266.837 175.155 267.882 174.214 268.726 173.038C269.571 171.863 270.181 170.548 270.559 169.095C270.934 167.604 271.079 166.049 270.995 164.431C270.915 162.888 270.526 161.569 269.827 160.474C269.164 159.338 268.233 158.481 267.033 157.902C265.871 157.321 264.481 157.073 262.863 157.157C261.245 157.241 259.813 157.637 258.567 158.343C257.321 159.049 256.276 159.99 255.431 161.166C254.587 162.342 253.977 163.675 253.602 165.166C253.225 166.619 253.078 168.155 253.163 169.773C253.241 171.278 253.611 172.598 254.274 173.733C254.975 174.867 255.906 175.724 257.068 176.305C258.268 176.884 259.676 177.131 261.295 177.047ZM286.285 185.651L292.131 145.731L303.081 145.161L319.176 168.433L314.548 168.674L318.095 144.38L331.076 143.705L325.23 183.625L314.28 184.195L298.185 160.923L302.813 160.682L299.266 184.976L286.285 185.651ZM340.227 182.845L344.523 153.362L332.952 153.964L334.503 143.527L370.965 141.63L369.414 152.067L357.843 152.669L353.547 182.152L340.227 182.845ZM368.578 181.37L374.424 141.45L392.147 140.528C397.378 140.256 401.482 141.193 404.461 143.34C407.439 145.449 409.034 148.554 409.247 152.655C409.419 155.967 408.742 158.907 407.216 161.477C405.727 164.044 403.514 166.102 400.576 167.651C397.676 169.198 394.194 170.077 390.13 170.289L377.374 170.952L384.195 164.994L381.898 180.678L368.578 181.37ZM392.735 180.114L383.859 166.144L397.574 165.43L406.563 179.395L392.735 180.114ZM383.939 166.592L378.94 160.797L390.285 160.207C392.128 160.111 393.535 159.585 394.504 158.629C395.471 157.635 395.911 156.311 395.825 154.655C395.751 153.225 395.246 152.233 394.312 151.678C393.413 151.083 392.192 150.826 390.65 150.906L380.321 151.443L387.11 144.865L383.939 166.592ZM406.344 179.406L429.462 138.587L442.557 137.906L453.981 176.928L440.717 177.618L432.604 144.592L437.797 144.322L420.398 178.675L406.344 179.406ZM417.613 171.915L422.419 162.044L440.594 161.099L442.56 170.617L417.613 171.915ZM478.067 176.581C474.003 176.792 470.409 176.243 467.285 174.934C464.159 173.588 461.68 171.641 459.85 169.096C458.055 166.51 457.067 163.468 456.885 159.968C456.705 156.506 457.142 153.296 458.195 150.336C459.286 147.374 460.887 144.781 462.997 142.559C465.108 140.336 467.657 138.581 470.647 137.294C473.634 135.969 476.952 135.211 480.602 135.021C484.403 134.824 487.806 135.326 490.811 136.528C493.817 137.73 496.101 139.573 497.664 142.057L488.459 150.063C487.555 148.639 486.424 147.565 485.066 146.844C483.706 146.085 482.123 145.752 480.316 145.846C478.736 145.928 477.303 146.304 476.017 146.975C474.767 147.606 473.7 148.491 472.816 149.632C471.931 150.734 471.262 152.033 470.812 153.528C470.361 155.023 470.182 156.654 470.274 158.423C470.355 159.966 470.764 161.303 471.502 162.434C472.24 163.565 473.227 164.419 474.465 164.996C475.74 165.571 477.186 165.817 478.804 165.733C480.347 165.652 481.833 165.217 483.264 164.425C484.732 163.632 486.101 162.391 487.371 160.703L495.607 167.801C493.352 170.862 490.768 173.052 487.856 174.374C484.98 175.655 481.717 176.391 478.067 176.581ZM505.86 174.229L510.156 144.746L498.585 145.348L500.136 134.911L536.598 133.014L535.047 143.452L523.476 144.053L519.181 173.536L505.86 174.229ZM555.945 172.53C551.843 172.743 548.248 172.175 545.16 170.827C542.109 169.476 539.687 167.527 537.895 164.979C536.138 162.392 535.169 159.367 534.989 155.905C534.807 152.406 535.244 149.195 536.299 146.273C537.39 143.311 538.991 140.719 541.101 138.496C543.212 136.273 545.761 134.518 548.751 133.231C551.738 131.906 555.038 131.149 558.65 130.961C562.751 130.748 566.327 131.317 569.378 132.667C572.467 134.016 574.89 135.984 576.647 138.571C578.439 141.119 579.426 144.124 579.606 147.586C579.788 151.085 579.333 154.316 578.242 157.278C577.187 160.2 575.604 162.772 573.494 164.995C571.383 167.218 568.834 168.992 565.847 170.317C562.858 171.604 559.557 172.342 555.945 172.53ZM556.513 161.69C558.169 161.604 559.601 161.209 560.809 160.505C562.055 159.799 563.1 158.858 563.945 157.682C564.789 156.506 565.4 155.191 565.777 153.738C566.152 152.247 566.298 150.692 566.214 149.074C566.133 147.532 565.744 146.213 565.046 145.117C564.383 143.982 563.452 143.125 562.252 142.546C561.09 141.965 559.7 141.716 558.082 141.801C556.464 141.885 555.032 142.28 553.786 142.986C552.54 143.692 551.494 144.633 550.65 145.809C549.806 146.985 549.196 148.318 548.821 149.809C548.443 151.263 548.297 152.798 548.381 154.416C548.459 155.922 548.83 157.242 549.493 158.377C550.193 159.51 551.124 160.367 552.286 160.948C553.486 161.527 554.895 161.775 556.513 161.69ZM581.503 170.295L587.35 130.374L605.073 129.452C610.303 129.18 614.408 130.117 617.387 132.264C620.364 134.373 621.959 137.478 622.173 141.579C622.345 144.891 621.668 147.831 620.141 150.401C618.653 152.968 616.439 155.027 613.501 156.575C610.601 158.122 607.119 159.001 603.055 159.213L590.299 159.876L597.121 153.919L594.824 169.602L581.503 170.295ZM605.66 169.038L596.784 155.068L610.5 154.355L619.489 168.319L605.66 169.038ZM596.864 155.517L591.865 149.721L603.21 149.131C605.054 149.035 606.46 148.509 607.429 147.553C608.396 146.56 608.837 145.235 608.751 143.579C608.676 142.149 608.172 141.157 607.237 140.602C606.339 140.007 605.118 139.75 603.575 139.83L593.246 140.368L600.035 133.789L596.864 155.517Z" fill="white"/>
<path d="M438.57 200.415L434.415 189.355L437.687 189.205L441.195 198.784L439.543 198.86L442.322 188.993L445.241 188.859L448.733 198.438L447.145 198.511L449.86 188.647L452.891 188.508L449.765 199.902L446.365 200.058L443.388 191.917L444.302 191.875L441.97 200.259L438.57 200.415ZM465.166 192.301L470.378 192.062L470.487 194.436L465.275 194.675L465.166 192.301ZM465.593 196.718L471.463 196.448L471.576 198.902L462.562 199.315L462.048 188.089L470.853 187.685L470.965 190.139L465.304 190.398L465.593 196.718ZM481.357 198.454L480.842 187.227L486.584 186.964C488.06 186.896 489.173 187.119 489.925 187.631C490.677 188.132 491.073 188.821 491.113 189.698C491.139 190.275 491.008 190.79 490.718 191.243C490.438 191.684 490.026 192.046 489.482 192.328C488.948 192.599 488.301 192.752 487.542 192.786L487.827 192.002C488.619 191.966 489.314 192.057 489.913 192.276C490.512 192.484 490.983 192.811 491.324 193.256C491.676 193.69 491.867 194.233 491.897 194.885C491.942 195.858 491.581 196.635 490.815 197.217C490.059 197.787 488.927 198.107 487.419 198.176L481.357 198.454ZM484.395 196.016L487.058 195.894C487.603 195.869 488.01 195.76 488.28 195.565C488.56 195.359 488.691 195.064 488.673 194.679C488.656 194.294 488.498 194.018 488.201 193.849C487.915 193.669 487.499 193.592 486.953 193.617L484.066 193.749L483.966 191.552L486.371 191.442C486.906 191.417 487.303 191.308 487.562 191.114C487.821 190.92 487.942 190.641 487.925 190.278C487.909 189.914 487.763 189.653 487.488 189.494C487.212 189.325 486.807 189.252 486.272 189.277L484.091 189.377L484.395 196.016ZM513.041 197.002L517.483 185.548L520.61 185.405L526.097 196.403L522.793 196.555L518.468 187.062L519.719 187.004L516.281 196.853L513.041 197.002ZM515.652 194.696L516.363 192.317L521.848 192.066L522.773 194.37L515.652 194.696ZM540.483 195.969C539.595 196.01 538.766 195.908 537.994 195.665C537.222 195.411 536.545 195.035 535.965 194.537C535.396 194.038 534.94 193.443 534.598 192.751C534.255 192.049 534.064 191.27 534.025 190.415C533.985 189.56 534.105 188.772 534.382 188.052C534.66 187.321 535.064 186.681 535.596 186.132C536.128 185.583 536.767 185.152 537.514 184.839C538.27 184.515 539.103 184.332 540.012 184.29C541.07 184.242 542.025 184.375 542.875 184.689C543.725 185.004 544.438 185.48 545.014 186.118L543.077 188.039C542.673 187.64 542.241 187.349 541.783 187.166C541.335 186.973 540.838 186.888 540.293 186.913C539.812 186.935 539.377 187.03 538.988 187.198C538.599 187.366 538.273 187.6 538.008 187.902C537.742 188.193 537.539 188.539 537.396 188.942C537.264 189.334 537.21 189.776 537.232 190.268C537.254 190.738 537.348 191.168 537.516 191.557C537.695 191.945 537.93 192.277 538.221 192.553C538.512 192.818 538.853 193.022 539.245 193.165C539.648 193.297 540.084 193.352 540.555 193.33C541.025 193.308 541.482 193.212 541.924 193.042C542.366 192.861 542.808 192.573 543.25 192.178L545.133 194.326C544.512 194.815 543.785 195.202 542.952 195.486C542.119 195.771 541.296 195.932 540.483 195.969ZM542.307 194.037L542.113 189.803L544.92 189.674L545.133 194.326L542.307 194.037ZM557.824 188.054L563.036 187.816L563.145 190.189L557.933 190.428L557.824 188.054ZM558.251 192.471L564.121 192.202L564.234 194.655L555.22 195.069L554.706 183.842L563.511 183.438L563.623 185.892L557.962 186.152L558.251 192.471ZM574.015 194.207L573.5 182.98L576.115 182.861L582.648 190.051L581.413 190.107L581.07 182.633L584.182 182.491L584.696 193.718L582.082 193.837L575.549 186.647L576.784 186.591L577.126 194.065L574.015 194.207ZM600.563 193.215C599.676 193.256 598.846 193.155 598.074 192.912C597.312 192.657 596.641 192.281 596.061 191.782C595.492 191.283 595.036 190.688 594.694 189.997C594.351 189.295 594.16 188.516 594.121 187.66C594.082 186.805 594.201 186.017 594.478 185.298C594.756 184.567 595.155 183.927 595.676 183.378C596.208 182.829 596.842 182.398 597.578 182.086C598.324 181.762 599.14 181.58 600.028 181.54C601.065 181.492 601.998 181.631 602.827 181.958C603.667 182.284 604.376 182.776 604.952 183.435L603.015 185.356C602.632 184.945 602.216 184.638 601.768 184.433C601.33 184.228 600.843 184.138 600.309 184.162C599.849 184.184 599.43 184.278 599.052 184.445C598.674 184.612 598.353 184.847 598.088 185.148C597.833 185.438 597.635 185.785 597.493 186.188C597.361 186.591 597.306 187.032 597.328 187.513C597.35 187.995 597.445 188.43 597.613 188.818C597.792 189.207 598.021 189.539 598.302 189.815C598.592 190.081 598.934 190.279 599.325 190.411C599.717 190.543 600.143 190.599 600.603 190.578C601.137 190.553 601.613 190.419 602.031 190.175C602.459 189.93 602.845 189.586 603.189 189.141L605.293 190.877C604.779 191.576 604.119 192.131 603.313 192.543C602.517 192.944 601.6 193.168 600.563 193.215ZM617.607 192.209L617.389 187.462L618.215 189.337L612.81 181.179L616.162 181.025L620.065 186.937L618.125 187.026L621.487 180.781L624.566 180.64L619.947 189.257L620.565 187.316L620.782 192.064L617.607 192.209Z" fill="white"/>
<path d="M158.248 229.124L432.587 195.519L158.248 202.851L100.815 244.399L122.2 177.189L65.3768 135.642H136.253L157.637 68.4318L179.022 135.642L564.562 114.257H194.297L157.637 0L120.367 114.257H0L97.7597 185.743L60.4888 300L158.248 229.124Z" fill="url(#paint0_linear_2_31)"/>
<path d="M154.562 115.032L166.078 147.215L200.245 146.208L173.195 167.105L184.712 199.288L156.478 180.021L129.429 200.918L139.029 168.113L110.795 148.845L144.962 147.837L154.562 115.032Z" fill="#E96801"/>
</g>
<defs>
<linearGradient id="paint0_linear_2_31" x1="119.145" y1="91.6497" x2="475.356" y2="295.112" gradientUnits="userSpaceOnUse">
<stop stop-color="#D95500"/>
<stop offset="1" stop-color="#FF8200"/>
</linearGradient>
<clipPath id="clip0_2_31">
<rect width="626" height="300" fill="white"/>
</clipPath>
</defs>
</svg>
