<svg width="100" height="63" viewBox="0 0 100 63" fill="none" xmlns="http://www.w3.org/2000/svg">
<g clip-path="url(#clip0_2177_908)">
<path d="M97.9167 17.0434H91.6667V10.7934C91.6667 10.2408 91.4472 9.71094 91.0565 9.32024C90.6658 8.92954 90.1359 8.71004 89.5833 8.71004H83.3333V2.46004C83.3333 1.90751 83.1138 1.3776 82.7231 0.986903C82.3324 0.596202 81.8025 0.376709 81.25 0.376709L2.08333 0.376709C1.5308 0.376709 1.00089 0.596202 0.610194 0.986903C0.219493 1.3776 0 1.90751 0 2.46004L0 43.7517C0 44.3042 0.219493 44.8341 0.610194 45.2248C1.00089 45.6155 1.5308 45.835 2.08333 45.835H8.33333V52.085C8.33333 52.6376 8.55283 53.1675 8.94353 53.5582C9.33423 53.9489 9.86413 54.1684 10.4167 54.1684H16.6667V60.4184C16.6667 60.9709 16.8862 61.5008 17.2769 61.8915C17.6676 62.2822 18.1975 62.5017 18.75 62.5017H97.9167C98.4692 62.5017 98.9991 62.2822 99.3898 61.8915C99.7805 61.5008 100 60.9709 100 60.4184V19.1267C100 18.5742 99.7805 18.0443 99.3898 17.6536C98.9991 17.2629 98.4692 17.0434 97.9167 17.0434ZM65.8333 41.6684H17.5C17.0396 38.2944 15.4867 35.1641 13.0788 32.7562C10.671 30.3483 7.54065 28.7954 4.16667 28.335V17.8767C7.54065 17.4163 10.671 15.8634 13.0788 13.4555C15.4867 11.0477 17.0396 7.91736 17.5 4.54338H65.8333C66.2937 7.91736 67.8466 11.0477 70.2545 13.4555C72.6624 15.8634 75.7927 17.4163 79.1667 17.8767V28.335C75.7927 28.7954 72.6624 30.3483 70.2545 32.7562C67.8466 35.1641 66.2937 38.2944 65.8333 41.6684ZM79.1667 32.5017V41.6684H69.9583C70.3902 39.3902 71.5006 37.2958 73.1439 35.66C74.7872 34.0241 76.8866 32.9232 79.1667 32.5017ZM79.1667 4.54338V13.7517C76.8809 13.3275 74.7774 12.2204 73.1335 10.5765C71.4896 8.93265 70.3826 6.82914 69.9583 4.54338H79.1667ZM4.16667 4.54338H13.375C12.9508 6.82914 11.8437 8.93265 10.1998 10.5765C8.55594 12.2204 6.45243 13.3275 4.16667 13.7517V4.54338ZM4.16667 32.5017C6.44675 32.9232 8.54617 34.0241 10.1895 35.66C11.8328 37.2958 12.9432 39.3902 13.375 41.6684H4.16667V32.5017ZM12.5 45.8767H81.25C81.8025 45.8767 82.3324 45.6572 82.7231 45.2665C83.1138 44.8758 83.3333 44.3459 83.3333 43.7934V12.8767H87.5V50.0017H12.5V45.8767ZM95.8333 58.3767H20.8333V54.21H89.5833C90.1359 54.21 90.6658 53.9905 91.0565 53.5998C91.4472 53.2091 91.6667 52.6792 91.6667 52.1267V21.21H95.8333V58.3767Z" fill="#DF5D01"/>
<path d="M41.6666 8.96021C38.873 8.96021 36.142 9.78862 33.8192 11.3407C31.4964 12.8928 29.6859 15.0988 28.6168 17.6798C27.5477 20.2608 27.268 23.1009 27.813 25.8409C28.3581 28.5808 29.7033 31.0977 31.6787 33.0731C33.6542 35.0485 36.171 36.3938 38.911 36.9388C41.651 37.4838 44.491 37.2041 47.072 36.135C49.653 35.0659 51.8591 33.2555 53.4111 30.9326C54.9632 28.6098 55.7916 25.8789 55.7916 23.0852C55.7806 19.3424 54.2889 15.756 51.6424 13.1095C48.9958 10.4629 45.4094 8.9712 41.6666 8.96021ZM41.6666 33.0435C39.6971 33.0435 37.7717 32.4595 36.1341 31.3653C34.4964 30.271 33.2201 28.7157 32.4663 26.8961C31.7126 25.0764 31.5154 23.0742 31.8996 21.1424C32.2839 19.2107 33.2323 17.4363 34.625 16.0436C36.0177 14.6509 37.7921 13.7025 39.7239 13.3182C41.6556 12.934 43.6579 13.1312 45.4775 13.8849C47.2972 14.6386 48.8524 15.915 49.9467 17.5527C51.0409 19.1903 51.625 21.1156 51.625 23.0852C51.6305 24.3965 51.3769 25.6959 50.8789 26.9089C50.3809 28.1219 49.6483 29.2246 48.723 30.1538C47.7977 31.0829 46.6981 31.8202 45.4872 32.3232C44.2762 32.8263 42.9779 33.0852 41.6666 33.0852V33.0435Z" fill="#DF5D01"/>
</g>
<defs>
<clipPath id="clip0_2177_908">
<rect width="100" height="62.1667" fill="white" transform="translate(0 0.376709)"/>
</clipPath>
</defs>
</svg>
