<svg width="165" height="90" viewBox="0 0 165 90" fill="none" xmlns="http://www.w3.org/2000/svg">
<rect width="165" height="90" rx="8" fill="#F8F8F8"/>
<g clip-path="url(#clip0_143_280)">
<path d="M31.035 67.07C43.7569 67.07 54.07 56.7569 54.07 44.035C54.07 31.3131 43.7569 21 31.035 21C18.3131 21 8 31.3131 8 44.035C8 56.7569 18.3131 67.07 31.035 67.07Z" fill="#F3F4F6"/>
<path d="M31.0348 66.3699C43.5633 66.3699 53.7197 56.2135 53.7197 43.6849C53.7197 31.1564 43.5633 21 31.0348 21C18.5063 21 8.34985 31.1564 8.34985 43.6849C8.34985 56.2135 18.5063 66.3699 31.0348 66.3699Z" fill="white"/>
<mask id="mask0_143_280" style="mask-type:luminance" maskUnits="userSpaceOnUse" x="15" y="28" width="32" height="32">
<path d="M45.7379 41.0241H31.3848V46.9754H39.6466C38.8764 50.7562 35.6557 52.9267 31.3848 52.9267C26.3437 52.9267 22.2828 48.8658 22.2828 43.8247C22.2828 38.7836 26.3437 34.7228 31.3848 34.7228C33.5553 34.7228 35.5157 35.4929 37.056 36.7532L41.537 32.2722C38.8064 29.8917 35.3056 28.4214 31.3848 28.4214C22.8429 28.4214 15.9814 35.2829 15.9814 43.8247C15.9814 52.3666 22.8429 59.2281 31.3848 59.2281C39.0865 59.2281 46.088 53.6269 46.088 43.8247C46.088 42.9145 45.948 41.9343 45.7379 41.0241Z" fill="white"/>
</mask>
<g mask="url(#mask0_143_280)">
<path d="M14.5813 52.9271V34.7231L26.4839 43.8251L14.5813 52.9271Z" fill="#FBBC05"/>
</g>
<mask id="mask1_143_280" style="mask-type:luminance" maskUnits="userSpaceOnUse" x="15" y="28" width="32" height="32">
<path d="M45.7379 41.0241H31.3848V46.9754H39.6466C38.8764 50.7562 35.6557 52.9267 31.3848 52.9267C26.3437 52.9267 22.2828 48.8658 22.2828 43.8247C22.2828 38.7836 26.3437 34.7228 31.3848 34.7228C33.5553 34.7228 35.5157 35.4929 37.056 36.7532L41.537 32.2722C38.8064 29.8917 35.3056 28.4214 31.3848 28.4214C22.8429 28.4214 15.9814 35.2829 15.9814 43.8247C15.9814 52.3666 22.8429 59.2281 31.3848 59.2281C39.0865 59.2281 46.088 53.6269 46.088 43.8247C46.088 42.9145 45.948 41.9343 45.7379 41.0241Z" fill="white"/>
</mask>
<g mask="url(#mask1_143_280)">
<path d="M14.5813 34.7232L26.4839 43.8251L31.385 39.5542L48.1886 36.8236V27.0215H14.5813V34.7232Z" fill="#EA4335"/>
</g>
<mask id="mask2_143_280" style="mask-type:luminance" maskUnits="userSpaceOnUse" x="15" y="28" width="32" height="32">
<path d="M45.7379 41.0241H31.3848V46.9754H39.6466C38.8764 50.7562 35.6557 52.9267 31.3848 52.9267C26.3437 52.9267 22.2828 48.8658 22.2828 43.8247C22.2828 38.7836 26.3437 34.7228 31.3848 34.7228C33.5553 34.7228 35.5157 35.4929 37.056 36.7532L41.537 32.2722C38.8064 29.8917 35.3056 28.4214 31.3848 28.4214C22.8429 28.4214 15.9814 35.2829 15.9814 43.8247C15.9814 52.3666 22.8429 59.2281 31.3848 59.2281C39.0865 59.2281 46.088 53.6269 46.088 43.8247C46.088 42.9145 45.948 41.9343 45.7379 41.0241Z" fill="white"/>
</mask>
<g mask="url(#mask2_143_280)">
<path d="M14.5813 52.9271L35.5859 36.8236L41.1171 37.5238L48.1886 27.0215V60.6288H14.5813V52.9271Z" fill="#34A853"/>
</g>
<mask id="mask3_143_280" style="mask-type:luminance" maskUnits="userSpaceOnUse" x="15" y="28" width="32" height="32">
<path d="M45.7379 41.0241H31.3848V46.9754H39.6466C38.8764 50.7562 35.6557 52.9267 31.3848 52.9267C26.3437 52.9267 22.2828 48.8658 22.2828 43.8247C22.2828 38.7836 26.3437 34.7228 31.3848 34.7228C33.5553 34.7228 35.5157 35.4929 37.056 36.7532L41.537 32.2722C38.8064 29.8917 35.3056 28.4214 31.3848 28.4214C22.8429 28.4214 15.9814 35.2829 15.9814 43.8247C15.9814 52.3666 22.8429 59.2281 31.3848 59.2281C39.0865 59.2281 46.088 53.6269 46.088 43.8247C46.088 42.9145 45.948 41.9343 45.7379 41.0241Z" fill="white"/>
</mask>
<g mask="url(#mask3_143_280)">
<path d="M48.1884 60.6288L26.4837 43.8251L23.6831 41.7247L48.1884 34.7231V60.6288Z" fill="#4285F4"/>
</g>
</g>
<path d="M71 29L73.2451 35.9098H80.5106L74.6327 40.1803L76.8779 47.0902L71 42.8197L65.1221 47.0902L67.3673 40.1803L61.4894 35.9098H68.7549L71 29Z" fill="#DF5D01"/>
<path d="M92 29L94.2451 35.9098H101.511L95.6327 40.1803L97.8779 47.0902L92 42.8197L86.1221 47.0902L88.3673 40.1803L82.4894 35.9098H89.7549L92 29Z" fill="#DF5D01"/>
<path d="M113 29L115.245 35.9098H122.511L116.633 40.1803L118.878 47.0902L113 42.8197L107.122 47.0902L109.367 40.1803L103.489 35.9098H110.755L113 29Z" fill="#DF5D01"/>
<path d="M134 29L136.245 35.9098H143.511L137.633 40.1803L139.878 47.0902L134 42.8197L128.122 47.0902L130.367 40.1803L124.489 35.9098H131.755L134 29Z" fill="#DF5D01"/>
<path d="M63.7044 66.079C63.2175 66.079 62.7437 66.0033 62.2831 65.8519C61.8291 65.7006 61.4573 65.4966 61.1678 65.24L61.6218 64.4603C61.8521 64.6774 62.1515 64.8551 62.52 64.9932C62.8885 65.1314 63.28 65.2005 63.6945 65.2005C64.221 65.2005 64.6256 65.0887 64.9086 64.8649C65.1915 64.6412 65.333 64.3418 65.333 63.9668C65.333 63.7101 65.2705 63.4864 65.1455 63.2956C65.0204 63.1048 64.8033 62.96 64.494 62.8613C64.1913 62.756 63.7735 62.7034 63.2405 62.7034H61.6712L62.0364 59.0909H65.9351V59.9496H62.4016L62.9148 59.466L62.6286 62.3184L62.1153 61.8447H63.4478C64.1387 61.8447 64.6947 61.9335 65.1158 62.1112C65.537 62.2888 65.8429 62.5356 66.0338 62.8514C66.2246 63.1607 66.32 63.5193 66.32 63.9273C66.32 64.3221 66.2246 64.684 66.0338 65.013C65.8429 65.3354 65.5534 65.5953 65.1652 65.7927C64.7836 65.9835 64.2966 66.079 63.7044 66.079ZM72.3682 66.079C71.8417 66.079 71.3384 66 70.858 65.8421C70.3777 65.6776 69.9993 65.467 69.723 65.2104L70.0882 64.4405C70.3514 64.6708 70.6869 64.8616 71.0949 65.013C71.5029 65.1643 71.9273 65.24 72.3682 65.24C72.7695 65.24 73.0953 65.1939 73.3453 65.1018C73.5953 65.0097 73.7796 64.8847 73.898 64.7268C74.0165 64.5623 74.0757 64.378 74.0757 64.174C74.0757 63.9371 73.9967 63.7463 73.8388 63.6016C73.6875 63.4568 73.4868 63.3416 73.2367 63.2561C72.9933 63.164 72.7235 63.085 72.4274 63.0192C72.1313 62.9534 71.8319 62.8777 71.5292 62.7922C71.2331 62.7001 70.96 62.5849 70.71 62.4468C70.4665 62.3086 70.2691 62.1243 70.1178 61.894C69.9664 61.6571 69.8908 61.3545 69.8908 60.986C69.8908 60.6306 69.9829 60.3049 70.1671 60.0088C70.3579 59.7061 70.6475 59.466 71.0357 59.2883C71.4305 59.1041 71.9306 59.0119 72.5359 59.0119C72.9373 59.0119 73.3354 59.0646 73.7302 59.1699C74.125 59.2752 74.4672 59.4265 74.7567 59.6239L74.431 60.4135C74.1349 60.2161 73.8224 60.0746 73.4933 59.9891C73.1643 59.897 72.8452 59.8509 72.5359 59.8509C72.1477 59.8509 71.8286 59.9003 71.5785 59.999C71.3285 60.0977 71.1443 60.2293 71.0258 60.3938C70.914 60.5583 70.858 60.7425 70.858 60.9465C70.858 61.19 70.9337 61.3841 71.085 61.5288C71.243 61.6736 71.4437 61.7887 71.6871 61.8743C71.9372 61.9598 72.2102 62.0388 72.5063 62.1112C72.8024 62.177 73.0985 62.2526 73.3946 62.3382C73.6973 62.4237 73.9704 62.5356 74.2139 62.6738C74.4639 62.8119 74.6646 62.9962 74.8159 63.2265C74.9673 63.4568 75.043 63.7529 75.043 64.1148C75.043 64.4635 74.9475 64.7893 74.7567 65.0919C74.5659 65.3881 74.2698 65.6282 73.8684 65.8125C73.4736 65.9901 72.9735 66.079 72.3682 66.079ZM78.1431 66.0592C77.6167 66.0592 77.2087 65.9177 76.9192 65.6348C76.6297 65.3519 76.4849 64.9472 76.4849 64.4208V59.6239H77.4325V64.3813C77.4325 64.6642 77.5015 64.8814 77.6397 65.0327C77.7845 65.1841 77.9885 65.2597 78.2517 65.2597C78.5478 65.2597 78.7945 65.1775 78.9919 65.013L79.288 65.694C79.1433 65.819 78.9689 65.9112 78.7649 65.9704C78.5675 66.0296 78.3602 66.0592 78.1431 66.0592ZM75.5966 61.5486V60.7688H78.9327V61.5486H75.5966ZM83.6809 66V64.8945L83.6315 64.6873V62.8021C83.6315 62.4007 83.5131 62.0914 83.2762 61.8743C83.0459 61.6506 82.6971 61.5387 82.23 61.5387C81.9207 61.5387 81.618 61.5913 81.3219 61.6966C81.0258 61.7953 80.7758 61.9302 80.5718 62.1013L80.177 61.3906C80.4468 61.1735 80.7692 61.009 81.1442 60.8971C81.5259 60.7787 81.924 60.7195 82.3385 60.7195C83.0558 60.7195 83.6085 60.8939 83.9967 61.2426C84.3849 61.5913 84.579 62.1243 84.579 62.8416V66H83.6809ZM81.9635 66.0592C81.5752 66.0592 81.2331 65.9934 80.937 65.8618C80.6474 65.7302 80.4237 65.5493 80.2658 65.319C80.1079 65.0821 80.0289 64.8156 80.0289 64.5195C80.0289 64.2365 80.0947 63.9799 80.2263 63.7496C80.3645 63.5193 80.5849 63.3351 80.8876 63.1969C81.1969 63.0587 81.6114 62.9896 82.1313 62.9896H83.7894V63.6706H82.1707C81.697 63.6706 81.3778 63.7496 81.2133 63.9075C81.0488 64.0655 80.9666 64.2563 80.9666 64.48C80.9666 64.7366 81.0686 64.9439 81.2726 65.1018C81.4765 65.2532 81.7595 65.3288 82.1214 65.3288C82.4767 65.3288 82.786 65.2499 83.0492 65.0919C83.319 64.934 83.5131 64.7037 83.6315 64.401L83.819 65.0525C83.694 65.3617 83.4736 65.6085 83.1577 65.7927C82.8419 65.9704 82.4438 66.0592 81.9635 66.0592ZM86.3325 66V60.7688H87.2406V62.1901L87.1518 61.8348C87.2965 61.4729 87.54 61.1965 87.8821 61.0057C88.2243 60.8149 88.6454 60.7195 89.1455 60.7195V61.6374C89.106 61.6308 89.0666 61.6275 89.0271 61.6275C88.9942 61.6275 88.9613 61.6275 88.9284 61.6275C88.4217 61.6275 88.0203 61.7789 87.7242 62.0816C87.4281 62.3842 87.2801 62.8218 87.2801 63.3943V66H86.3325ZM93.1697 66V59.0909H95.8642C96.4696 59.0909 96.9861 59.1863 97.4138 59.3771C97.8415 59.568 98.1706 59.8443 98.4009 60.2062C98.6312 60.5681 98.7463 60.9991 98.7463 61.4992C98.7463 61.9993 98.6312 62.4303 98.4009 62.7922C98.1706 63.1475 97.8415 63.4206 97.4138 63.6114C96.9861 63.8023 96.4696 63.8977 95.8642 63.8977H93.7125L94.1567 63.4436V66H93.1697ZM97.7889 66L96.032 63.493H97.0881L98.8648 66H97.7889ZM94.1567 63.5423L93.7125 63.0587H95.8346C96.4663 63.0587 96.9434 62.9238 97.2658 62.654C97.5948 62.3777 97.7593 61.9927 97.7593 61.4992C97.7593 61.0057 97.5948 60.6241 97.2658 60.3543C96.9434 60.0845 96.4663 59.9496 95.8346 59.9496H93.7125L94.1567 59.4561V63.5423ZM103.402 66V64.8945L103.352 64.6873V62.8021C103.352 62.4007 103.234 62.0914 102.997 61.8743C102.767 61.6506 102.418 61.5387 101.951 61.5387C101.642 61.5387 101.339 61.5913 101.043 61.6966C100.747 61.7953 100.497 61.9302 100.293 62.1013L99.898 61.3906C100.168 61.1735 100.49 61.009 100.865 60.8971C101.247 60.7787 101.645 60.7195 102.06 60.7195C102.777 60.7195 103.329 60.8939 103.718 61.2426C104.106 61.5913 104.3 62.1243 104.3 62.8416V66H103.402ZM101.684 66.0592C101.296 66.0592 100.954 65.9934 100.658 65.8618C100.368 65.7302 100.145 65.5493 99.9868 65.319C99.8289 65.0821 99.7499 64.8156 99.7499 64.5195C99.7499 64.2365 99.8157 63.9799 99.9473 63.7496C100.085 63.5193 100.306 63.3351 100.609 63.1969C100.918 63.0587 101.332 62.9896 101.852 62.9896H103.51V63.6706H101.892C101.418 63.6706 101.099 63.7496 100.934 63.9075C100.77 64.0655 100.688 64.2563 100.688 64.48C100.688 64.7366 100.79 64.9439 100.994 65.1018C101.198 65.2532 101.48 65.3288 101.842 65.3288C102.198 65.3288 102.507 65.2499 102.77 65.0919C103.04 64.934 103.234 64.7037 103.352 64.401L103.54 65.0525C103.415 65.3617 103.195 65.6085 102.879 65.7927C102.563 65.9704 102.165 66.0592 101.684 66.0592ZM107.85 66.0592C107.323 66.0592 106.916 65.9177 106.626 65.6348C106.336 65.3519 106.192 64.9472 106.192 64.4208V59.6239H107.139V64.3813C107.139 64.6642 107.208 64.8814 107.347 65.0327C107.491 65.1841 107.695 65.2597 107.958 65.2597C108.255 65.2597 108.501 65.1775 108.699 65.013L108.995 65.694C108.85 65.819 108.676 65.9112 108.472 65.9704C108.274 66.0296 108.067 66.0592 107.85 66.0592ZM105.303 61.5486V60.7688H108.639V61.5486H105.303ZM110.14 66V60.7688H111.088V66H110.14ZM110.614 59.7621C110.43 59.7621 110.275 59.7029 110.15 59.5844C110.032 59.466 109.973 59.3212 109.973 59.1501C109.973 58.9725 110.032 58.8244 110.15 58.706C110.275 58.5875 110.43 58.5283 110.614 58.5283C110.798 58.5283 110.95 58.5875 111.068 58.706C111.193 58.8178 111.256 58.9593 111.256 59.1304C111.256 59.3081 111.196 59.4594 111.078 59.5844C110.96 59.7029 110.805 59.7621 110.614 59.7621ZM115.69 60.7195C116.118 60.7195 116.493 60.8017 116.816 60.9662C117.145 61.1307 117.401 61.3808 117.585 61.7164C117.77 62.0519 117.862 62.4764 117.862 62.9896V66H116.914V63.0982C116.914 62.5915 116.789 62.2099 116.539 61.9532C116.296 61.6966 115.95 61.5683 115.503 61.5683C115.167 61.5683 114.874 61.6341 114.624 61.7657C114.374 61.8973 114.18 62.0914 114.042 62.3481C113.91 62.6047 113.845 62.9238 113.845 63.3055V66H112.897V60.7688H113.805V62.1803L113.657 61.8052C113.828 61.463 114.091 61.1965 114.447 61.0057C114.802 60.8149 115.217 60.7195 115.69 60.7195ZM121.905 67.974C121.425 67.974 120.958 67.9049 120.504 67.7668C120.056 67.6352 119.691 67.4443 119.408 67.1943L119.862 66.4639C120.106 66.6745 120.405 66.839 120.76 66.9574C121.116 67.0824 121.487 67.1449 121.876 67.1449C122.494 67.1449 122.948 67.0002 123.238 66.7106C123.527 66.4211 123.672 65.9803 123.672 65.3881V64.2826L123.771 63.2462L123.721 62.2V60.7688H124.619V65.2894C124.619 66.2106 124.389 66.8883 123.929 67.3226C123.468 67.7569 122.793 67.974 121.905 67.974ZM121.787 65.7829C121.28 65.7829 120.826 65.6776 120.425 65.467C120.03 65.2499 119.714 64.9505 119.477 64.5688C119.247 64.1872 119.132 63.7463 119.132 63.2462C119.132 62.7396 119.247 62.2987 119.477 61.9236C119.714 61.542 120.03 61.2459 120.425 61.0353C120.826 60.8248 121.28 60.7195 121.787 60.7195C122.234 60.7195 122.642 60.8116 123.011 60.9958C123.379 61.1735 123.672 61.4499 123.889 61.8249C124.113 62.2 124.225 62.6738 124.225 63.2462C124.225 63.8121 124.113 64.2826 123.889 64.6577C123.672 65.0327 123.379 65.3157 123.011 65.5065C122.642 65.6907 122.234 65.7829 121.787 65.7829ZM121.895 64.9538C122.244 64.9538 122.553 64.8814 122.823 64.7366C123.093 64.5919 123.303 64.3912 123.455 64.1345C123.613 63.8779 123.692 63.5818 123.692 63.2462C123.692 62.9106 123.613 62.6145 123.455 62.3579C123.303 62.1013 123.093 61.9039 122.823 61.7657C122.553 61.621 122.244 61.5486 121.895 61.5486C121.547 61.5486 121.234 61.621 120.958 61.7657C120.688 61.9039 120.474 62.1013 120.316 62.3579C120.165 62.6145 120.089 62.9106 120.089 63.2462C120.089 63.5818 120.165 63.8779 120.316 64.1345C120.474 64.3912 120.688 64.5919 120.958 64.7366C121.234 64.8814 121.547 64.9538 121.895 64.9538Z" fill="black"/>
<path d="M64.346 79.6305C63.734 79.6305 63.2175 79.4956 62.7964 79.2258C62.3752 78.9495 62.0561 78.5547 61.839 78.0414C61.6218 77.5216 61.5132 76.8998 61.5132 76.176C61.5132 75.3929 61.6448 74.7382 61.9081 74.2118C62.1778 73.6788 62.5496 73.2774 63.0234 73.0077C63.4971 72.7379 64.0466 72.603 64.6717 72.603C64.981 72.603 65.2771 72.6326 65.56 72.6918C65.8429 72.751 66.093 72.8464 66.3101 72.978L66.0239 73.5505C65.8462 73.4321 65.6423 73.3498 65.4119 73.3038C65.1816 73.2511 64.9382 73.2248 64.6816 73.2248C63.938 73.2248 63.3425 73.4617 62.8951 73.9354C62.4542 74.4092 62.2338 75.1166 62.2338 76.0575C62.2338 76.2023 62.2403 76.3832 62.2535 76.6004C62.2732 76.8109 62.3127 77.0215 62.3719 77.2321L62.1252 77.0445C62.1976 76.7024 62.339 76.4128 62.5496 76.176C62.7602 75.9325 63.0234 75.7483 63.3392 75.6232C63.6551 75.4982 64.0005 75.4357 64.3756 75.4357C64.8362 75.4357 65.2409 75.5212 65.5896 75.6923C65.9384 75.8634 66.2114 76.1036 66.4088 76.4128C66.6062 76.7221 66.7049 77.0873 66.7049 77.5084C66.7049 77.9361 66.6029 78.3112 66.399 78.6336C66.195 78.9495 65.912 79.1962 65.5501 79.3739C65.1948 79.545 64.7934 79.6305 64.346 79.6305ZM64.3164 79.0284C64.6454 79.0284 64.9349 78.9692 65.1849 78.8508C65.4416 78.7257 65.6423 78.5514 65.787 78.3277C65.9318 78.0973 66.0042 77.8309 66.0042 77.5282C66.0042 77.0741 65.8462 76.7122 65.5304 76.4425C65.2211 76.1727 64.8 76.0378 64.267 76.0378C63.9117 76.0378 63.6024 76.1036 63.3392 76.2352C63.076 76.3668 62.8687 76.5477 62.7174 76.778C62.5661 77.0018 62.4904 77.2584 62.4904 77.5479C62.4904 77.798 62.5595 78.0381 62.6977 78.2684C62.8358 78.4922 63.0398 78.6764 63.3096 78.8212C63.586 78.9593 63.9216 79.0284 64.3164 79.0284ZM68.6648 79.5713L71.6456 72.978L71.8627 73.2939H67.5889L67.9541 72.9484V74.5869H67.2533V72.6622H72.3266V73.1656L69.4346 79.5713H68.6648ZM74.1907 79.5713L78.9087 72.6622H79.491L74.7731 79.5713H74.1907ZM74.7237 76.3635C74.4145 76.3635 74.1414 76.2878 73.9045 76.1365C73.6676 75.9786 73.4834 75.7581 73.3518 75.4752C73.2268 75.1922 73.1642 74.8632 73.1642 74.4882C73.1642 74.1131 73.2268 73.7841 73.3518 73.5012C73.4834 73.2182 73.6676 73.0011 73.9045 72.8497C74.1414 72.6918 74.4145 72.6128 74.7237 72.6128C75.033 72.6128 75.3028 72.6918 75.5331 72.8497C75.77 73.0011 75.9542 73.2182 76.0858 73.5012C76.2174 73.7841 76.2832 74.1131 76.2832 74.4882C76.2832 74.8632 76.2174 75.1922 76.0858 75.4752C75.9542 75.7581 75.77 75.9786 75.5331 76.1365C75.3028 76.2878 75.033 76.3635 74.7237 76.3635ZM74.7237 75.9193C75.0461 75.9193 75.3028 75.7943 75.4936 75.5443C75.691 75.2877 75.7897 74.9356 75.7897 74.4882C75.7897 74.0407 75.691 73.692 75.4936 73.4419C75.3028 73.1853 75.0461 73.057 74.7237 73.057C74.3947 73.057 74.1348 73.1853 73.944 73.4419C73.7532 73.692 73.6577 74.0407 73.6577 74.4882C73.6577 74.9356 73.7532 75.2877 73.944 75.5443C74.1348 75.7943 74.3947 75.9193 74.7237 75.9193ZM78.958 79.6206C78.6553 79.6206 78.3855 79.545 78.1487 79.3936C77.9118 79.2357 77.7275 79.0153 77.5959 78.7323C77.4643 78.4494 77.3985 78.1204 77.3985 77.7453C77.3985 77.3702 77.4643 77.0412 77.5959 76.7583C77.7275 76.4754 77.9118 76.2582 78.1487 76.1069C78.3855 75.949 78.6553 75.87 78.958 75.87C79.2739 75.87 79.5469 75.949 79.7772 76.1069C80.0141 76.2582 80.1951 76.4754 80.3201 76.7583C80.4517 77.0412 80.5175 77.3702 80.5175 77.7453C80.5175 78.1204 80.4517 78.4494 80.3201 78.7323C80.1951 79.0153 80.0141 79.2357 79.7772 79.3936C79.5469 79.545 79.2739 79.6206 78.958 79.6206ZM78.958 79.1765C79.2804 79.1765 79.5371 79.0515 79.7279 78.8014C79.9253 78.5448 80.024 78.1928 80.024 77.7453C80.024 77.2979 79.9253 76.9491 79.7279 76.6991C79.5371 76.4425 79.2804 76.3141 78.958 76.3141C78.6356 76.3141 78.3757 76.4425 78.1783 76.6991C77.9874 76.9491 77.892 77.2979 77.892 77.7453C77.892 78.1928 77.9874 78.5448 78.1783 78.8014C78.3757 79.0515 78.6356 79.1765 78.958 79.1765ZM84.6414 79.5713V72.6622H87.2274C87.813 72.6622 88.3164 72.7576 88.7375 72.9484C89.1587 73.1327 89.4811 73.4025 89.7048 73.7578C89.9351 74.1065 90.0503 74.5309 90.0503 75.031C90.0503 75.518 89.9351 75.9391 89.7048 76.2944C89.4811 76.6432 89.1587 76.9129 88.7375 77.1038C88.3164 77.288 87.813 77.3801 87.2274 77.3801H85.0461L85.3718 77.0445V79.5713H84.6414ZM89.3594 79.5713L87.5827 77.0643H88.3723L90.1588 79.5713H89.3594ZM85.3718 77.1038L85.0461 76.7583H87.2077C87.8986 76.7583 88.4217 76.607 88.777 76.3043C89.1389 76.0016 89.3199 75.5772 89.3199 75.031C89.3199 74.4783 89.1389 74.0506 88.777 73.7479C88.4217 73.4452 87.8986 73.2939 87.2077 73.2939H85.0461L85.3718 72.9484V77.1038ZM94.8252 79.5713V78.4264L94.7956 78.2388V76.324C94.7956 75.8832 94.6705 75.5443 94.4205 75.3074C94.177 75.0705 93.8118 74.9521 93.3249 74.9521C92.9893 74.9521 92.6702 75.008 92.3675 75.1199C92.0648 75.2317 91.8082 75.3798 91.5976 75.564L91.2818 75.0409C91.545 74.8172 91.8608 74.6461 92.2293 74.5277C92.5978 74.4026 92.986 74.3401 93.394 74.3401C94.0652 74.3401 94.5817 74.5079 94.9436 74.8435C95.3121 75.1725 95.4963 75.6759 95.4963 76.3536V79.5713H94.8252ZM93.0387 79.6206C92.6505 79.6206 92.3116 79.5581 92.0221 79.4331C91.7391 79.3015 91.522 79.1238 91.3706 78.9001C91.2193 78.6698 91.1436 78.4066 91.1436 78.1105C91.1436 77.8407 91.2061 77.5973 91.3311 77.3801C91.4627 77.1564 91.6733 76.9787 91.9628 76.8471C92.2589 76.709 92.6537 76.6399 93.1472 76.6399H94.9337V77.163H93.167C92.6669 77.163 92.3182 77.2518 92.1208 77.4295C91.9299 77.6071 91.8345 77.8276 91.8345 78.0908C91.8345 78.3869 91.9497 78.6238 92.18 78.8014C92.4103 78.9791 92.7327 79.0679 93.1472 79.0679C93.5421 79.0679 93.8809 78.9791 94.1639 78.8014C94.4534 78.6172 94.664 78.354 94.7956 78.0118L94.9535 78.4954C94.8219 78.8376 94.5916 79.1107 94.2626 79.3147C93.9401 79.5186 93.5322 79.6206 93.0387 79.6206ZM100.045 74.3401C100.466 74.3401 100.835 74.4224 101.15 74.5869C101.473 74.7448 101.723 74.9883 101.901 75.3173C102.085 75.6463 102.177 76.0608 102.177 76.5609V79.5713H101.476V76.63C101.476 76.0838 101.338 75.6726 101.062 75.3962C100.792 75.1133 100.41 74.9718 99.9166 74.9718C99.5481 74.9718 99.2257 75.0475 98.9493 75.1988C98.6796 75.3436 98.469 75.5574 98.3177 75.8404C98.1729 76.1167 98.1005 76.4523 98.1005 76.8471V79.5713H97.3997V74.3895H98.0709V75.8108L97.9623 75.5443C98.1268 75.1692 98.39 74.8764 98.7519 74.6658C99.1138 74.4487 99.5448 74.3401 100.045 74.3401ZM104.623 78.229L104.642 77.3308L107.87 74.3895H108.728L106.448 76.5708L106.054 76.9064L104.623 78.229ZM104.07 79.5713V72.2477H104.771V79.5713H104.07ZM108.087 79.5713L105.925 76.8767L106.379 76.3339L108.946 79.5713H108.087ZM112.729 79.5713V72.6622H113.459V79.5713H112.729ZM118.204 74.3401C118.626 74.3401 118.994 74.4224 119.31 74.5869C119.632 74.7448 119.882 74.9883 120.06 75.3173C120.244 75.6463 120.336 76.0608 120.336 76.5609V79.5713H119.636V76.63C119.636 76.0838 119.497 75.6726 119.221 75.3962C118.951 75.1133 118.57 74.9718 118.076 74.9718C117.708 74.9718 117.385 75.0475 117.109 75.1988C116.839 75.3436 116.628 75.5574 116.477 75.8404C116.332 76.1167 116.26 76.4523 116.26 76.8471V79.5713H115.559V74.3895H116.23V75.8108L116.122 75.5443C116.286 75.1692 116.55 74.8764 116.911 74.6658C117.273 74.4487 117.704 74.3401 118.204 74.3401ZM124.381 79.6206C123.868 79.6206 123.407 79.5088 122.999 79.2851C122.598 79.0548 122.282 78.7422 122.052 78.3474C121.821 77.946 121.706 77.4887 121.706 76.9754C121.706 76.4556 121.821 75.9983 122.052 75.6035C122.282 75.2087 122.598 74.8994 122.999 74.6757C123.407 74.452 123.868 74.3401 124.381 74.3401C124.822 74.3401 125.22 74.4257 125.575 74.5967C125.931 74.7678 126.21 75.0244 126.414 75.3666L125.891 75.7219C125.713 75.4587 125.493 75.2646 125.23 75.1396C124.967 75.0146 124.68 74.9521 124.371 74.9521C124.003 74.9521 123.67 75.0376 123.374 75.2087C123.078 75.3732 122.845 75.6068 122.673 75.9095C122.502 76.2122 122.417 76.5675 122.417 76.9754C122.417 77.3834 122.502 77.7387 122.673 78.0414C122.845 78.3441 123.078 78.581 123.374 78.7521C123.67 78.9166 124.003 78.9988 124.371 78.9988C124.68 78.9988 124.967 78.9363 125.23 78.8113C125.493 78.6863 125.713 78.4954 125.891 78.2388L126.414 78.5941C126.21 78.9297 125.931 79.1864 125.575 79.364C125.22 79.5351 124.822 79.6206 124.381 79.6206ZM127.791 79.5713V74.3895H128.462V75.8009L128.393 75.5541C128.538 75.1593 128.781 74.8599 129.123 74.656C129.465 74.4454 129.89 74.3401 130.397 74.3401V75.0212C130.37 75.0212 130.344 75.0212 130.318 75.0212C130.291 75.0146 130.265 75.0113 130.239 75.0113C129.693 75.0113 129.265 75.1791 128.956 75.5147C128.646 75.8437 128.492 76.3141 128.492 76.9261V79.5713H127.791ZM133.828 79.6206C133.289 79.6206 132.815 79.5088 132.407 79.2851C131.999 79.0548 131.68 78.7422 131.449 78.3474C131.219 77.946 131.104 77.4887 131.104 76.9754C131.104 76.4622 131.213 76.0082 131.43 75.6134C131.653 75.2186 131.956 74.9093 132.338 74.6856C132.726 74.4553 133.16 74.3401 133.641 74.3401C134.128 74.3401 134.559 74.452 134.934 74.6757C135.315 74.8928 135.615 75.2021 135.832 75.6035C136.049 75.9983 136.157 76.4556 136.157 76.9754C136.157 77.0083 136.154 77.0445 136.148 77.084C136.148 77.1169 136.148 77.1531 136.148 77.1926H131.637V76.6695H135.773L135.496 76.8767C135.496 76.5017 135.414 76.1694 135.249 75.8799C135.092 75.5838 134.874 75.3535 134.598 75.189C134.322 75.0244 134.003 74.9422 133.641 74.9422C133.285 74.9422 132.966 75.0244 132.683 75.189C132.4 75.3535 132.18 75.5838 132.022 75.8799C131.864 76.176 131.785 76.5148 131.785 76.8965V77.0051C131.785 77.3999 131.871 77.7486 132.042 78.0513C132.219 78.3474 132.463 78.581 132.772 78.7521C133.088 78.9166 133.447 78.9988 133.848 78.9988C134.164 78.9988 134.457 78.9429 134.726 78.831C135.003 78.7192 135.24 78.5481 135.437 78.3178L135.832 78.7718C135.601 79.0482 135.312 79.2587 134.963 79.4035C134.621 79.5483 134.243 79.6206 133.828 79.6206ZM140.687 79.5713V78.4264L140.657 78.2388V76.324C140.657 75.8832 140.532 75.5443 140.282 75.3074C140.038 75.0705 139.673 74.9521 139.186 74.9521C138.851 74.9521 138.532 75.008 138.229 75.1199C137.926 75.2317 137.67 75.3798 137.459 75.564L137.143 75.0409C137.406 74.8172 137.722 74.6461 138.091 74.5277C138.459 74.4026 138.847 74.3401 139.255 74.3401C139.927 74.3401 140.443 74.5079 140.805 74.8435C141.174 75.1725 141.358 75.6759 141.358 76.3536V79.5713H140.687ZM138.9 79.6206C138.512 79.6206 138.173 79.5581 137.883 79.4331C137.601 79.3015 137.383 79.1238 137.232 78.9001C137.081 78.6698 137.005 78.4066 137.005 78.1105C137.005 77.8407 137.068 77.5973 137.193 77.3801C137.324 77.1564 137.535 76.9787 137.824 76.8471C138.12 76.709 138.515 76.6399 139.009 76.6399H140.795V77.163H139.028C138.528 77.163 138.18 77.2518 137.982 77.4295C137.791 77.6071 137.696 77.8276 137.696 78.0908C137.696 78.3869 137.811 78.6238 138.041 78.8014C138.272 78.9791 138.594 79.0679 139.009 79.0679C139.403 79.0679 139.742 78.9791 140.025 78.8014C140.315 78.6172 140.525 78.354 140.657 78.0118L140.815 78.4954C140.683 78.8376 140.453 79.1107 140.124 79.3147C139.802 79.5186 139.394 79.6206 138.9 79.6206ZM144.653 79.6206C144.225 79.6206 143.82 79.5614 143.439 79.443C143.057 79.318 142.758 79.1633 142.541 78.9791L142.856 78.4264C143.067 78.5843 143.337 78.7225 143.666 78.8409C143.995 78.9528 144.34 79.0087 144.702 79.0087C145.196 79.0087 145.551 78.933 145.768 78.7817C145.985 78.6238 146.094 78.4165 146.094 78.1599C146.094 77.969 146.031 77.821 145.906 77.7157C145.788 77.6038 145.63 77.5216 145.433 77.469C145.235 77.4097 145.015 77.3604 144.771 77.3209C144.528 77.2814 144.284 77.2354 144.041 77.1827C143.804 77.1301 143.587 77.0544 143.389 76.9557C143.192 76.8504 143.031 76.709 142.906 76.5313C142.787 76.3536 142.728 76.1167 142.728 75.8206C142.728 75.5377 142.807 75.2844 142.965 75.0606C143.123 74.8369 143.353 74.6625 143.656 74.5375C143.965 74.4059 144.34 74.3401 144.781 74.3401C145.117 74.3401 145.452 74.3862 145.788 74.4783C146.123 74.5638 146.4 74.679 146.617 74.8238L146.311 75.3864C146.081 75.2284 145.834 75.1166 145.571 75.0508C145.308 74.9784 145.044 74.9422 144.781 74.9422C144.314 74.9422 143.968 75.0244 143.745 75.189C143.528 75.3469 143.419 75.5509 143.419 75.8009C143.419 75.9983 143.478 76.1529 143.597 76.2648C143.722 76.3767 143.883 76.4655 144.08 76.5313C144.284 76.5905 144.505 76.6399 144.742 76.6793C144.985 76.7188 145.225 76.7682 145.462 76.8274C145.706 76.88 145.926 76.9557 146.123 77.0544C146.327 77.1465 146.489 77.2814 146.607 77.4591C146.732 77.6302 146.795 77.8572 146.795 78.1401C146.795 78.4428 146.709 78.706 146.538 78.9297C146.374 79.1469 146.13 79.318 145.808 79.443C145.492 79.5614 145.107 79.6206 144.653 79.6206ZM150.282 79.6206C149.742 79.6206 149.268 79.5088 148.86 79.2851C148.452 79.0548 148.133 78.7422 147.903 78.3474C147.673 77.946 147.557 77.4887 147.557 76.9754C147.557 76.4622 147.666 76.0082 147.883 75.6134C148.107 75.2186 148.41 74.9093 148.791 74.6856C149.179 74.4553 149.614 74.3401 150.094 74.3401C150.581 74.3401 151.012 74.452 151.387 74.6757C151.769 74.8928 152.068 75.2021 152.285 75.6035C152.502 75.9983 152.611 76.4556 152.611 76.9754C152.611 77.0083 152.608 77.0445 152.601 77.084C152.601 77.1169 152.601 77.1531 152.601 77.1926H148.09V76.6695H152.226L151.95 76.8767C151.95 76.5017 151.867 76.1694 151.703 75.8799C151.545 75.5838 151.328 75.3535 151.051 75.189C150.775 75.0244 150.456 74.9422 150.094 74.9422C149.739 74.9422 149.42 75.0244 149.137 75.189C148.854 75.3535 148.633 75.5838 148.475 75.8799C148.317 76.176 148.238 76.5148 148.238 76.8965V77.0051C148.238 77.3999 148.324 77.7486 148.495 78.0513C148.673 78.3474 148.916 78.581 149.225 78.7521C149.541 78.9166 149.9 78.9988 150.301 78.9988C150.617 78.9988 150.91 78.9429 151.18 78.831C151.456 78.7192 151.693 78.5481 151.89 78.3178L152.285 78.7718C152.055 79.0482 151.765 79.2587 151.417 79.4035C151.074 79.5483 150.696 79.6206 150.282 79.6206Z" fill="black"/>
<defs>
<clipPath id="clip0_143_280">
<rect width="46" height="46.07" fill="white" transform="translate(8 21)"/>
</clipPath>
</defs>
</svg>
