<svg width="165" height="90" viewBox="0 0 165 90" fill="none" xmlns="http://www.w3.org/2000/svg">
<rect width="165" height="90" rx="8" fill="#F8F8F8"/>
<g clip-path="url(#clip0_145_305)">
<path d="M52 44.5C52 34.835 44.165 27 34.5 27C24.835 27 17 34.835 17 44.5C17 53.2348 23.3995 60.4746 31.7656 61.7873V49.5586H27.3223V44.5H31.7656V40.6445C31.7656 36.2586 34.3783 33.8359 38.3756 33.8359C40.2903 33.8359 42.293 34.1777 42.293 34.1777V38.4844H40.0862C37.9123 38.4844 37.2344 39.8333 37.2344 41.2173V44.5H42.0879L41.312 49.5586H37.2344V61.7873C45.6005 60.4746 52 53.2348 52 44.5Z" fill="#1877F2"/>
<path d="M41.312 49.5586L42.0879 44.5H37.2344V41.2173C37.2344 39.8333 37.9123 38.4844 40.0862 38.4844H42.293V34.1777C42.293 34.1777 40.2903 33.8359 38.3756 33.8359C34.3783 33.8359 31.7656 36.2586 31.7656 40.6445V44.5H27.3223V49.5586H31.7656V61.7873C33.5775 62.0709 35.4225 62.0709 37.2344 61.7873V49.5586H41.312Z" fill="white"/>
</g>
<path d="M69 29L71.2451 35.9098H78.5106L72.6327 40.1803L74.8779 47.0902L69 42.8197L63.1221 47.0902L65.3673 40.1803L59.4894 35.9098H66.7549L69 29Z" fill="#DF5D01"/>
<path d="M89.9092 29L92.1543 35.9098H99.4197L93.5419 40.1803L95.787 47.0902L89.9092 42.8197L84.0313 47.0902L86.2765 40.1803L80.3986 35.9098H87.664L89.9092 29Z" fill="#DF5D01"/>
<path d="M110.818 29L113.063 35.9098H120.329L114.451 40.1803L116.696 47.0902L110.818 42.8197L104.941 47.0902L107.186 40.1803L101.308 35.9098H108.573L110.818 29Z" fill="#DF5D01"/>
<path d="M131.727 29L133.972 35.9098H141.238L135.36 40.1803L137.605 47.0902L131.727 42.8197L125.849 47.0902L128.094 40.1803L122.216 35.9098H129.482L131.727 29Z" fill="#DF5D01"/>
<path d="M61.7044 66.079C61.2175 66.079 60.7437 66.0033 60.2831 65.8519C59.8291 65.7006 59.4573 65.4966 59.1678 65.24L59.6218 64.4603C59.8521 64.6774 60.1515 64.8551 60.52 64.9932C60.8885 65.1314 61.28 65.2005 61.6945 65.2005C62.221 65.2005 62.6256 65.0887 62.9086 64.8649C63.1915 64.6412 63.333 64.3418 63.333 63.9668C63.333 63.7101 63.2705 63.4864 63.1455 63.2956C63.0204 63.1048 62.8033 62.96 62.494 62.8613C62.1913 62.756 61.7735 62.7034 61.2405 62.7034H59.6712L60.0364 59.0909H63.9351V59.9496H60.4016L60.9148 59.466L60.6286 62.3184L60.1153 61.8447H61.4478C62.1387 61.8447 62.6947 61.9335 63.1158 62.1112C63.537 62.2888 63.8429 62.5356 64.0338 62.8514C64.2246 63.1607 64.32 63.5193 64.32 63.9273C64.32 64.3221 64.2246 64.684 64.0338 65.013C63.8429 65.3354 63.5534 65.5953 63.1652 65.7927C62.7836 65.9835 62.2966 66.079 61.7044 66.079ZM70.3682 66.079C69.8417 66.079 69.3384 66 68.858 65.8421C68.3777 65.6776 67.9993 65.467 67.723 65.2104L68.0882 64.4405C68.3514 64.6708 68.6869 64.8616 69.0949 65.013C69.5029 65.1643 69.9273 65.24 70.3682 65.24C70.7695 65.24 71.0953 65.1939 71.3453 65.1018C71.5953 65.0097 71.7796 64.8847 71.898 64.7268C72.0165 64.5623 72.0757 64.378 72.0757 64.174C72.0757 63.9371 71.9967 63.7463 71.8388 63.6016C71.6875 63.4568 71.4868 63.3416 71.2367 63.2561C70.9933 63.164 70.7235 63.085 70.4274 63.0192C70.1313 62.9534 69.8319 62.8777 69.5292 62.7922C69.2331 62.7001 68.96 62.5849 68.71 62.4468C68.4665 62.3086 68.2691 62.1243 68.1178 61.894C67.9664 61.6571 67.8908 61.3545 67.8908 60.986C67.8908 60.6306 67.9829 60.3049 68.1671 60.0088C68.3579 59.7061 68.6475 59.466 69.0357 59.2883C69.4305 59.1041 69.9306 59.0119 70.5359 59.0119C70.9373 59.0119 71.3354 59.0646 71.7302 59.1699C72.125 59.2752 72.4672 59.4265 72.7567 59.6239L72.431 60.4135C72.1349 60.2161 71.8224 60.0746 71.4933 59.9891C71.1643 59.897 70.8452 59.8509 70.5359 59.8509C70.1477 59.8509 69.8286 59.9003 69.5785 59.999C69.3285 60.0977 69.1443 60.2293 69.0258 60.3938C68.914 60.5583 68.858 60.7425 68.858 60.9465C68.858 61.19 68.9337 61.3841 69.085 61.5288C69.243 61.6736 69.4437 61.7887 69.6871 61.8743C69.9372 61.9598 70.2102 62.0388 70.5063 62.1112C70.8024 62.177 71.0985 62.2526 71.3946 62.3382C71.6973 62.4237 71.9704 62.5356 72.2139 62.6738C72.4639 62.8119 72.6646 62.9962 72.8159 63.2265C72.9673 63.4568 73.043 63.7529 73.043 64.1148C73.043 64.4635 72.9475 64.7893 72.7567 65.0919C72.5659 65.3881 72.2698 65.6282 71.8684 65.8125C71.4736 65.9901 70.9735 66.079 70.3682 66.079ZM76.1431 66.0592C75.6167 66.0592 75.2087 65.9177 74.9192 65.6348C74.6297 65.3519 74.4849 64.9472 74.4849 64.4208V59.6239H75.4325V64.3813C75.4325 64.6642 75.5015 64.8814 75.6397 65.0327C75.7845 65.1841 75.9885 65.2597 76.2517 65.2597C76.5478 65.2597 76.7945 65.1775 76.9919 65.013L77.288 65.694C77.1433 65.819 76.9689 65.9112 76.7649 65.9704C76.5675 66.0296 76.3602 66.0592 76.1431 66.0592ZM73.5966 61.5486V60.7688H76.9327V61.5486H73.5966ZM81.6809 66V64.8945L81.6315 64.6873V62.8021C81.6315 62.4007 81.5131 62.0914 81.2762 61.8743C81.0459 61.6506 80.6971 61.5387 80.23 61.5387C79.9207 61.5387 79.618 61.5913 79.3219 61.6966C79.0258 61.7953 78.7758 61.9302 78.5718 62.1013L78.177 61.3906C78.4468 61.1735 78.7692 61.009 79.1442 60.8971C79.5259 60.7787 79.924 60.7195 80.3385 60.7195C81.0558 60.7195 81.6085 60.8939 81.9967 61.2426C82.3849 61.5913 82.579 62.1243 82.579 62.8416V66H81.6809ZM79.9635 66.0592C79.5752 66.0592 79.2331 65.9934 78.937 65.8618C78.6474 65.7302 78.4237 65.5493 78.2658 65.319C78.1079 65.0821 78.0289 64.8156 78.0289 64.5195C78.0289 64.2365 78.0947 63.9799 78.2263 63.7496C78.3645 63.5193 78.5849 63.3351 78.8876 63.1969C79.1969 63.0587 79.6114 62.9896 80.1313 62.9896H81.7894V63.6706H80.1707C79.697 63.6706 79.3778 63.7496 79.2133 63.9075C79.0488 64.0655 78.9666 64.2563 78.9666 64.48C78.9666 64.7366 79.0686 64.9439 79.2726 65.1018C79.4765 65.2532 79.7595 65.3288 80.1214 65.3288C80.4767 65.3288 80.786 65.2499 81.0492 65.0919C81.319 64.934 81.5131 64.7037 81.6315 64.401L81.819 65.0525C81.694 65.3617 81.4736 65.6085 81.1577 65.7927C80.8419 65.9704 80.4438 66.0592 79.9635 66.0592ZM84.3325 66V60.7688H85.2406V62.1901L85.1518 61.8348C85.2965 61.4729 85.54 61.1965 85.8821 61.0057C86.2243 60.8149 86.6454 60.7195 87.1455 60.7195V61.6374C87.106 61.6308 87.0666 61.6275 87.0271 61.6275C86.9942 61.6275 86.9613 61.6275 86.9284 61.6275C86.4217 61.6275 86.0203 61.7789 85.7242 62.0816C85.4281 62.3842 85.2801 62.8218 85.2801 63.3943V66H84.3325ZM91.1697 66V59.0909H93.8642C94.4696 59.0909 94.9861 59.1863 95.4138 59.3771C95.8415 59.568 96.1706 59.8443 96.4009 60.2062C96.6312 60.5681 96.7463 60.9991 96.7463 61.4992C96.7463 61.9993 96.6312 62.4303 96.4009 62.7922C96.1706 63.1475 95.8415 63.4206 95.4138 63.6114C94.9861 63.8023 94.4696 63.8977 93.8642 63.8977H91.7125L92.1567 63.4436V66H91.1697ZM95.7889 66L94.032 63.493H95.0881L96.8648 66H95.7889ZM92.1567 63.5423L91.7125 63.0587H93.8346C94.4663 63.0587 94.9434 62.9238 95.2658 62.654C95.5948 62.3777 95.7593 61.9927 95.7593 61.4992C95.7593 61.0057 95.5948 60.6241 95.2658 60.3543C94.9434 60.0845 94.4663 59.9496 93.8346 59.9496H91.7125L92.1567 59.4561V63.5423ZM101.402 66V64.8945L101.352 64.6873V62.8021C101.352 62.4007 101.234 62.0914 100.997 61.8743C100.767 61.6506 100.418 61.5387 99.9509 61.5387C99.6417 61.5387 99.339 61.5913 99.0429 61.6966C98.7468 61.7953 98.4967 61.9302 98.2928 62.1013L97.898 61.3906C98.1677 61.1735 98.4902 61.009 98.8652 60.8971C99.2469 60.7787 99.645 60.7195 100.06 60.7195C100.777 60.7195 101.329 60.8939 101.718 61.2426C102.106 61.5913 102.3 62.1243 102.3 62.8416V66H101.402ZM99.6844 66.0592C99.2962 66.0592 98.9541 65.9934 98.658 65.8618C98.3684 65.7302 98.1447 65.5493 97.9868 65.319C97.8289 65.0821 97.7499 64.8156 97.7499 64.5195C97.7499 64.2365 97.8157 63.9799 97.9473 63.7496C98.0855 63.5193 98.3059 63.3351 98.6086 63.1969C98.9179 63.0587 99.3324 62.9896 99.8522 62.9896H101.51V63.6706H99.8917C99.418 63.6706 99.0988 63.7496 98.9343 63.9075C98.7698 64.0655 98.6876 64.2563 98.6876 64.48C98.6876 64.7366 98.7896 64.9439 98.9935 65.1018C99.1975 65.2532 99.4805 65.3288 99.8424 65.3288C100.198 65.3288 100.507 65.2499 100.77 65.0919C101.04 64.934 101.234 64.7037 101.352 64.401L101.54 65.0525C101.415 65.3617 101.195 65.6085 100.879 65.7927C100.563 65.9704 100.165 66.0592 99.6844 66.0592ZM105.85 66.0592C105.323 66.0592 104.916 65.9177 104.626 65.6348C104.336 65.3519 104.192 64.9472 104.192 64.4208V59.6239H105.139V64.3813C105.139 64.6642 105.208 64.8814 105.347 65.0327C105.491 65.1841 105.695 65.2597 105.958 65.2597C106.255 65.2597 106.501 65.1775 106.699 65.013L106.995 65.694C106.85 65.819 106.676 65.9112 106.472 65.9704C106.274 66.0296 106.067 66.0592 105.85 66.0592ZM103.303 61.5486V60.7688H106.639V61.5486H103.303ZM108.14 66V60.7688H109.088V66H108.14ZM108.614 59.7621C108.43 59.7621 108.275 59.7029 108.15 59.5844C108.032 59.466 107.973 59.3212 107.973 59.1501C107.973 58.9725 108.032 58.8244 108.15 58.706C108.275 58.5875 108.43 58.5283 108.614 58.5283C108.798 58.5283 108.95 58.5875 109.068 58.706C109.193 58.8178 109.256 58.9593 109.256 59.1304C109.256 59.3081 109.196 59.4594 109.078 59.5844C108.96 59.7029 108.805 59.7621 108.614 59.7621ZM113.69 60.7195C114.118 60.7195 114.493 60.8017 114.816 60.9662C115.145 61.1307 115.401 61.3808 115.585 61.7164C115.77 62.0519 115.862 62.4764 115.862 62.9896V66H114.914V63.0982C114.914 62.5915 114.789 62.2099 114.539 61.9532C114.296 61.6966 113.95 61.5683 113.503 61.5683C113.167 61.5683 112.874 61.6341 112.624 61.7657C112.374 61.8973 112.18 62.0914 112.042 62.3481C111.91 62.6047 111.845 62.9238 111.845 63.3055V66H110.897V60.7688H111.805V62.1803L111.657 61.8052C111.828 61.463 112.091 61.1965 112.447 61.0057C112.802 60.8149 113.217 60.7195 113.69 60.7195ZM119.905 67.974C119.425 67.974 118.958 67.9049 118.504 67.7668C118.056 67.6352 117.691 67.4443 117.408 67.1943L117.862 66.4639C118.106 66.6745 118.405 66.839 118.76 66.9574C119.116 67.0824 119.487 67.1449 119.876 67.1449C120.494 67.1449 120.948 67.0002 121.238 66.7106C121.527 66.4211 121.672 65.9803 121.672 65.3881V64.2826L121.771 63.2462L121.721 62.2V60.7688H122.619V65.2894C122.619 66.2106 122.389 66.8883 121.929 67.3226C121.468 67.7569 120.793 67.974 119.905 67.974ZM119.787 65.7829C119.28 65.7829 118.826 65.6776 118.425 65.467C118.03 65.2499 117.714 64.9505 117.477 64.5688C117.247 64.1872 117.132 63.7463 117.132 63.2462C117.132 62.7396 117.247 62.2987 117.477 61.9236C117.714 61.542 118.03 61.2459 118.425 61.0353C118.826 60.8248 119.28 60.7195 119.787 60.7195C120.234 60.7195 120.642 60.8116 121.011 60.9958C121.379 61.1735 121.672 61.4499 121.889 61.8249C122.113 62.2 122.225 62.6738 122.225 63.2462C122.225 63.8121 122.113 64.2826 121.889 64.6577C121.672 65.0327 121.379 65.3157 121.011 65.5065C120.642 65.6907 120.234 65.7829 119.787 65.7829ZM119.895 64.9538C120.244 64.9538 120.553 64.8814 120.823 64.7366C121.093 64.5919 121.303 64.3912 121.455 64.1345C121.613 63.8779 121.692 63.5818 121.692 63.2462C121.692 62.9106 121.613 62.6145 121.455 62.3579C121.303 62.1013 121.093 61.9039 120.823 61.7657C120.553 61.621 120.244 61.5486 119.895 61.5486C119.547 61.5486 119.234 61.621 118.958 61.7657C118.688 61.9039 118.474 62.1013 118.316 62.3579C118.165 62.6145 118.089 62.9106 118.089 63.2462C118.089 63.5818 118.165 63.8779 118.316 64.1345C118.474 64.3912 118.688 64.5919 118.958 64.7366C119.234 64.8814 119.547 64.9538 119.895 64.9538Z" fill="black"/>
<path d="M60.7766 76.0082H64.4286V76.6399H60.7766V76.0082ZM60.8556 79.5713H60.1252V72.6622H64.8629V73.2939H60.8556V79.5713ZM69.2583 79.5713V78.4264L69.2287 78.2388V76.324C69.2287 75.8832 69.1037 75.5443 68.8536 75.3074C68.6102 75.0705 68.245 74.9521 67.758 74.9521C67.4225 74.9521 67.1033 75.008 66.8006 75.1199C66.498 75.2317 66.2413 75.3798 66.0308 75.564L65.7149 75.0409C65.9781 74.8172 66.294 74.6461 66.6625 74.5277C67.0309 74.4026 67.4192 74.3401 67.8271 74.3401C68.4983 74.3401 69.0148 74.5079 69.3767 74.8435C69.7452 75.1725 69.9295 75.6759 69.9295 76.3536V79.5713H69.2583ZM67.4718 79.6206C67.0836 79.6206 66.7447 79.5581 66.4552 79.4331C66.1722 79.3015 65.9551 79.1238 65.8038 78.9001C65.6524 78.6698 65.5767 78.4066 65.5767 78.1105C65.5767 77.8407 65.6393 77.5973 65.7643 77.3801C65.8959 77.1564 66.1064 76.9787 66.396 76.8471C66.6921 76.709 67.0869 76.6399 67.5804 76.6399H69.3669V77.163H67.6001C67.1 77.163 66.7513 77.2518 66.5539 77.4295C66.3631 77.6071 66.2677 77.8276 66.2677 78.0908C66.2677 78.3869 66.3828 78.6238 66.6131 78.8014C66.8434 78.9791 67.1658 79.0679 67.5804 79.0679C67.9752 79.0679 68.3141 78.9791 68.597 78.8014C68.8865 78.6172 69.0971 78.354 69.2287 78.0118L69.3866 78.4954C69.255 78.8376 69.0247 79.1107 68.6957 79.3147C68.3733 79.5186 67.9653 79.6206 67.4718 79.6206ZM73.9846 79.6206C73.4713 79.6206 73.0107 79.5088 72.6027 79.2851C72.2014 79.0548 71.8855 78.7422 71.6552 78.3474C71.4249 77.946 71.3097 77.4887 71.3097 76.9754C71.3097 76.4556 71.4249 75.9983 71.6552 75.6035C71.8855 75.2087 72.2014 74.8994 72.6027 74.6757C73.0107 74.452 73.4713 74.3401 73.9846 74.3401C74.4254 74.3401 74.8235 74.4257 75.1788 74.5967C75.5342 74.7678 75.8138 75.0244 76.0178 75.3666L75.4947 75.7219C75.317 75.4587 75.0966 75.2646 74.8334 75.1396C74.5702 75.0146 74.2839 74.9521 73.9747 74.9521C73.6062 74.9521 73.2739 75.0376 72.9778 75.2087C72.6817 75.3732 72.4481 75.6068 72.277 75.9095C72.1059 76.2122 72.0204 76.5675 72.0204 76.9754C72.0204 77.3834 72.1059 77.7387 72.277 78.0414C72.4481 78.3441 72.6817 78.581 72.9778 78.7521C73.2739 78.9166 73.6062 78.9988 73.9747 78.9988C74.2839 78.9988 74.5702 78.9363 74.8334 78.8113C75.0966 78.6863 75.317 78.4954 75.4947 78.2388L76.0178 78.5941C75.8138 78.9297 75.5342 79.1864 75.1788 79.364C74.8235 79.5351 74.4254 79.6206 73.9846 79.6206ZM79.5087 79.6206C78.9692 79.6206 78.4954 79.5088 78.0874 79.2851C77.6795 79.0548 77.3603 78.7422 77.13 78.3474C76.8997 77.946 76.7846 77.4887 76.7846 76.9754C76.7846 76.4622 76.8932 76.0082 77.1103 75.6134C77.334 75.2186 77.6367 74.9093 78.0184 74.6856C78.4066 74.4553 78.8409 74.3401 79.3212 74.3401C79.8081 74.3401 80.2391 74.452 80.6142 74.6757C80.9958 74.8928 81.2952 75.2021 81.5124 75.6035C81.7295 75.9983 81.8381 76.4556 81.8381 76.9754C81.8381 77.0083 81.8348 77.0445 81.8282 77.084C81.8282 77.1169 81.8282 77.1531 81.8282 77.1926H77.3176V76.6695H81.4532L81.1768 76.8767C81.1768 76.5017 81.0945 76.1694 80.93 75.8799C80.7721 75.5838 80.555 75.3535 80.2786 75.189C80.0023 75.0244 79.6831 74.9422 79.3212 74.9422C78.9659 74.9422 78.6468 75.0244 78.3638 75.189C78.0809 75.3535 77.8604 75.5838 77.7025 75.8799C77.5446 76.176 77.4656 76.5148 77.4656 76.8965V77.0051C77.4656 77.3999 77.5512 77.7486 77.7223 78.0513C77.8999 78.3474 78.1434 78.581 78.4526 78.7521C78.7685 78.9166 79.1271 78.9988 79.5285 78.9988C79.8443 78.9988 80.1371 78.9429 80.4069 78.831C80.6833 78.7192 80.9202 78.5481 81.1176 78.3178L81.5124 78.7718C81.2821 79.0482 80.9926 79.2587 80.6438 79.4035C80.3016 79.5483 79.9233 79.6206 79.5087 79.6206ZM85.9393 79.6206C85.4853 79.6206 85.0773 79.5186 84.7154 79.3147C84.3535 79.1041 84.0673 78.8014 83.8567 78.4066C83.6461 78.0118 83.5408 77.5348 83.5408 76.9754C83.5408 76.4096 83.6461 75.9325 83.8567 75.5443C84.0738 75.1495 84.3634 74.8501 84.7253 74.6461C85.0872 74.4421 85.4918 74.3401 85.9393 74.3401C86.4328 74.3401 86.8737 74.452 87.2619 74.6757C87.6567 74.8928 87.966 75.1988 88.1897 75.5936C88.4134 75.9884 88.5253 76.449 88.5253 76.9754C88.5253 77.4953 88.4134 77.9559 88.1897 78.3573C87.966 78.7521 87.6567 79.0613 87.2619 79.2851C86.8737 79.5088 86.4328 79.6206 85.9393 79.6206ZM83.2645 79.5713V72.2477H83.9653V75.9193L83.8666 76.9656L83.9357 78.0118V79.5713H83.2645ZM85.8899 78.9988C86.2584 78.9988 86.5874 78.9166 86.877 78.7521C87.1665 78.581 87.3968 78.3441 87.5679 78.0414C87.7389 77.7322 87.8245 77.3768 87.8245 76.9754C87.8245 76.5675 87.7389 76.2122 87.5679 75.9095C87.3968 75.6068 87.1665 75.3732 86.877 75.2087C86.5874 75.0376 86.2584 74.9521 85.8899 74.9521C85.5215 74.9521 85.1892 75.0376 84.8931 75.2087C84.6035 75.3732 84.3732 75.6068 84.2021 75.9095C84.0376 76.2122 83.9554 76.5675 83.9554 76.9754C83.9554 77.3768 84.0376 77.7322 84.2021 78.0414C84.3732 78.3441 84.6035 78.581 84.8931 78.7521C85.1892 78.9166 85.5215 78.9988 85.8899 78.9988ZM92.066 79.6206C91.5659 79.6206 91.1152 79.5088 90.7138 79.2851C90.319 79.0548 90.0064 78.7422 89.7761 78.3474C89.5458 77.946 89.4307 77.4887 89.4307 76.9754C89.4307 76.4556 89.5458 75.9983 89.7761 75.6035C90.0064 75.2087 90.319 74.8994 90.7138 74.6757C91.1086 74.452 91.5593 74.3401 92.066 74.3401C92.5793 74.3401 93.0333 74.452 93.4281 74.6757C93.8295 74.8994 94.142 75.2087 94.3658 75.6035C94.5961 75.9983 94.7112 76.4556 94.7112 76.9754C94.7112 77.4887 94.5961 77.946 94.3658 78.3474C94.142 78.7422 93.8295 79.0548 93.4281 79.2851C93.0267 79.5088 92.5727 79.6206 92.066 79.6206ZM92.066 78.9988C92.4411 78.9988 92.7734 78.9166 93.0629 78.7521C93.3524 78.581 93.5794 78.3441 93.7439 78.0414C93.915 77.7322 94.0006 77.3768 94.0006 76.9754C94.0006 76.5675 93.915 76.2122 93.7439 75.9095C93.5794 75.6068 93.3524 75.3732 93.0629 75.2087C92.7734 75.0376 92.4444 74.9521 92.0759 74.9521C91.7074 74.9521 91.3784 75.0376 91.0889 75.2087C90.7993 75.3732 90.569 75.6068 90.398 75.9095C90.2269 76.2122 90.1413 76.5675 90.1413 76.9754C90.1413 77.3768 90.2269 77.7322 90.398 78.0414C90.569 78.3441 90.7993 78.581 91.0889 78.7521C91.3784 78.9166 91.7041 78.9988 92.066 78.9988ZM98.2541 79.6206C97.754 79.6206 97.3033 79.5088 96.9019 79.2851C96.5071 79.0548 96.1946 78.7422 95.9643 78.3474C95.734 77.946 95.6188 77.4887 95.6188 76.9754C95.6188 76.4556 95.734 75.9983 95.9643 75.6035C96.1946 75.2087 96.5071 74.8994 96.9019 74.6757C97.2967 74.452 97.7475 74.3401 98.2541 74.3401C98.7674 74.3401 99.2214 74.452 99.6162 74.6757C100.018 74.8994 100.33 75.2087 100.554 75.6035C100.784 75.9983 100.899 76.4556 100.899 76.9754C100.899 77.4887 100.784 77.946 100.554 78.3474C100.33 78.7422 100.018 79.0548 99.6162 79.2851C99.2148 79.5088 98.7608 79.6206 98.2541 79.6206ZM98.2541 78.9988C98.6292 78.9988 98.9615 78.9166 99.251 78.7521C99.5405 78.581 99.7675 78.3441 99.932 78.0414C100.103 77.7322 100.189 77.3768 100.189 76.9754C100.189 76.5675 100.103 76.2122 99.932 75.9095C99.7675 75.6068 99.5405 75.3732 99.251 75.2087C98.9615 75.0376 98.6325 74.9521 98.264 74.9521C97.8955 74.9521 97.5665 75.0376 97.277 75.2087C96.9875 75.3732 96.7572 75.6068 96.5861 75.9095C96.415 76.2122 96.3295 76.5675 96.3295 76.9754C96.3295 77.3768 96.415 77.7322 96.5861 78.0414C96.7572 78.3441 96.9875 78.581 97.277 78.7521C97.5665 78.9166 97.8922 78.9988 98.2541 78.9988ZM102.883 78.229L102.902 77.3308L106.13 74.3895H106.989L104.709 76.5708L104.314 76.9064L102.883 78.229ZM102.33 79.5713V72.2477H103.031V79.5713H102.33ZM106.347 79.5713L104.186 76.8767L104.64 76.3339L107.206 79.5713H106.347ZM110.989 79.5713V72.6622H113.575C114.161 72.6622 114.664 72.7576 115.085 72.9484C115.506 73.1327 115.829 73.4025 116.053 73.7578C116.283 74.1065 116.398 74.5309 116.398 75.031C116.398 75.518 116.283 75.9391 116.053 76.2944C115.829 76.6432 115.506 76.9129 115.085 77.1038C114.664 77.2946 114.161 77.39 113.575 77.39H111.394L111.72 77.0445V79.5713H110.989ZM111.72 77.1038L111.394 76.7484H113.555C114.246 76.7484 114.769 76.6004 115.125 76.3043C115.487 76.0016 115.668 75.5772 115.668 75.031C115.668 74.4783 115.487 74.0506 115.125 73.7479C114.769 73.4452 114.246 73.2939 113.555 73.2939H111.394L111.72 72.9484V77.1038ZM121.028 79.5713V78.4264L120.999 78.2388V76.324C120.999 75.8832 120.874 75.5443 120.624 75.3074C120.38 75.0705 120.015 74.9521 119.528 74.9521C119.192 74.9521 118.873 75.008 118.571 75.1199C118.268 75.2317 118.011 75.3798 117.801 75.564L117.485 75.0409C117.748 74.8172 118.064 74.6461 118.432 74.5277C118.801 74.4026 119.189 74.3401 119.597 74.3401C120.268 74.3401 120.785 74.5079 121.147 74.8435C121.515 75.1725 121.699 75.6759 121.699 76.3536V79.5713H121.028ZM119.242 79.6206C118.854 79.6206 118.515 79.5581 118.225 79.4331C117.942 79.3015 117.725 79.1238 117.574 78.9001C117.422 78.6698 117.347 78.4066 117.347 78.1105C117.347 77.8407 117.409 77.5973 117.534 77.3801C117.666 77.1564 117.876 76.9787 118.166 76.8471C118.462 76.709 118.857 76.6399 119.35 76.6399H121.137V77.163H119.37C118.87 77.163 118.521 77.2518 118.324 77.4295C118.133 77.6071 118.038 77.8276 118.038 78.0908C118.038 78.3869 118.153 78.6238 118.383 78.8014C118.613 78.9791 118.936 79.0679 119.35 79.0679C119.745 79.0679 120.084 78.9791 120.367 78.8014C120.657 78.6172 120.867 78.354 120.999 78.0118L121.157 78.4954C121.025 78.8376 120.795 79.1107 120.466 79.3147C120.143 79.5186 119.735 79.6206 119.242 79.6206ZM125.814 81.5354C125.34 81.5354 124.886 81.4664 124.452 81.3282C124.017 81.19 123.665 80.9926 123.396 80.736L123.751 80.203C123.994 80.4201 124.294 80.5912 124.649 80.7162C125.011 80.8478 125.393 80.9136 125.794 80.9136C126.452 80.9136 126.936 80.759 127.245 80.4497C127.554 80.147 127.709 79.6733 127.709 79.0284V77.7354L127.808 76.8471L127.738 75.9588V74.3895H128.41V78.9396C128.41 79.8345 128.189 80.4892 127.748 80.9038C127.314 81.3249 126.669 81.5354 125.814 81.5354ZM125.685 79.3739C125.192 79.3739 124.748 79.2686 124.353 79.058C123.958 78.8409 123.646 78.5415 123.415 78.1599C123.192 77.7782 123.08 77.3406 123.08 76.8471C123.08 76.3536 123.192 75.9193 123.415 75.5443C123.646 75.1626 123.958 74.8665 124.353 74.656C124.748 74.4454 125.192 74.3401 125.685 74.3401C126.146 74.3401 126.561 74.4355 126.929 74.6264C127.298 74.8172 127.59 75.1001 127.808 75.4752C128.025 75.8502 128.133 76.3076 128.133 76.8471C128.133 77.3867 128.025 77.844 127.808 78.2191C127.59 78.5941 127.298 78.8804 126.929 79.0778C126.561 79.2752 126.146 79.3739 125.685 79.3739ZM125.755 78.7521C126.136 78.7521 126.475 78.6731 126.771 78.5152C127.067 78.3507 127.301 78.127 127.472 77.844C127.643 77.5545 127.729 77.2222 127.729 76.8471C127.729 76.4721 127.643 76.1431 127.472 75.8601C127.301 75.5772 127.067 75.3567 126.771 75.1988C126.475 75.0343 126.136 74.9521 125.755 74.9521C125.379 74.9521 125.041 75.0343 124.738 75.1988C124.442 75.3567 124.208 75.5772 124.037 75.8601C123.873 76.1431 123.79 76.4721 123.79 76.8471C123.79 77.2222 123.873 77.5545 124.037 77.844C124.208 78.127 124.442 78.3507 124.738 78.5152C125.041 78.6731 125.379 78.7521 125.755 78.7521ZM132.561 79.6206C132.021 79.6206 131.547 79.5088 131.139 79.2851C130.731 79.0548 130.412 78.7422 130.182 78.3474C129.952 77.946 129.837 77.4887 129.837 76.9754C129.837 76.4622 129.945 76.0082 130.162 75.6134C130.386 75.2186 130.689 74.9093 131.07 74.6856C131.459 74.4553 131.893 74.3401 132.373 74.3401C132.86 74.3401 133.291 74.452 133.666 74.6757C134.048 74.8928 134.347 75.2021 134.564 75.6035C134.781 75.9983 134.89 76.4556 134.89 76.9754C134.89 77.0083 134.887 77.0445 134.88 77.084C134.88 77.1169 134.88 77.1531 134.88 77.1926H130.37V76.6695H134.505L134.229 76.8767C134.229 76.5017 134.146 76.1694 133.982 75.8799C133.824 75.5838 133.607 75.3535 133.331 75.189C133.054 75.0244 132.735 74.9422 132.373 74.9422C132.018 74.9422 131.699 75.0244 131.416 75.189C131.133 75.3535 130.912 75.5838 130.754 75.8799C130.597 76.176 130.518 76.5148 130.518 76.8965V77.0051C130.518 77.3999 130.603 77.7486 130.774 78.0513C130.952 78.3474 131.195 78.581 131.505 78.7521C131.82 78.9166 132.179 78.9988 132.58 78.9988C132.896 78.9988 133.189 78.9429 133.459 78.831C133.735 78.7192 133.972 78.5481 134.17 78.3178L134.564 78.7718C134.334 79.0482 134.045 79.2587 133.696 79.4035C133.354 79.5483 132.975 79.6206 132.561 79.6206Z" fill="black"/>
<defs>
<clipPath id="clip0_145_305">
<rect width="35" height="35" fill="white" transform="translate(17 27)"/>
</clipPath>
</defs>
</svg>
