<svg width="173" height="68" viewBox="0 0 173 68" fill="none" xmlns="http://www.w3.org/2000/svg">
<g filter="url(#filter0_d_166_39)">
<rect x="4" y="2" width="165" height="60" rx="8" fill="#F8F8F8"/>
</g>
<g clip-path="url(#clip0_166_39)">
<path d="M56 31.5C56 21.835 48.165 14 38.5 14C28.835 14 21 21.835 21 31.5C21 40.2348 27.3995 47.4746 35.7656 48.7873V36.5586H31.3223V31.5H35.7656V27.6445C35.7656 23.2586 38.3783 20.8359 42.3756 20.8359C44.2903 20.8359 46.293 21.1777 46.293 21.1777V25.4844H44.0862C41.9123 25.4844 41.2344 26.8333 41.2344 28.2173V31.5H46.0879L45.312 36.5586H41.2344V48.7873C49.6005 47.4746 56 40.2348 56 31.5Z" fill="#1877F2"/>
<path d="M45.312 36.5586L46.0879 31.5H41.2344V28.2173C41.2344 26.8333 41.9123 25.4844 44.0862 25.4844H46.293V21.1777C46.293 21.1777 44.2903 20.8359 42.3756 20.8359C38.3783 20.8359 35.7656 23.2586 35.7656 27.6445V31.5H31.3223V36.5586H35.7656V48.7873C37.5775 49.0709 39.4225 49.0709 41.2344 48.7873V36.5586H45.312Z" fill="white"/>
</g>
<path d="M74 15L76.4697 22.6008H84.4616L77.996 27.2984L80.4656 34.8992L74 30.2016L67.5344 34.8992L70.004 27.2984L63.5384 22.6008H71.5303L74 15Z" fill="#DF5D01"/>
<path d="M96 15L98.4697 22.6008H106.462L99.996 27.2984L102.466 34.8992L96 30.2016L89.5344 34.8992L92.004 27.2984L85.5384 22.6008H93.5303L96 15Z" fill="#DF5D01"/>
<path d="M118 15L120.47 22.6008H128.462L121.996 27.2984L124.466 34.8992L118 30.2016L111.534 34.8992L114.004 27.2984L107.538 22.6008H115.53L118 15Z" fill="#DF5D01"/>
<path d="M140 15L142.47 22.6008H150.462L143.996 27.2984L146.466 34.8992L140 30.2016L133.534 34.8992L136.004 27.2984L129.538 22.6008H137.53L140 15Z" fill="#DF5D01"/>
<path d="M66.0876 45.0972C66.6323 45.0972 67.1058 45.1904 67.508 45.3769C67.9101 45.5597 68.2209 45.8266 68.4403 46.1776C68.6633 46.5285 68.7748 46.9545 68.7748 47.4554C68.7748 48.0038 68.656 48.4772 68.4183 48.8758C68.1807 49.2706 67.8388 49.5759 67.3928 49.7916C66.9468 50.0037 66.413 50.1097 65.7914 50.1097C65.3746 50.1097 64.9871 50.0731 64.6288 50C64.2705 49.9269 63.9689 49.8172 63.7239 49.671V48.8045C63.9908 48.9653 64.3144 49.0933 64.6946 49.1883C65.0748 49.2834 65.4441 49.3309 65.8024 49.3309C66.2082 49.3309 66.5629 49.267 66.8663 49.139C67.1734 49.0074 67.4111 48.8099 67.5793 48.5467C67.7511 48.2798 67.837 47.9453 67.837 47.5431C67.837 47.0093 67.6725 46.598 67.3434 46.3092C67.018 46.0167 66.5025 45.8704 65.7969 45.8704C65.5702 45.8704 65.3216 45.8887 65.0511 45.9253C64.7805 45.9618 64.5575 46.0021 64.382 46.0459L63.9213 45.7443L64.2284 41.9822H68.2154V42.8158H65.0072L64.8043 45.2343C64.9432 45.205 65.1224 45.1758 65.3417 45.1465C65.5611 45.1136 65.8097 45.0972 66.0876 45.0972ZM77.9662 47.8667C77.9662 48.342 77.8474 48.7478 77.6098 49.0841C77.3758 49.4169 77.0467 49.671 76.6226 49.8464C76.1985 50.0219 75.6994 50.1097 75.1254 50.1097C74.822 50.1097 74.535 50.0951 74.2644 50.0658C73.9939 50.0366 73.7453 49.9945 73.5186 49.9397C73.2919 49.8848 73.0927 49.8172 72.9208 49.7368V48.8428C73.195 48.9562 73.5296 49.0622 73.9244 49.1609C74.3193 49.256 74.7324 49.3035 75.1638 49.3035C75.566 49.3035 75.906 49.2505 76.1839 49.1445C76.4617 49.0348 76.672 48.8794 76.8146 48.6783C76.9608 48.4736 77.0339 48.2286 77.0339 47.9434C77.0339 47.6692 76.9736 47.4407 76.8529 47.2579C76.7323 47.0715 76.5312 46.9033 76.2497 46.7534C75.9718 46.5998 75.5916 46.4371 75.109 46.2653C74.769 46.1446 74.4692 46.013 74.2096 45.8704C73.95 45.7242 73.7325 45.5597 73.557 45.3769C73.3815 45.1941 73.248 44.982 73.1566 44.7407C73.0689 44.4994 73.025 44.2234 73.025 43.9126C73.025 43.4848 73.1329 43.1192 73.3486 42.8158C73.5679 42.5087 73.8696 42.2747 74.2535 42.1138C74.641 41.9493 75.0852 41.867 75.5861 41.867C76.0139 41.867 76.4087 41.9072 76.7707 41.9877C77.1363 42.0681 77.4708 42.176 77.7743 42.3112L77.4836 43.1119C77.1948 42.9913 76.8877 42.8907 76.5623 42.8103C76.2406 42.7299 75.9078 42.6896 75.5642 42.6896C75.2205 42.6896 74.9298 42.7408 74.6922 42.8432C74.4582 42.9419 74.2791 43.0827 74.1547 43.2655C74.0304 43.4483 73.9683 43.6658 73.9683 43.9181C73.9683 44.1996 74.0268 44.4336 74.1438 44.6201C74.2644 44.8065 74.4545 44.9729 74.7141 45.1191C74.9774 45.2617 75.3247 45.4116 75.7561 45.5688C76.2278 45.7406 76.6281 45.9235 76.9571 46.1172C77.2862 46.3073 77.5366 46.5413 77.7085 46.8192C77.8803 47.0934 77.9662 47.4426 77.9662 47.8667ZM81.4103 49.3638C81.5602 49.3638 81.7137 49.351 81.8709 49.3255C82.0282 49.2999 82.1561 49.2688 82.2548 49.2322V49.9397C82.1488 49.9872 82.0007 50.0274 81.8106 50.0603C81.6242 50.0932 81.4413 50.1097 81.2622 50.1097C80.9441 50.1097 80.6553 50.0548 80.3957 49.9452C80.1361 49.8318 79.9277 49.6417 79.7705 49.3748C79.617 49.1079 79.5402 48.7386 79.5402 48.267V44.7023H78.6847V44.2581L79.5457 43.9016L79.9076 42.5964H80.456V43.9894H82.2164V44.7023H80.456V48.2396C80.456 48.6162 80.5419 48.8977 80.7138 49.0841C80.8893 49.2706 81.1214 49.3638 81.4103 49.3638ZM85.7208 43.8907C86.4374 43.8907 86.9694 44.0515 87.3167 44.3733C87.664 44.695 87.8377 45.2087 87.8377 45.9143V50H87.1741L86.9986 49.1116H86.9547C86.7866 49.3309 86.6111 49.5156 86.4283 49.6655C86.2455 49.8117 86.0334 49.9232 85.7921 50C85.5545 50.0731 85.262 50.1097 84.9146 50.1097C84.549 50.1097 84.2236 50.0457 83.9385 49.9177C83.6569 49.7898 83.4339 49.596 83.2694 49.3364C83.1085 49.0768 83.0281 48.7478 83.0281 48.3493C83.0281 47.7497 83.2657 47.289 83.741 46.9673C84.2163 46.6455 84.9402 46.47 85.9128 46.4408L86.9493 46.3969V46.0295C86.9493 45.5103 86.8377 45.1465 86.6147 44.9381C86.3917 44.7297 86.0773 44.6255 85.6715 44.6255C85.357 44.6255 85.0572 44.6712 84.7721 44.7626C84.4869 44.854 84.2163 44.9619 83.9604 45.0862L83.6807 44.3952C83.9513 44.2563 84.262 44.1374 84.613 44.0387C84.964 43.94 85.3333 43.8907 85.7208 43.8907ZM86.9383 47.0386L86.0224 47.077C85.2729 47.1062 84.7446 47.2287 84.4375 47.4444C84.1304 47.6601 83.9769 47.9654 83.9769 48.3602C83.9769 48.7039 84.081 48.958 84.2894 49.1225C84.4978 49.2871 84.7739 49.3693 85.1176 49.3693C85.6513 49.3693 86.0882 49.2213 86.4283 48.9251C86.7683 48.629 86.9383 48.1847 86.9383 47.5925V47.0386ZM92.4444 43.8797C92.565 43.8797 92.6912 43.887 92.8228 43.9016C92.9544 43.9126 93.0714 43.9291 93.1738 43.951L93.0586 44.7955C92.9599 44.77 92.8502 44.7498 92.7295 44.7352C92.6089 44.7206 92.4956 44.7133 92.3895 44.7133C92.1482 44.7133 91.9197 44.7626 91.704 44.8614C91.492 44.9564 91.3055 45.0953 91.1446 45.2782C90.9838 45.4573 90.8576 45.6748 90.7662 45.9308C90.6748 46.183 90.6291 46.4646 90.6291 46.7753V50H89.7133V43.9894H90.4701L90.5688 45.0972H90.6072C90.7315 44.8742 90.8814 44.6712 91.0569 44.4884C91.2324 44.302 91.4353 44.1539 91.6656 44.0442C91.8996 43.9345 92.1592 43.8797 92.4444 43.8797ZM99.5299 41.9822C100.188 41.9822 100.731 42.0644 101.159 42.229C101.59 42.3898 101.912 42.6366 102.124 42.9693C102.336 43.302 102.442 43.7261 102.442 44.2416C102.442 44.6658 102.365 45.0204 102.212 45.3056C102.058 45.5871 101.857 45.8156 101.608 45.9911C101.36 46.1666 101.095 46.3019 100.813 46.3969L103.012 50H101.926L99.9631 46.6547H98.296V50H97.3636V41.9822H99.5299ZM99.475 42.7884H98.296V45.865H99.5683C100.223 45.865 100.703 45.7315 101.011 45.4646C101.321 45.1977 101.477 44.8047 101.477 44.2855C101.477 43.7408 101.312 43.355 100.983 43.1284C100.658 42.9017 100.155 42.7884 99.475 42.7884ZM106.407 43.8907C107.124 43.8907 107.656 44.0515 108.003 44.3733C108.35 44.695 108.524 45.2087 108.524 45.9143V50H107.86L107.685 49.1116H107.641C107.473 49.3309 107.297 49.5156 107.114 49.6655C106.932 49.8117 106.72 49.9232 106.478 50C106.241 50.0731 105.948 50.1097 105.601 50.1097C105.235 50.1097 104.91 50.0457 104.625 49.9177C104.343 49.7898 104.12 49.596 103.956 49.3364C103.795 49.0768 103.714 48.7478 103.714 48.3493C103.714 47.7497 103.952 47.289 104.427 46.9673C104.903 46.6455 105.626 46.47 106.599 46.4408L107.635 46.3969V46.0295C107.635 45.5103 107.524 45.1465 107.301 44.9381C107.078 44.7297 106.763 44.6255 106.358 44.6255C106.043 44.6255 105.743 44.6712 105.458 44.7626C105.173 44.854 104.903 44.9619 104.647 45.0862L104.367 44.3952C104.637 44.2563 104.948 44.1374 105.299 44.0387C105.65 43.94 106.019 43.8907 106.407 43.8907ZM107.624 47.0386L106.709 47.077C105.959 47.1062 105.431 47.2287 105.124 47.4444C104.817 47.6601 104.663 47.9654 104.663 48.3602C104.663 48.7039 104.767 48.958 104.976 49.1225C105.184 49.2871 105.46 49.3693 105.804 49.3693C106.338 49.3693 106.774 49.2213 107.114 48.9251C107.454 48.629 107.624 48.1847 107.624 47.5925V47.0386ZM112.341 49.3638C112.491 49.3638 112.644 49.351 112.802 49.3255C112.959 49.2999 113.087 49.2688 113.185 49.2322V49.9397C113.079 49.9872 112.931 50.0274 112.741 50.0603C112.555 50.0932 112.372 50.1097 112.193 50.1097C111.875 50.1097 111.586 50.0548 111.326 49.9452C111.067 49.8318 110.858 49.6417 110.701 49.3748C110.548 49.1079 110.471 48.7386 110.471 48.267V44.7023H109.615V44.2581L110.476 43.9016L110.838 42.5964H111.387V43.9894H113.147V44.7023H111.387V48.2396C111.387 48.6162 111.473 48.8977 111.644 49.0841C111.82 49.2706 112.052 49.3638 112.341 49.3638ZM115.313 43.9894V50H114.403V43.9894H115.313ZM114.869 41.7409C115.019 41.7409 115.147 41.7902 115.253 41.889C115.363 41.984 115.417 42.1339 115.417 42.3387C115.417 42.5397 115.363 42.6896 115.253 42.7884C115.147 42.8871 115.019 42.9364 114.869 42.9364C114.712 42.9364 114.58 42.8871 114.474 42.7884C114.372 42.6896 114.321 42.5397 114.321 42.3387C114.321 42.1339 114.372 41.984 114.474 41.889C114.58 41.7902 114.712 41.7409 114.869 41.7409ZM120.09 43.8797C120.803 43.8797 121.342 44.0552 121.708 44.4062C122.073 44.7535 122.256 45.3129 122.256 46.0843V50H121.357V46.1446C121.357 45.6438 121.242 45.269 121.011 45.0204C120.785 44.7718 120.435 44.6475 119.964 44.6475C119.298 44.6475 118.83 44.8358 118.56 45.2123C118.289 45.5889 118.154 46.1355 118.154 46.8521V50H117.244V43.9894H117.979L118.116 44.8559H118.165C118.293 44.6438 118.456 44.4665 118.653 44.3239C118.851 44.1777 119.072 44.068 119.317 43.9949C119.562 43.9181 119.819 43.8797 120.09 43.8797ZM125.81 52.6982C125.02 52.6982 124.411 52.5501 123.984 52.254C123.556 51.9615 123.342 51.5502 123.342 51.0201C123.342 50.6435 123.461 50.3217 123.699 50.0548C123.94 49.7879 124.273 49.6106 124.697 49.5229C124.539 49.4498 124.404 49.3401 124.291 49.1938C124.181 49.0476 124.126 48.8794 124.126 48.6893C124.126 48.4699 124.187 48.278 124.307 48.1135C124.432 47.9453 124.62 47.7844 124.872 47.6308C124.558 47.5029 124.302 47.2872 124.104 46.9837C123.911 46.6766 123.814 46.3201 123.814 45.9143C123.814 45.4829 123.903 45.1155 124.082 44.812C124.262 44.5049 124.521 44.2709 124.861 44.11C125.201 43.9492 125.612 43.8687 126.095 43.8687C126.201 43.8687 126.307 43.8742 126.413 43.8852C126.523 43.8925 126.627 43.9053 126.726 43.9236C126.824 43.9382 126.91 43.9565 126.984 43.9784H129.046V44.5652L127.938 44.7023C128.047 44.8449 128.139 45.0167 128.212 45.2178C128.285 45.4189 128.322 45.6419 128.322 45.8869C128.322 46.4865 128.119 46.9636 127.713 47.3183C127.307 47.6692 126.75 47.8447 126.04 47.8447C125.872 47.8447 125.7 47.8301 125.525 47.8009C125.346 47.8996 125.208 48.0093 125.113 48.1299C125.022 48.2506 124.976 48.3895 124.976 48.5467C124.976 48.6637 125.011 48.7569 125.081 48.8264C125.154 48.8959 125.258 48.947 125.393 48.9799C125.528 49.0092 125.691 49.0238 125.881 49.0238H126.94C127.594 49.0238 128.095 49.1609 128.442 49.4351C128.793 49.7093 128.969 50.1097 128.969 50.6362C128.969 51.3016 128.698 51.8116 128.157 52.1662C127.616 52.5209 126.834 52.6982 125.81 52.6982ZM125.837 51.9853C126.335 51.9853 126.746 51.9341 127.071 51.8317C127.4 51.733 127.645 51.5886 127.806 51.3985C127.971 51.212 128.053 50.989 128.053 50.7294C128.053 50.4881 127.998 50.3053 127.888 50.181C127.779 50.0603 127.618 49.9799 127.406 49.9397C127.194 49.8958 126.934 49.8739 126.627 49.8739H125.585C125.314 49.8739 125.079 49.9159 124.878 50C124.677 50.0841 124.521 50.2084 124.411 50.3729C124.305 50.5374 124.252 50.7422 124.252 50.9871C124.252 51.3125 124.39 51.5593 124.664 51.7275C124.938 51.8993 125.329 51.9853 125.837 51.9853ZM126.073 47.1811C126.508 47.1811 126.835 47.0715 127.055 46.8521C127.274 46.6327 127.384 46.3128 127.384 45.8924C127.384 45.4427 127.272 45.1063 127.049 44.8833C126.826 44.6566 126.497 44.5433 126.062 44.5433C125.645 44.5433 125.324 44.6603 125.097 44.8943C124.874 45.1246 124.762 45.4628 124.762 45.9088C124.762 46.3183 124.876 46.6327 125.102 46.8521C125.329 47.0715 125.653 47.1811 126.073 47.1811Z" fill="black"/>
<defs>
<filter id="filter0_d_166_39" x="0" y="0" width="173" height="68" filterUnits="userSpaceOnUse" color-interpolation-filters="sRGB">
<feFlood flood-opacity="0" result="BackgroundImageFix"/>
<feColorMatrix in="SourceAlpha" type="matrix" values="0 0 0 0 0 0 0 0 0 0 0 0 0 0 0 0 0 0 127 0" result="hardAlpha"/>
<feOffset dy="2"/>
<feGaussianBlur stdDeviation="2"/>
<feComposite in2="hardAlpha" operator="out"/>
<feColorMatrix type="matrix" values="0 0 0 0 0 0 0 0 0 0 0 0 0 0 0 0 0 0 0.18 0"/>
<feBlend mode="normal" in2="BackgroundImageFix" result="effect1_dropShadow_166_39"/>
<feBlend mode="normal" in="SourceGraphic" in2="effect1_dropShadow_166_39" result="shape"/>
</filter>
<clipPath id="clip0_166_39">
<rect width="35" height="35" fill="white" transform="translate(21 14)"/>
</clipPath>
</defs>
</svg>
