<svg width="173" height="68" viewBox="0 0 173 68" fill="none" xmlns="http://www.w3.org/2000/svg">
<g filter="url(#filter0_d_166_8)">
<rect x="4" y="2" width="165" height="60" rx="8" fill="#F8F8F8"/>
</g>
<g clip-path="url(#clip0_166_8)">
<path d="M35.035 54.07C47.7569 54.07 58.07 43.7569 58.07 31.035C58.07 18.3131 47.7569 8 35.035 8C22.3131 8 12 18.3131 12 31.035C12 43.7569 22.3131 54.07 35.035 54.07Z" fill="#E0E0E0"/>
<path d="M35.0348 53.3699C47.5633 53.3699 57.7197 43.2135 57.7197 30.6849C57.7197 18.1564 47.5633 8 35.0348 8C22.5063 8 12.3499 18.1564 12.3499 30.6849C12.3499 43.2135 22.5063 53.3699 35.0348 53.3699Z" fill="white"/>
<mask id="mask0_166_8" style="mask-type:luminance" maskUnits="userSpaceOnUse" x="19" y="15" width="32" height="32">
<path d="M49.7379 28.0241H35.3848V33.9754H43.6466C42.8764 37.7562 39.6557 39.9267 35.3848 39.9267C30.3437 39.9267 26.2828 35.8658 26.2828 30.8247C26.2828 25.7836 30.3437 21.7228 35.3848 21.7228C37.5553 21.7228 39.5157 22.4929 41.056 23.7532L45.537 19.2722C42.8064 16.8917 39.3056 15.4214 35.3848 15.4214C26.8429 15.4214 19.9814 22.2829 19.9814 30.8247C19.9814 39.3666 26.8429 46.2281 35.3848 46.2281C43.0865 46.2281 50.088 40.6269 50.088 30.8247C50.088 29.9145 49.948 28.9343 49.7379 28.0241Z" fill="white"/>
</mask>
<g mask="url(#mask0_166_8)">
<path d="M18.5813 39.9271V21.7231L30.4839 30.8251L18.5813 39.9271Z" fill="#FBBC05"/>
</g>
<mask id="mask1_166_8" style="mask-type:luminance" maskUnits="userSpaceOnUse" x="19" y="15" width="32" height="32">
<path d="M49.7379 28.0241H35.3848V33.9754H43.6466C42.8764 37.7562 39.6557 39.9267 35.3848 39.9267C30.3437 39.9267 26.2828 35.8658 26.2828 30.8247C26.2828 25.7836 30.3437 21.7228 35.3848 21.7228C37.5553 21.7228 39.5157 22.4929 41.056 23.7532L45.537 19.2722C42.8064 16.8917 39.3056 15.4214 35.3848 15.4214C26.8429 15.4214 19.9814 22.2829 19.9814 30.8247C19.9814 39.3666 26.8429 46.2281 35.3848 46.2281C43.0865 46.2281 50.088 40.6269 50.088 30.8247C50.088 29.9145 49.948 28.9343 49.7379 28.0241Z" fill="white"/>
</mask>
<g mask="url(#mask1_166_8)">
<path d="M18.5813 21.7232L30.4839 30.8251L35.385 26.5542L52.1886 23.8236V14.0215H18.5813V21.7232Z" fill="#EA4335"/>
</g>
<mask id="mask2_166_8" style="mask-type:luminance" maskUnits="userSpaceOnUse" x="19" y="15" width="32" height="32">
<path d="M49.7379 28.0241H35.3848V33.9754H43.6466C42.8764 37.7562 39.6557 39.9267 35.3848 39.9267C30.3437 39.9267 26.2828 35.8658 26.2828 30.8247C26.2828 25.7836 30.3437 21.7228 35.3848 21.7228C37.5553 21.7228 39.5157 22.4929 41.056 23.7532L45.537 19.2722C42.8064 16.8917 39.3056 15.4214 35.3848 15.4214C26.8429 15.4214 19.9814 22.2829 19.9814 30.8247C19.9814 39.3666 26.8429 46.2281 35.3848 46.2281C43.0865 46.2281 50.088 40.6269 50.088 30.8247C50.088 29.9145 49.948 28.9343 49.7379 28.0241Z" fill="white"/>
</mask>
<g mask="url(#mask2_166_8)">
<path d="M18.5813 39.9271L39.5859 23.8236L45.1171 24.5238L52.1886 14.0215V47.6288H18.5813V39.9271Z" fill="#34A853"/>
</g>
<mask id="mask3_166_8" style="mask-type:luminance" maskUnits="userSpaceOnUse" x="19" y="15" width="32" height="32">
<path d="M49.7379 28.0241H35.3848V33.9754H43.6466C42.8764 37.7562 39.6557 39.9267 35.3848 39.9267C30.3437 39.9267 26.2828 35.8658 26.2828 30.8247C26.2828 25.7836 30.3437 21.7228 35.3848 21.7228C37.5553 21.7228 39.5157 22.4929 41.056 23.7532L45.537 19.2722C42.8064 16.8917 39.3056 15.4214 35.3848 15.4214C26.8429 15.4214 19.9814 22.2829 19.9814 30.8247C19.9814 39.3666 26.8429 46.2281 35.3848 46.2281C43.0865 46.2281 50.088 40.6269 50.088 30.8247C50.088 29.9145 49.948 28.9343 49.7379 28.0241Z" fill="white"/>
</mask>
<g mask="url(#mask3_166_8)">
<path d="M52.1884 47.6288L30.4837 30.8251L27.6831 28.7247L52.1884 21.7231V47.6288Z" fill="#4285F4"/>
</g>
</g>
<path d="M76 15L78.4697 22.6008H86.4616L79.996 27.2984L82.4656 34.8992L76 30.2016L69.5344 34.8992L72.004 27.2984L65.5384 22.6008H73.5303L76 15Z" fill="#DF5D01"/>
<path d="M98 15L100.47 22.6008H108.462L101.996 27.2984L104.466 34.8992L98 30.2016L91.5344 34.8992L94.004 27.2984L87.5384 22.6008H95.5303L98 15Z" fill="#DF5D01"/>
<path d="M120 15L122.47 22.6008H130.462L123.996 27.2984L126.466 34.8992L120 30.2016L113.534 34.8992L116.004 27.2984L109.538 22.6008H117.53L120 15Z" fill="#DF5D01"/>
<path d="M142 15L144.47 22.6008H152.462L145.996 27.2984L148.466 34.8992L142 30.2016L135.534 34.8992L138.004 27.2984L131.538 22.6008H139.53L142 15Z" fill="#DF5D01"/>
<path d="M68.0876 45.0972C68.6323 45.0972 69.1058 45.1904 69.508 45.3769C69.9101 45.5597 70.2209 45.8266 70.4403 46.1776C70.6633 46.5285 70.7748 46.9545 70.7748 47.4554C70.7748 48.0038 70.656 48.4772 70.4183 48.8758C70.1807 49.2706 69.8388 49.5759 69.3928 49.7916C68.9468 50.0037 68.413 50.1097 67.7914 50.1097C67.3746 50.1097 66.9871 50.0731 66.6288 50C66.2705 49.9269 65.9689 49.8172 65.7239 49.671V48.8045C65.9908 48.9653 66.3144 49.0933 66.6946 49.1883C67.0748 49.2834 67.4441 49.3309 67.8024 49.3309C68.2082 49.3309 68.5629 49.267 68.8663 49.139C69.1734 49.0074 69.4111 48.8099 69.5793 48.5467C69.7511 48.2798 69.837 47.9453 69.837 47.5431C69.837 47.0093 69.6725 46.598 69.3434 46.3092C69.018 46.0167 68.5025 45.8704 67.7969 45.8704C67.5702 45.8704 67.3216 45.8887 67.0511 45.9253C66.7805 45.9618 66.5575 46.0021 66.382 46.0459L65.9213 45.7443L66.2284 41.9822H70.2154V42.8158H67.0072L66.8043 45.2343C66.9432 45.205 67.1224 45.1758 67.3417 45.1465C67.5611 45.1136 67.8097 45.0972 68.0876 45.0972ZM79.9662 47.8667C79.9662 48.342 79.8474 48.7478 79.6098 49.0841C79.3758 49.4169 79.0467 49.671 78.6226 49.8464C78.1985 50.0219 77.6994 50.1097 77.1254 50.1097C76.822 50.1097 76.535 50.0951 76.2644 50.0658C75.9939 50.0366 75.7453 49.9945 75.5186 49.9397C75.2919 49.8848 75.0927 49.8172 74.9208 49.7368V48.8428C75.195 48.9562 75.5296 49.0622 75.9244 49.1609C76.3193 49.256 76.7324 49.3035 77.1638 49.3035C77.566 49.3035 77.906 49.2505 78.1839 49.1445C78.4617 49.0348 78.672 48.8794 78.8146 48.6783C78.9608 48.4736 79.0339 48.2286 79.0339 47.9434C79.0339 47.6692 78.9736 47.4407 78.8529 47.2579C78.7323 47.0715 78.5312 46.9033 78.2497 46.7534C77.9718 46.5998 77.5916 46.4371 77.109 46.2653C76.769 46.1446 76.4692 46.013 76.2096 45.8704C75.95 45.7242 75.7325 45.5597 75.557 45.3769C75.3815 45.1941 75.248 44.982 75.1566 44.7407C75.0689 44.4994 75.025 44.2234 75.025 43.9126C75.025 43.4848 75.1329 43.1192 75.3486 42.8158C75.5679 42.5087 75.8696 42.2747 76.2535 42.1138C76.641 41.9493 77.0852 41.867 77.5861 41.867C78.0139 41.867 78.4087 41.9072 78.7707 41.9877C79.1363 42.0681 79.4708 42.176 79.7743 42.3112L79.4836 43.1119C79.1948 42.9913 78.8877 42.8907 78.5623 42.8103C78.2406 42.7299 77.9078 42.6896 77.5642 42.6896C77.2205 42.6896 76.9298 42.7408 76.6922 42.8432C76.4582 42.9419 76.2791 43.0827 76.1547 43.2655C76.0304 43.4483 75.9683 43.6658 75.9683 43.9181C75.9683 44.1996 76.0268 44.4336 76.1438 44.6201C76.2644 44.8065 76.4545 44.9729 76.7141 45.1191C76.9774 45.2617 77.3247 45.4116 77.7561 45.5688C78.2278 45.7406 78.6281 45.9235 78.9571 46.1172C79.2862 46.3073 79.5366 46.5413 79.7085 46.8192C79.8803 47.0934 79.9662 47.4426 79.9662 47.8667ZM83.4103 49.3638C83.5602 49.3638 83.7137 49.351 83.8709 49.3255C84.0282 49.2999 84.1561 49.2688 84.2548 49.2322V49.9397C84.1488 49.9872 84.0007 50.0274 83.8106 50.0603C83.6242 50.0932 83.4413 50.1097 83.2622 50.1097C82.9441 50.1097 82.6553 50.0548 82.3957 49.9452C82.1361 49.8318 81.9277 49.6417 81.7705 49.3748C81.617 49.1079 81.5402 48.7386 81.5402 48.267V44.7023H80.6847V44.2581L81.5457 43.9016L81.9076 42.5964H82.456V43.9894H84.2164V44.7023H82.456V48.2396C82.456 48.6162 82.5419 48.8977 82.7138 49.0841C82.8893 49.2706 83.1214 49.3638 83.4103 49.3638ZM87.7208 43.8907C88.4374 43.8907 88.9694 44.0515 89.3167 44.3733C89.664 44.695 89.8377 45.2087 89.8377 45.9143V50H89.1741L88.9986 49.1116H88.9547C88.7866 49.3309 88.6111 49.5156 88.4283 49.6655C88.2455 49.8117 88.0334 49.9232 87.7921 50C87.5545 50.0731 87.262 50.1097 86.9146 50.1097C86.549 50.1097 86.2236 50.0457 85.9385 49.9177C85.6569 49.7898 85.4339 49.596 85.2694 49.3364C85.1085 49.0768 85.0281 48.7478 85.0281 48.3493C85.0281 47.7497 85.2657 47.289 85.741 46.9673C86.2163 46.6455 86.9402 46.47 87.9128 46.4408L88.9493 46.3969V46.0295C88.9493 45.5103 88.8377 45.1465 88.6147 44.9381C88.3917 44.7297 88.0773 44.6255 87.6715 44.6255C87.357 44.6255 87.0572 44.6712 86.7721 44.7626C86.4869 44.854 86.2163 44.9619 85.9604 45.0862L85.6807 44.3952C85.9513 44.2563 86.262 44.1374 86.613 44.0387C86.964 43.94 87.3333 43.8907 87.7208 43.8907ZM88.9383 47.0386L88.0224 47.077C87.2729 47.1062 86.7446 47.2287 86.4375 47.4444C86.1304 47.6601 85.9769 47.9654 85.9769 48.3602C85.9769 48.7039 86.081 48.958 86.2894 49.1225C86.4978 49.2871 86.7739 49.3693 87.1176 49.3693C87.6513 49.3693 88.0882 49.2213 88.4283 48.9251C88.7683 48.629 88.9383 48.1847 88.9383 47.5925V47.0386ZM94.4444 43.8797C94.565 43.8797 94.6912 43.887 94.8228 43.9016C94.9544 43.9126 95.0714 43.9291 95.1738 43.951L95.0586 44.7955C94.9599 44.77 94.8502 44.7498 94.7295 44.7352C94.6089 44.7206 94.4956 44.7133 94.3895 44.7133C94.1482 44.7133 93.9197 44.7626 93.704 44.8614C93.492 44.9564 93.3055 45.0953 93.1446 45.2782C92.9838 45.4573 92.8576 45.6748 92.7662 45.9308C92.6748 46.183 92.6291 46.4646 92.6291 46.7753V50H91.7133V43.9894H92.4701L92.5688 45.0972H92.6072C92.7315 44.8742 92.8814 44.6712 93.0569 44.4884C93.2324 44.302 93.4353 44.1539 93.6656 44.0442C93.8996 43.9345 94.1592 43.8797 94.4444 43.8797ZM101.53 41.9822C102.188 41.9822 102.731 42.0644 103.159 42.229C103.59 42.3898 103.912 42.6366 104.124 42.9693C104.336 43.302 104.442 43.7261 104.442 44.2416C104.442 44.6658 104.365 45.0204 104.212 45.3056C104.058 45.5871 103.857 45.8156 103.608 45.9911C103.36 46.1666 103.095 46.3019 102.813 46.3969L105.012 50H103.926L101.963 46.6547H100.296V50H99.3636V41.9822H101.53ZM101.475 42.7884H100.296V45.865H101.568C102.223 45.865 102.703 45.7315 103.011 45.4646C103.321 45.1977 103.477 44.8047 103.477 44.2855C103.477 43.7408 103.312 43.355 102.983 43.1284C102.658 42.9017 102.155 42.7884 101.475 42.7884ZM108.407 43.8907C109.124 43.8907 109.656 44.0515 110.003 44.3733C110.35 44.695 110.524 45.2087 110.524 45.9143V50H109.86L109.685 49.1116H109.641C109.473 49.3309 109.297 49.5156 109.114 49.6655C108.932 49.8117 108.72 49.9232 108.478 50C108.241 50.0731 107.948 50.1097 107.601 50.1097C107.235 50.1097 106.91 50.0457 106.625 49.9177C106.343 49.7898 106.12 49.596 105.956 49.3364C105.795 49.0768 105.714 48.7478 105.714 48.3493C105.714 47.7497 105.952 47.289 106.427 46.9673C106.903 46.6455 107.626 46.47 108.599 46.4408L109.635 46.3969V46.0295C109.635 45.5103 109.524 45.1465 109.301 44.9381C109.078 44.7297 108.763 44.6255 108.358 44.6255C108.043 44.6255 107.743 44.6712 107.458 44.7626C107.173 44.854 106.903 44.9619 106.647 45.0862L106.367 44.3952C106.637 44.2563 106.948 44.1374 107.299 44.0387C107.65 43.94 108.019 43.8907 108.407 43.8907ZM109.624 47.0386L108.709 47.077C107.959 47.1062 107.431 47.2287 107.124 47.4444C106.817 47.6601 106.663 47.9654 106.663 48.3602C106.663 48.7039 106.767 48.958 106.976 49.1225C107.184 49.2871 107.46 49.3693 107.804 49.3693C108.338 49.3693 108.774 49.2213 109.114 48.9251C109.454 48.629 109.624 48.1847 109.624 47.5925V47.0386ZM114.341 49.3638C114.491 49.3638 114.644 49.351 114.802 49.3255C114.959 49.2999 115.087 49.2688 115.185 49.2322V49.9397C115.079 49.9872 114.931 50.0274 114.741 50.0603C114.555 50.0932 114.372 50.1097 114.193 50.1097C113.875 50.1097 113.586 50.0548 113.326 49.9452C113.067 49.8318 112.858 49.6417 112.701 49.3748C112.548 49.1079 112.471 48.7386 112.471 48.267V44.7023H111.615V44.2581L112.476 43.9016L112.838 42.5964H113.387V43.9894H115.147V44.7023H113.387V48.2396C113.387 48.6162 113.473 48.8977 113.644 49.0841C113.82 49.2706 114.052 49.3638 114.341 49.3638ZM117.313 43.9894V50H116.403V43.9894H117.313ZM116.869 41.7409C117.019 41.7409 117.147 41.7902 117.253 41.889C117.363 41.984 117.417 42.1339 117.417 42.3387C117.417 42.5397 117.363 42.6896 117.253 42.7884C117.147 42.8871 117.019 42.9364 116.869 42.9364C116.712 42.9364 116.58 42.8871 116.474 42.7884C116.372 42.6896 116.321 42.5397 116.321 42.3387C116.321 42.1339 116.372 41.984 116.474 41.889C116.58 41.7902 116.712 41.7409 116.869 41.7409ZM122.09 43.8797C122.803 43.8797 123.342 44.0552 123.708 44.4062C124.073 44.7535 124.256 45.3129 124.256 46.0843V50H123.357V46.1446C123.357 45.6438 123.242 45.269 123.011 45.0204C122.785 44.7718 122.435 44.6475 121.964 44.6475C121.298 44.6475 120.83 44.8358 120.56 45.2123C120.289 45.5889 120.154 46.1355 120.154 46.8521V50H119.244V43.9894H119.979L120.116 44.8559H120.165C120.293 44.6438 120.456 44.4665 120.653 44.3239C120.851 44.1777 121.072 44.068 121.317 43.9949C121.562 43.9181 121.819 43.8797 122.09 43.8797ZM127.81 52.6982C127.02 52.6982 126.411 52.5501 125.984 52.254C125.556 51.9615 125.342 51.5502 125.342 51.0201C125.342 50.6435 125.461 50.3217 125.699 50.0548C125.94 49.7879 126.273 49.6106 126.697 49.5229C126.539 49.4498 126.404 49.3401 126.291 49.1938C126.181 49.0476 126.126 48.8794 126.126 48.6893C126.126 48.4699 126.187 48.278 126.307 48.1135C126.432 47.9453 126.62 47.7844 126.872 47.6308C126.558 47.5029 126.302 47.2872 126.104 46.9837C125.911 46.6766 125.814 46.3201 125.814 45.9143C125.814 45.4829 125.903 45.1155 126.082 44.812C126.262 44.5049 126.521 44.2709 126.861 44.11C127.201 43.9492 127.612 43.8687 128.095 43.8687C128.201 43.8687 128.307 43.8742 128.413 43.8852C128.523 43.8925 128.627 43.9053 128.726 43.9236C128.824 43.9382 128.91 43.9565 128.984 43.9784H131.046V44.5652L129.938 44.7023C130.047 44.8449 130.139 45.0167 130.212 45.2178C130.285 45.4189 130.322 45.6419 130.322 45.8869C130.322 46.4865 130.119 46.9636 129.713 47.3183C129.307 47.6692 128.75 47.8447 128.04 47.8447C127.872 47.8447 127.7 47.8301 127.525 47.8009C127.346 47.8996 127.208 48.0093 127.113 48.1299C127.022 48.2506 126.976 48.3895 126.976 48.5467C126.976 48.6637 127.011 48.7569 127.081 48.8264C127.154 48.8959 127.258 48.947 127.393 48.9799C127.528 49.0092 127.691 49.0238 127.881 49.0238H128.94C129.594 49.0238 130.095 49.1609 130.442 49.4351C130.793 49.7093 130.969 50.1097 130.969 50.6362C130.969 51.3016 130.698 51.8116 130.157 52.1662C129.616 52.5209 128.834 52.6982 127.81 52.6982ZM127.837 51.9853C128.335 51.9853 128.746 51.9341 129.071 51.8317C129.4 51.733 129.645 51.5886 129.806 51.3985C129.971 51.212 130.053 50.989 130.053 50.7294C130.053 50.4881 129.998 50.3053 129.888 50.181C129.779 50.0603 129.618 49.9799 129.406 49.9397C129.194 49.8958 128.934 49.8739 128.627 49.8739H127.585C127.314 49.8739 127.079 49.9159 126.878 50C126.677 50.0841 126.521 50.2084 126.411 50.3729C126.305 50.5374 126.252 50.7422 126.252 50.9871C126.252 51.3125 126.39 51.5593 126.664 51.7275C126.938 51.8993 127.329 51.9853 127.837 51.9853ZM128.073 47.1811C128.508 47.1811 128.835 47.0715 129.055 46.8521C129.274 46.6327 129.384 46.3128 129.384 45.8924C129.384 45.4427 129.272 45.1063 129.049 44.8833C128.826 44.6566 128.497 44.5433 128.062 44.5433C127.645 44.5433 127.324 44.6603 127.097 44.8943C126.874 45.1246 126.762 45.4628 126.762 45.9088C126.762 46.3183 126.876 46.6327 127.102 46.8521C127.329 47.0715 127.653 47.1811 128.073 47.1811Z" fill="black"/>
<defs>
<filter id="filter0_d_166_8" x="0" y="0" width="173" height="68" filterUnits="userSpaceOnUse" color-interpolation-filters="sRGB">
<feFlood flood-opacity="0" result="BackgroundImageFix"/>
<feColorMatrix in="SourceAlpha" type="matrix" values="0 0 0 0 0 0 0 0 0 0 0 0 0 0 0 0 0 0 127 0" result="hardAlpha"/>
<feOffset dy="2"/>
<feGaussianBlur stdDeviation="2"/>
<feComposite in2="hardAlpha" operator="out"/>
<feColorMatrix type="matrix" values="0 0 0 0 0 0 0 0 0 0 0 0 0 0 0 0 0 0 0.18 0"/>
<feBlend mode="normal" in2="BackgroundImageFix" result="effect1_dropShadow_166_8"/>
<feBlend mode="normal" in="SourceGraphic" in2="effect1_dropShadow_166_8" result="shape"/>
</filter>
<clipPath id="clip0_166_8">
<rect width="46" height="46.07" fill="white" transform="translate(12 8)"/>
</clipPath>
</defs>
</svg>
