<svg width="165" height="90" viewBox="0 0 165 90" fill="none" xmlns="http://www.w3.org/2000/svg">
<rect width="165" height="90" rx="8" fill="#F8F8F8"/>
<path d="M67 29L69.2451 35.9098H76.5106L70.6327 40.1803L72.8779 47.0902L67 42.8197L61.1221 47.0902L63.3673 40.1803L57.4894 35.9098H64.7549L67 29Z" fill="#DF5D01"/>
<path d="M87.9092 29L90.1543 35.9098H97.4197L91.5419 40.1803L93.787 47.0902L87.9092 42.8197L82.0313 47.0902L84.2765 40.1803L78.3986 35.9098H85.664L87.9092 29Z" fill="#DF5D01"/>
<path d="M108.818 29L111.063 35.9098H118.329L112.451 40.1803L114.696 47.0902L108.818 42.8197L102.941 47.0902L105.186 40.1803L99.3078 35.9098H106.573L108.818 29Z" fill="#DF5D01"/>
<path d="M129.727 29L131.972 35.9098H139.238L133.36 40.1803L135.605 47.0902L129.727 42.8197L123.849 47.0902L126.094 40.1803L120.216 35.9098H127.482L129.727 29Z" fill="#DF5D01"/>
<path d="M59.7044 66.079C59.2175 66.079 58.7437 66.0033 58.2831 65.8519C57.8291 65.7006 57.4573 65.4966 57.1678 65.24L57.6218 64.4603C57.8521 64.6774 58.1515 64.8551 58.52 64.9932C58.8885 65.1314 59.28 65.2005 59.6945 65.2005C60.221 65.2005 60.6256 65.0887 60.9086 64.8649C61.1915 64.6412 61.333 64.3418 61.333 63.9668C61.333 63.7101 61.2705 63.4864 61.1455 63.2956C61.0204 63.1048 60.8033 62.96 60.494 62.8613C60.1913 62.756 59.7735 62.7034 59.2405 62.7034H57.6712L58.0364 59.0909H61.9351V59.9496H58.4016L58.9148 59.466L58.6286 62.3184L58.1153 61.8447H59.4478C60.1387 61.8447 60.6947 61.9335 61.1158 62.1112C61.537 62.2888 61.8429 62.5356 62.0338 62.8514C62.2246 63.1607 62.32 63.5193 62.32 63.9273C62.32 64.3221 62.2246 64.684 62.0338 65.013C61.8429 65.3354 61.5534 65.5953 61.1652 65.7927C60.7836 65.9835 60.2966 66.079 59.7044 66.079ZM68.3682 66.079C67.8417 66.079 67.3384 66 66.858 65.8421C66.3777 65.6776 65.9993 65.467 65.723 65.2104L66.0882 64.4405C66.3514 64.6708 66.6869 64.8616 67.0949 65.013C67.5029 65.1643 67.9273 65.24 68.3682 65.24C68.7695 65.24 69.0953 65.1939 69.3453 65.1018C69.5953 65.0097 69.7796 64.8847 69.898 64.7268C70.0165 64.5623 70.0757 64.378 70.0757 64.174C70.0757 63.9371 69.9967 63.7463 69.8388 63.6016C69.6875 63.4568 69.4868 63.3416 69.2367 63.2561C68.9933 63.164 68.7235 63.085 68.4274 63.0192C68.1313 62.9534 67.8319 62.8777 67.5292 62.7922C67.2331 62.7001 66.96 62.5849 66.71 62.4468C66.4665 62.3086 66.2691 62.1243 66.1178 61.894C65.9664 61.6571 65.8908 61.3545 65.8908 60.986C65.8908 60.6306 65.9829 60.3049 66.1671 60.0088C66.3579 59.7061 66.6475 59.466 67.0357 59.2883C67.4305 59.1041 67.9306 59.0119 68.5359 59.0119C68.9373 59.0119 69.3354 59.0646 69.7302 59.1699C70.125 59.2752 70.4672 59.4265 70.7567 59.6239L70.431 60.4135C70.1349 60.2161 69.8224 60.0746 69.4933 59.9891C69.1643 59.897 68.8452 59.8509 68.5359 59.8509C68.1477 59.8509 67.8286 59.9003 67.5785 59.999C67.3285 60.0977 67.1443 60.2293 67.0258 60.3938C66.914 60.5583 66.858 60.7425 66.858 60.9465C66.858 61.19 66.9337 61.3841 67.085 61.5288C67.243 61.6736 67.4437 61.7887 67.6871 61.8743C67.9372 61.9598 68.2102 62.0388 68.5063 62.1112C68.8024 62.177 69.0985 62.2526 69.3946 62.3382C69.6973 62.4237 69.9704 62.5356 70.2139 62.6738C70.4639 62.8119 70.6646 62.9962 70.8159 63.2265C70.9673 63.4568 71.043 63.7529 71.043 64.1148C71.043 64.4635 70.9475 64.7893 70.7567 65.0919C70.5659 65.3881 70.2698 65.6282 69.8684 65.8125C69.4736 65.9901 68.9735 66.079 68.3682 66.079ZM74.1431 66.0592C73.6167 66.0592 73.2087 65.9177 72.9192 65.6348C72.6297 65.3519 72.4849 64.9472 72.4849 64.4208V59.6239H73.4325V64.3813C73.4325 64.6642 73.5015 64.8814 73.6397 65.0327C73.7845 65.1841 73.9885 65.2597 74.2517 65.2597C74.5478 65.2597 74.7945 65.1775 74.9919 65.013L75.288 65.694C75.1433 65.819 74.9689 65.9112 74.7649 65.9704C74.5675 66.0296 74.3602 66.0592 74.1431 66.0592ZM71.5966 61.5486V60.7688H74.9327V61.5486H71.5966ZM79.6809 66V64.8945L79.6315 64.6873V62.8021C79.6315 62.4007 79.5131 62.0914 79.2762 61.8743C79.0459 61.6506 78.6971 61.5387 78.23 61.5387C77.9207 61.5387 77.618 61.5913 77.3219 61.6966C77.0258 61.7953 76.7758 61.9302 76.5718 62.1013L76.177 61.3906C76.4468 61.1735 76.7692 61.009 77.1442 60.8971C77.5259 60.7787 77.924 60.7195 78.3385 60.7195C79.0558 60.7195 79.6085 60.8939 79.9967 61.2426C80.3849 61.5913 80.579 62.1243 80.579 62.8416V66H79.6809ZM77.9635 66.0592C77.5752 66.0592 77.2331 65.9934 76.937 65.8618C76.6474 65.7302 76.4237 65.5493 76.2658 65.319C76.1079 65.0821 76.0289 64.8156 76.0289 64.5195C76.0289 64.2365 76.0947 63.9799 76.2263 63.7496C76.3645 63.5193 76.5849 63.3351 76.8876 63.1969C77.1969 63.0587 77.6114 62.9896 78.1313 62.9896H79.7894V63.6706H78.1707C77.697 63.6706 77.3778 63.7496 77.2133 63.9075C77.0488 64.0655 76.9666 64.2563 76.9666 64.48C76.9666 64.7366 77.0686 64.9439 77.2726 65.1018C77.4765 65.2532 77.7595 65.3288 78.1214 65.3288C78.4767 65.3288 78.786 65.2499 79.0492 65.0919C79.319 64.934 79.5131 64.7037 79.6315 64.401L79.819 65.0525C79.694 65.3617 79.4736 65.6085 79.1577 65.7927C78.8419 65.9704 78.4438 66.0592 77.9635 66.0592ZM82.3325 66V60.7688H83.2406V62.1901L83.1518 61.8348C83.2965 61.4729 83.54 61.1965 83.8821 61.0057C84.2243 60.8149 84.6454 60.7195 85.1455 60.7195V61.6374C85.106 61.6308 85.0666 61.6275 85.0271 61.6275C84.9942 61.6275 84.9613 61.6275 84.9284 61.6275C84.4217 61.6275 84.0203 61.7789 83.7242 62.0816C83.4281 62.3842 83.2801 62.8218 83.2801 63.3943V66H82.3325ZM89.1697 66V59.0909H91.8642C92.4696 59.0909 92.9861 59.1863 93.4138 59.3771C93.8415 59.568 94.1706 59.8443 94.4009 60.2062C94.6312 60.5681 94.7463 60.9991 94.7463 61.4992C94.7463 61.9993 94.6312 62.4303 94.4009 62.7922C94.1706 63.1475 93.8415 63.4206 93.4138 63.6114C92.9861 63.8023 92.4696 63.8977 91.8642 63.8977H89.7125L90.1567 63.4436V66H89.1697ZM93.7889 66L92.032 63.493H93.0881L94.8648 66H93.7889ZM90.1567 63.5423L89.7125 63.0587H91.8346C92.4663 63.0587 92.9434 62.9238 93.2658 62.654C93.5948 62.3777 93.7593 61.9927 93.7593 61.4992C93.7593 61.0057 93.5948 60.6241 93.2658 60.3543C92.9434 60.0845 92.4663 59.9496 91.8346 59.9496H89.7125L90.1567 59.4561V63.5423ZM99.4018 66V64.8945L99.3525 64.6873V62.8021C99.3525 62.4007 99.2341 62.0914 98.9972 61.8743C98.7669 61.6506 98.4181 61.5387 97.9509 61.5387C97.6417 61.5387 97.339 61.5913 97.0429 61.6966C96.7468 61.7953 96.4967 61.9302 96.2928 62.1013L95.898 61.3906C96.1677 61.1735 96.4902 61.009 96.8652 60.8971C97.2469 60.7787 97.645 60.7195 98.0595 60.7195C98.7767 60.7195 99.3295 60.8939 99.7177 61.2426C100.106 61.5913 100.3 62.1243 100.3 62.8416V66H99.4018ZM97.6844 66.0592C97.2962 66.0592 96.9541 65.9934 96.658 65.8618C96.3684 65.7302 96.1447 65.5493 95.9868 65.319C95.8289 65.0821 95.7499 64.8156 95.7499 64.5195C95.7499 64.2365 95.8157 63.9799 95.9473 63.7496C96.0855 63.5193 96.3059 63.3351 96.6086 63.1969C96.9179 63.0587 97.3324 62.9896 97.8522 62.9896H99.5104V63.6706H97.8917C97.418 63.6706 97.0988 63.7496 96.9343 63.9075C96.7698 64.0655 96.6876 64.2563 96.6876 64.48C96.6876 64.7366 96.7896 64.9439 96.9935 65.1018C97.1975 65.2532 97.4805 65.3288 97.8424 65.3288C98.1977 65.3288 98.507 65.2499 98.7702 65.0919C99.0399 64.934 99.2341 64.7037 99.3525 64.401L99.54 65.0525C99.415 65.3617 99.1946 65.6085 98.8787 65.7927C98.5629 65.9704 98.1648 66.0592 97.6844 66.0592ZM103.85 66.0592C103.323 66.0592 102.916 65.9177 102.626 65.6348C102.336 65.3519 102.192 64.9472 102.192 64.4208V59.6239H103.139V64.3813C103.139 64.6642 103.208 64.8814 103.347 65.0327C103.491 65.1841 103.695 65.2597 103.958 65.2597C104.255 65.2597 104.501 65.1775 104.699 65.013L104.995 65.694C104.85 65.819 104.676 65.9112 104.472 65.9704C104.274 66.0296 104.067 66.0592 103.85 66.0592ZM101.303 61.5486V60.7688H104.639V61.5486H101.303ZM106.14 66V60.7688H107.088V66H106.14ZM106.614 59.7621C106.43 59.7621 106.275 59.7029 106.15 59.5844C106.032 59.466 105.973 59.3212 105.973 59.1501C105.973 58.9725 106.032 58.8244 106.15 58.706C106.275 58.5875 106.43 58.5283 106.614 58.5283C106.798 58.5283 106.95 58.5875 107.068 58.706C107.193 58.8178 107.256 58.9593 107.256 59.1304C107.256 59.3081 107.196 59.4594 107.078 59.5844C106.96 59.7029 106.805 59.7621 106.614 59.7621ZM111.69 60.7195C112.118 60.7195 112.493 60.8017 112.816 60.9662C113.145 61.1307 113.401 61.3808 113.585 61.7164C113.77 62.0519 113.862 62.4764 113.862 62.9896V66H112.914V63.0982C112.914 62.5915 112.789 62.2099 112.539 61.9532C112.296 61.6966 111.95 61.5683 111.503 61.5683C111.167 61.5683 110.874 61.6341 110.624 61.7657C110.374 61.8973 110.18 62.0914 110.042 62.3481C109.91 62.6047 109.845 62.9238 109.845 63.3055V66H108.897V60.7688H109.805V62.1803L109.657 61.8052C109.828 61.463 110.091 61.1965 110.447 61.0057C110.802 60.8149 111.217 60.7195 111.69 60.7195ZM117.905 67.974C117.425 67.974 116.958 67.9049 116.504 67.7668C116.056 67.6352 115.691 67.4443 115.408 67.1943L115.862 66.4639C116.106 66.6745 116.405 66.839 116.76 66.9574C117.116 67.0824 117.487 67.1449 117.876 67.1449C118.494 67.1449 118.948 67.0002 119.238 66.7106C119.527 66.4211 119.672 65.9803 119.672 65.3881V64.2826L119.771 63.2462L119.721 62.2V60.7688H120.619V65.2894C120.619 66.2106 120.389 66.8883 119.929 67.3226C119.468 67.7569 118.793 67.974 117.905 67.974ZM117.787 65.7829C117.28 65.7829 116.826 65.6776 116.425 65.467C116.03 65.2499 115.714 64.9505 115.477 64.5688C115.247 64.1872 115.132 63.7463 115.132 63.2462C115.132 62.7396 115.247 62.2987 115.477 61.9236C115.714 61.542 116.03 61.2459 116.425 61.0353C116.826 60.8248 117.28 60.7195 117.787 60.7195C118.234 60.7195 118.642 60.8116 119.011 60.9958C119.379 61.1735 119.672 61.4499 119.889 61.8249C120.113 62.2 120.225 62.6738 120.225 63.2462C120.225 63.8121 120.113 64.2826 119.889 64.6577C119.672 65.0327 119.379 65.3157 119.011 65.5065C118.642 65.6907 118.234 65.7829 117.787 65.7829ZM117.895 64.9538C118.244 64.9538 118.553 64.8814 118.823 64.7366C119.093 64.5919 119.303 64.3912 119.455 64.1345C119.613 63.8779 119.692 63.5818 119.692 63.2462C119.692 62.9106 119.613 62.6145 119.455 62.3579C119.303 62.1013 119.093 61.9039 118.823 61.7657C118.553 61.621 118.244 61.5486 117.895 61.5486C117.547 61.5486 117.234 61.621 116.958 61.7657C116.688 61.9039 116.474 62.1013 116.316 62.3579C116.165 62.6145 116.089 62.9106 116.089 63.2462C116.089 63.5818 116.165 63.8779 116.316 64.1345C116.474 64.3912 116.688 64.5919 116.958 64.7366C117.234 64.8814 117.547 64.9538 117.895 64.9538Z" fill="black"/>
<path d="M60.346 79.6305C59.734 79.6305 59.2175 79.4956 58.7964 79.2258C58.3752 78.9495 58.0561 78.5547 57.839 78.0414C57.6218 77.5216 57.5132 76.8998 57.5132 76.176C57.5132 75.3929 57.6448 74.7382 57.9081 74.2118C58.1778 73.6788 58.5496 73.2774 59.0234 73.0077C59.4971 72.7379 60.0466 72.603 60.6717 72.603C60.981 72.603 61.2771 72.6326 61.56 72.6918C61.8429 72.751 62.093 72.8464 62.3101 72.978L62.0239 73.5505C61.8462 73.4321 61.6423 73.3498 61.4119 73.3038C61.1816 73.2511 60.9382 73.2248 60.6816 73.2248C59.938 73.2248 59.3425 73.4617 58.8951 73.9354C58.4542 74.4092 58.2338 75.1166 58.2338 76.0575C58.2338 76.2023 58.2403 76.3832 58.2535 76.6004C58.2732 76.8109 58.3127 77.0215 58.3719 77.2321L58.1252 77.0445C58.1976 76.7024 58.339 76.4128 58.5496 76.176C58.7602 75.9325 59.0234 75.7483 59.3392 75.6232C59.6551 75.4982 60.0005 75.4357 60.3756 75.4357C60.8362 75.4357 61.2409 75.5212 61.5896 75.6923C61.9384 75.8634 62.2114 76.1036 62.4088 76.4128C62.6062 76.7221 62.7049 77.0873 62.7049 77.5084C62.7049 77.9361 62.6029 78.3112 62.399 78.6336C62.195 78.9495 61.912 79.1962 61.5501 79.3739C61.1948 79.545 60.7934 79.6305 60.346 79.6305ZM60.3164 79.0284C60.6454 79.0284 60.9349 78.9692 61.1849 78.8508C61.4416 78.7257 61.6423 78.5514 61.787 78.3277C61.9318 78.0973 62.0042 77.8309 62.0042 77.5282C62.0042 77.0741 61.8462 76.7122 61.5304 76.4425C61.2211 76.1727 60.8 76.0378 60.267 76.0378C59.9117 76.0378 59.6024 76.1036 59.3392 76.2352C59.076 76.3668 58.8687 76.5477 58.7174 76.778C58.5661 77.0018 58.4904 77.2584 58.4904 77.5479C58.4904 77.798 58.5595 78.0381 58.6977 78.2684C58.8358 78.4922 59.0398 78.6764 59.3096 78.8212C59.586 78.9593 59.9216 79.0284 60.3164 79.0284ZM66.2816 79.6305C65.7486 79.6305 65.2749 79.4923 64.8603 79.216C64.4458 78.933 64.1201 78.5316 63.8832 78.0118C63.6463 77.4854 63.5279 76.8537 63.5279 76.1167C63.5279 75.3798 63.6463 74.7514 63.8832 74.2315C64.1201 73.7051 64.4458 73.3038 64.8603 73.0274C65.2749 72.7444 65.7486 72.603 66.2816 72.603C66.8146 72.603 67.2884 72.7444 67.7029 73.0274C68.1175 73.3038 68.4432 73.7051 68.6801 74.2315C68.9235 74.7514 69.0453 75.3798 69.0453 76.1167C69.0453 76.8537 68.9235 77.4854 68.6801 78.0118C68.4432 78.5316 68.1175 78.933 67.7029 79.216C67.2884 79.4923 66.8146 79.6305 66.2816 79.6305ZM66.2816 78.9791C66.6896 78.9791 67.0449 78.8705 67.3476 78.6534C67.6503 78.4296 67.8872 78.1072 68.0582 77.6861C68.2293 77.2584 68.3149 76.7353 68.3149 76.1167C68.3149 75.4982 68.2293 74.9784 68.0582 74.5573C67.8872 74.1296 67.6503 73.8071 67.3476 73.59C67.0449 73.3663 66.6896 73.2544 66.2816 73.2544C65.8868 73.2544 65.5348 73.3663 65.2255 73.59C64.9163 73.8071 64.6761 74.1296 64.505 74.5573C64.3339 74.9784 64.2484 75.4982 64.2484 76.1167C64.2484 76.7353 64.3339 77.2584 64.505 77.6861C64.6761 78.1072 64.9163 78.4296 65.2255 78.6534C65.5348 78.8705 65.8868 78.9791 66.2816 78.9791ZM70.9908 79.5713L75.7087 72.6622H76.291L71.5731 79.5713H70.9908ZM71.5237 76.3635C71.2145 76.3635 70.9414 76.2878 70.7045 76.1365C70.4676 75.9786 70.2834 75.7581 70.1518 75.4752C70.0268 75.1922 69.9643 74.8632 69.9643 74.4882C69.9643 74.1131 70.0268 73.7841 70.1518 73.5012C70.2834 73.2182 70.4676 73.0011 70.7045 72.8497C70.9414 72.6918 71.2145 72.6128 71.5237 72.6128C71.833 72.6128 72.1028 72.6918 72.3331 72.8497C72.57 73.0011 72.7542 73.2182 72.8858 73.5012C73.0174 73.7841 73.0832 74.1131 73.0832 74.4882C73.0832 74.8632 73.0174 75.1922 72.8858 75.4752C72.7542 75.7581 72.57 75.9786 72.3331 76.1365C72.1028 76.2878 71.833 76.3635 71.5237 76.3635ZM71.5237 75.9193C71.8462 75.9193 72.1028 75.7943 72.2936 75.5443C72.491 75.2877 72.5897 74.9356 72.5897 74.4882C72.5897 74.0407 72.491 73.692 72.2936 73.4419C72.1028 73.1853 71.8462 73.057 71.5237 73.057C71.1947 73.057 70.9348 73.1853 70.744 73.4419C70.5532 73.692 70.4578 74.0407 70.4578 74.4882C70.4578 74.9356 70.5532 75.2877 70.744 75.5443C70.9348 75.7943 71.1947 75.9193 71.5237 75.9193ZM75.758 79.6206C75.4553 79.6206 75.1856 79.545 74.9487 79.3936C74.7118 79.2357 74.5276 79.0153 74.396 78.7323C74.2643 78.4494 74.1985 78.1204 74.1985 77.7453C74.1985 77.3702 74.2643 77.0412 74.396 76.7583C74.5276 76.4754 74.7118 76.2582 74.9487 76.1069C75.1856 75.949 75.4553 75.87 75.758 75.87C76.0739 75.87 76.3469 75.949 76.5773 76.1069C76.8141 76.2582 76.9951 76.4754 77.1201 76.7583C77.2517 77.0412 77.3175 77.3702 77.3175 77.7453C77.3175 78.1204 77.2517 78.4494 77.1201 78.7323C76.9951 79.0153 76.8141 79.2357 76.5773 79.3936C76.3469 79.545 76.0739 79.6206 75.758 79.6206ZM75.758 79.1765C76.0805 79.1765 76.3371 79.0515 76.5279 78.8014C76.7253 78.5448 76.824 78.1928 76.824 77.7453C76.824 77.2979 76.7253 76.9491 76.5279 76.6991C76.3371 76.4425 76.0805 76.3141 75.758 76.3141C75.4356 76.3141 75.1757 76.4425 74.9783 76.6991C74.7875 76.9491 74.6921 77.2979 74.6921 77.7453C74.6921 78.1928 74.7875 78.5448 74.9783 78.8014C75.1757 79.0515 75.4356 79.1765 75.758 79.1765ZM81.4415 79.5713V72.6622H84.0274C84.6131 72.6622 85.1164 72.7576 85.5376 72.9484C85.9587 73.1327 86.2811 73.4025 86.5048 73.7578C86.7351 74.1065 86.8503 74.5309 86.8503 75.031C86.8503 75.518 86.7351 75.9391 86.5048 76.2944C86.2811 76.6432 85.9587 76.9129 85.5376 77.1038C85.1164 77.288 84.6131 77.3801 84.0274 77.3801H81.8461L82.1718 77.0445V79.5713H81.4415ZM86.1594 79.5713L84.3827 77.0643H85.1724L86.9589 79.5713H86.1594ZM82.1718 77.1038L81.8461 76.7583H84.0077C84.6986 76.7583 85.2217 76.607 85.577 76.3043C85.9389 76.0016 86.1199 75.5772 86.1199 75.031C86.1199 74.4783 85.9389 74.0506 85.577 73.7479C85.2217 73.4452 84.6986 73.2939 84.0077 73.2939H81.8461L82.1718 72.9484V77.1038ZM91.6252 79.5713V78.4264L91.5956 78.2388V76.324C91.5956 75.8832 91.4706 75.5443 91.2205 75.3074C90.9771 75.0705 90.6119 74.9521 90.1249 74.9521C89.7893 74.9521 89.4702 75.008 89.1675 75.1199C88.8648 75.2317 88.6082 75.3798 88.3977 75.564L88.0818 75.0409C88.345 74.8172 88.6609 74.6461 89.0293 74.5277C89.3978 74.4026 89.7861 74.3401 90.194 74.3401C90.8652 74.3401 91.3817 74.5079 91.7436 74.8435C92.1121 75.1725 92.2964 75.6759 92.2964 76.3536V79.5713H91.6252ZM89.8387 79.6206C89.4505 79.6206 89.1116 79.5581 88.8221 79.4331C88.5391 79.3015 88.322 79.1238 88.1706 78.9001C88.0193 78.6698 87.9436 78.4066 87.9436 78.1105C87.9436 77.8407 88.0061 77.5973 88.1312 77.3801C88.2628 77.1564 88.4733 76.9787 88.7629 76.8471C89.059 76.709 89.4538 76.6399 89.9473 76.6399H91.7338V77.163H89.967C89.4669 77.163 89.1182 77.2518 88.9208 77.4295C88.73 77.6071 88.6345 77.8276 88.6345 78.0908C88.6345 78.3869 88.7497 78.6238 88.98 78.8014C89.2103 78.9791 89.5327 79.0679 89.9473 79.0679C90.3421 79.0679 90.6809 78.9791 90.9639 78.8014C91.2534 78.6172 91.464 78.354 91.5956 78.0118L91.7535 78.4954C91.6219 78.8376 91.3916 79.1107 91.0626 79.3147C90.7402 79.5186 90.3322 79.6206 89.8387 79.6206ZM96.8449 74.3401C97.2661 74.3401 97.6346 74.4224 97.9504 74.5869C98.2728 74.7448 98.5229 74.9883 98.7005 75.3173C98.8848 75.6463 98.9769 76.0608 98.9769 76.5609V79.5713H98.2761V76.63C98.2761 76.0838 98.1379 75.6726 97.8616 75.3962C97.5918 75.1133 97.2101 74.9718 96.7166 74.9718C96.3482 74.9718 96.0257 75.0475 95.7494 75.1988C95.4796 75.3436 95.269 75.5574 95.1177 75.8404C94.9729 76.1167 94.9005 76.4523 94.9005 76.8471V79.5713H94.1998V74.3895H94.8709V75.8108L94.7624 75.5443C94.9269 75.1692 95.1901 74.8764 95.552 74.6658C95.9139 74.4487 96.3449 74.3401 96.8449 74.3401ZM101.423 78.229L101.442 77.3308L104.67 74.3895H105.529L103.249 76.5708L102.854 76.9064L101.423 78.229ZM100.87 79.5713V72.2477H101.571V79.5713H100.87ZM104.887 79.5713L102.725 76.8767L103.179 76.3339L105.746 79.5713H104.887ZM109.529 79.5713V72.6622H110.259V79.5713H109.529ZM115.004 74.3401C115.426 74.3401 115.794 74.4224 116.11 74.5869C116.432 74.7448 116.682 74.9883 116.86 75.3173C117.044 75.6463 117.136 76.0608 117.136 76.5609V79.5713H116.436V76.63C116.436 76.0838 116.297 75.6726 116.021 75.3962C115.751 75.1133 115.37 74.9718 114.876 74.9718C114.508 74.9718 114.185 75.0475 113.909 75.1988C113.639 75.3436 113.429 75.5574 113.277 75.8404C113.132 76.1167 113.06 76.4523 113.06 76.8471V79.5713H112.359V74.3895H113.03V75.8108L112.922 75.5443C113.086 75.1692 113.35 74.8764 113.711 74.6658C114.073 74.4487 114.504 74.3401 115.004 74.3401ZM121.181 79.6206C120.668 79.6206 120.207 79.5088 119.799 79.2851C119.398 79.0548 119.082 78.7422 118.852 78.3474C118.621 77.946 118.506 77.4887 118.506 76.9754C118.506 76.4556 118.621 75.9983 118.852 75.6035C119.082 75.2087 119.398 74.8994 119.799 74.6757C120.207 74.452 120.668 74.3401 121.181 74.3401C121.622 74.3401 122.02 74.4257 122.375 74.5967C122.731 74.7678 123.01 75.0244 123.214 75.3666L122.691 75.7219C122.513 75.4587 122.293 75.2646 122.03 75.1396C121.767 75.0146 121.48 74.9521 121.171 74.9521C120.803 74.9521 120.47 75.0376 120.174 75.2087C119.878 75.3732 119.645 75.6068 119.473 75.9095C119.302 76.2122 119.217 76.5675 119.217 76.9754C119.217 77.3834 119.302 77.7387 119.473 78.0414C119.645 78.3441 119.878 78.581 120.174 78.7521C120.47 78.9166 120.803 78.9988 121.171 78.9988C121.48 78.9988 121.767 78.9363 122.03 78.8113C122.293 78.6863 122.513 78.4954 122.691 78.2388L123.214 78.5941C123.01 78.9297 122.731 79.1864 122.375 79.364C122.02 79.5351 121.622 79.6206 121.181 79.6206ZM124.591 79.5713V74.3895H125.262V75.8009L125.193 75.5541C125.338 75.1593 125.581 74.8599 125.923 74.656C126.266 74.4454 126.69 74.3401 127.197 74.3401V75.0212C127.17 75.0212 127.144 75.0212 127.118 75.0212C127.091 75.0146 127.065 75.0113 127.039 75.0113C126.493 75.0113 126.065 75.1791 125.756 75.5147C125.446 75.8437 125.292 76.3141 125.292 76.9261V79.5713H124.591ZM130.628 79.6206C130.089 79.6206 129.615 79.5088 129.207 79.2851C128.799 79.0548 128.48 78.7422 128.249 78.3474C128.019 77.946 127.904 77.4887 127.904 76.9754C127.904 76.4622 128.013 76.0082 128.23 75.6134C128.453 75.2186 128.756 74.9093 129.138 74.6856C129.526 74.4553 129.96 74.3401 130.441 74.3401C130.928 74.3401 131.359 74.452 131.734 74.6757C132.115 74.8928 132.415 75.2021 132.632 75.6035C132.849 75.9983 132.958 76.4556 132.958 76.9754C132.958 77.0083 132.954 77.0445 132.948 77.084C132.948 77.1169 132.948 77.1531 132.948 77.1926H128.437V76.6695H132.573L132.296 76.8767C132.296 76.5017 132.214 76.1694 132.049 75.8799C131.892 75.5838 131.674 75.3535 131.398 75.189C131.122 75.0244 130.803 74.9422 130.441 74.9422C130.085 74.9422 129.766 75.0244 129.483 75.189C129.2 75.3535 128.98 75.5838 128.822 75.8799C128.664 76.176 128.585 76.5148 128.585 76.8965V77.0051C128.585 77.3999 128.671 77.7486 128.842 78.0513C129.019 78.3474 129.263 78.581 129.572 78.7521C129.888 78.9166 130.247 78.9988 130.648 78.9988C130.964 78.9988 131.257 78.9429 131.526 78.831C131.803 78.7192 132.04 78.5481 132.237 78.3178L132.632 78.7718C132.402 79.0482 132.112 79.2587 131.763 79.4035C131.421 79.5483 131.043 79.6206 130.628 79.6206ZM137.487 79.5713V78.4264L137.457 78.2388V76.324C137.457 75.8832 137.332 75.5443 137.082 75.3074C136.838 75.0705 136.473 74.9521 135.986 74.9521C135.651 74.9521 135.332 75.008 135.029 75.1199C134.726 75.2317 134.47 75.3798 134.259 75.564L133.943 75.0409C134.206 74.8172 134.522 74.6461 134.891 74.5277C135.259 74.4026 135.647 74.3401 136.055 74.3401C136.727 74.3401 137.243 74.5079 137.605 74.8435C137.974 75.1725 138.158 75.6759 138.158 76.3536V79.5713H137.487ZM135.7 79.6206C135.312 79.6206 134.973 79.5581 134.683 79.4331C134.401 79.3015 134.183 79.1238 134.032 78.9001C133.881 78.6698 133.805 78.4066 133.805 78.1105C133.805 77.8407 133.868 77.5973 133.993 77.3801C134.124 77.1564 134.335 76.9787 134.624 76.8471C134.92 76.709 135.315 76.6399 135.809 76.6399H137.595V77.163H135.828C135.328 77.163 134.98 77.2518 134.782 77.4295C134.591 77.6071 134.496 77.8276 134.496 78.0908C134.496 78.3869 134.611 78.6238 134.841 78.8014C135.072 78.9791 135.394 79.0679 135.809 79.0679C136.203 79.0679 136.542 78.9791 136.825 78.8014C137.115 78.6172 137.325 78.354 137.457 78.0118L137.615 78.4954C137.483 78.8376 137.253 79.1107 136.924 79.3147C136.602 79.5186 136.194 79.6206 135.7 79.6206ZM141.453 79.6206C141.025 79.6206 140.62 79.5614 140.239 79.443C139.857 79.318 139.558 79.1633 139.341 78.9791L139.656 78.4264C139.867 78.5843 140.137 78.7225 140.466 78.8409C140.795 78.9528 141.14 79.0087 141.502 79.0087C141.996 79.0087 142.351 78.933 142.568 78.7817C142.785 78.6238 142.894 78.4165 142.894 78.1599C142.894 77.969 142.831 77.821 142.706 77.7157C142.588 77.6038 142.43 77.5216 142.233 77.469C142.035 77.4097 141.815 77.3604 141.571 77.3209C141.328 77.2814 141.084 77.2354 140.841 77.1827C140.604 77.1301 140.387 77.0544 140.189 76.9557C139.992 76.8504 139.831 76.709 139.706 76.5313C139.587 76.3536 139.528 76.1167 139.528 75.8206C139.528 75.5377 139.607 75.2844 139.765 75.0606C139.923 74.8369 140.153 74.6625 140.456 74.5375C140.765 74.4059 141.14 74.3401 141.581 74.3401C141.917 74.3401 142.252 74.3862 142.588 74.4783C142.923 74.5638 143.2 74.679 143.417 74.8238L143.111 75.3864C142.881 75.2284 142.634 75.1166 142.371 75.0508C142.108 74.9784 141.844 74.9422 141.581 74.9422C141.114 74.9422 140.769 75.0244 140.545 75.189C140.328 75.3469 140.219 75.5509 140.219 75.8009C140.219 75.9983 140.278 76.1529 140.397 76.2648C140.522 76.3767 140.683 76.4655 140.88 76.5313C141.084 76.5905 141.305 76.6399 141.542 76.6793C141.785 76.7188 142.025 76.7682 142.262 76.8274C142.506 76.88 142.726 76.9557 142.923 77.0544C143.127 77.1465 143.289 77.2814 143.407 77.4591C143.532 77.6302 143.595 77.8572 143.595 78.1401C143.595 78.4428 143.509 78.706 143.338 78.9297C143.174 79.1469 142.93 79.318 142.608 79.443C142.292 79.5614 141.907 79.6206 141.453 79.6206ZM147.082 79.6206C146.542 79.6206 146.068 79.5088 145.66 79.2851C145.252 79.0548 144.933 78.7422 144.703 78.3474C144.473 77.946 144.357 77.4887 144.357 76.9754C144.357 76.4622 144.466 76.0082 144.683 75.6134C144.907 75.2186 145.21 74.9093 145.591 74.6856C145.979 74.4553 146.414 74.3401 146.894 74.3401C147.381 74.3401 147.812 74.452 148.187 74.6757C148.569 74.8928 148.868 75.2021 149.085 75.6035C149.302 75.9983 149.411 76.4556 149.411 76.9754C149.411 77.0083 149.408 77.0445 149.401 77.084C149.401 77.1169 149.401 77.1531 149.401 77.1926H144.89V76.6695H149.026L148.75 76.8767C148.75 76.5017 148.667 76.1694 148.503 75.8799C148.345 75.5838 148.128 75.3535 147.851 75.189C147.575 75.0244 147.256 74.9422 146.894 74.9422C146.539 74.9422 146.22 75.0244 145.937 75.189C145.654 75.3535 145.433 75.5838 145.275 75.8799C145.117 76.176 145.038 76.5148 145.038 76.8965V77.0051C145.038 77.3999 145.124 77.7486 145.295 78.0513C145.473 78.3474 145.716 78.581 146.025 78.7521C146.341 78.9166 146.7 78.9988 147.101 78.9988C147.417 78.9988 147.71 78.9429 147.98 78.831C148.256 78.7192 148.493 78.5481 148.69 78.3178L149.085 78.7718C148.855 79.0482 148.565 79.2587 148.217 79.4035C147.875 79.5483 147.496 79.6206 147.082 79.6206Z" fill="black"/>
<g clip-path="url(#clip0_145_304)">
<path d="M44.1083 35.7646H13.0075C11.9067 35.7646 11.0144 36.657 11.0144 37.7577V60.0073C11.0144 61.108 11.9067 62.0004 13.0075 62.0004H44.1083C45.2091 62.0004 46.1014 61.108 46.1014 60.0073V37.7577C46.1014 36.657 45.2091 35.7646 44.1083 35.7646Z" fill="#4989F5"/>
<path d="M44.3058 35.5674H12.7712C11.7942 35.5674 11.0342 43.1275 11.0342 44.1045L28.3036 62.0004H44.3062C44.7768 61.9991 45.2278 61.8116 45.5607 61.4787C45.8935 61.1459 46.081 60.6949 46.0823 60.2242V37.3446C46.0813 36.8737 45.8938 36.4223 45.5609 36.0893C45.228 35.7563 44.7767 35.5686 44.3058 35.5674Z" fill="url(#paint0_linear_145_304)"/>
<path d="M19.0259 40.1579H29.0508V27.0005H20.527L19.0259 40.1579Z" fill="#3C4BA6"/>
<path d="M39.0757 40.1579H29.0508V27.0005H37.5746L39.0757 40.1579ZM46.1013 29.4948L46.1136 29.5397C46.111 29.5237 46.1047 29.5091 46.1013 29.4945V29.4948Z" fill="#7BABF7"/>
<path d="M46.1139 29.5389L46.1016 29.494C45.9473 28.7876 45.5561 28.1551 44.993 27.7015C44.4299 27.2479 43.7287 27.0004 43.0056 27H37.5745L39.0743 40.1577H49.0992L46.1139 29.5389Z" fill="#3F51B5"/>
<path d="M12.0003 29.4951L11.988 29.54C11.991 29.524 11.997 29.5094 12.0003 29.4951Z" fill="#7BABF7"/>
<path d="M11.9876 29.5389L11.9999 29.494C12.1542 28.7877 12.5453 28.1552 13.1083 27.7016C13.6714 27.248 14.3725 27.0005 15.0955 27H20.5267L19.0249 40.1577H9L11.9876 29.5389Z" fill="#7BABF7"/>
<path fill-rule="evenodd" clip-rule="evenodd" d="M19.0429 40.1548C19.0429 41.4834 18.5151 42.7576 17.5757 43.6971C16.6362 44.6366 15.362 45.1644 14.0333 45.1644C12.7047 45.1644 11.4305 44.6366 10.491 43.6971C9.55148 42.7576 9.02368 41.4834 9.02368 40.1548H19.0429Z" fill="#709BE0"/>
<path fill-rule="evenodd" clip-rule="evenodd" d="M29.0622 40.1548C29.0622 41.4834 28.5344 42.7576 27.5949 43.6971C26.6555 44.6366 25.3812 45.1644 24.0526 45.1644C22.724 45.1644 21.4497 44.6366 20.5103 43.6971C19.5708 42.7576 19.043 41.4834 19.043 40.1548H29.0622Z" fill="#3C4BA6"/>
<path fill-rule="evenodd" clip-rule="evenodd" d="M39.0815 40.1548C39.0815 40.8127 38.9519 41.4641 38.7002 42.0719C38.4484 42.6797 38.0794 43.2319 37.6142 43.6971C37.149 44.1623 36.5968 44.5313 35.989 44.7831C35.3812 45.0348 34.7298 45.1644 34.0719 45.1644C33.414 45.1644 32.7626 45.0348 32.1548 44.7831C31.547 44.5313 30.9947 44.1623 30.5295 43.6971C30.0644 43.2319 29.6953 42.6797 29.4436 42.0719C29.1918 41.4641 29.0623 40.8127 29.0623 40.1548H39.0815Z" fill="#709BE0"/>
<path fill-rule="evenodd" clip-rule="evenodd" d="M49.0996 40.1548C49.0996 41.4834 48.5718 42.7576 47.6323 43.6971C46.6928 44.6366 45.4186 45.1644 44.09 45.1644C42.7613 45.1644 41.4871 44.6366 40.5476 43.6971C39.6081 42.7576 39.0803 41.4834 39.0803 40.1548H49.0996Z" fill="#3C4BA6"/>
<path d="M44.0901 53.7275C44.07 53.4816 44.0403 53.2366 44.0011 52.993H38.5367C38.5367 53.7571 38.5367 54.5915 38.5337 55.3562H41.6994C41.6321 55.7126 41.4951 56.0521 41.2962 56.3554C41.0973 56.6587 40.8404 56.9197 40.5404 57.1234C40.5404 57.1234 40.5404 57.1101 40.5381 57.1098C40.1506 57.3642 39.7142 57.5346 39.2568 57.61C38.7983 57.6939 38.3281 57.6919 37.8703 57.604C37.4054 57.5078 36.9652 57.3171 36.5771 57.0437C36.0043 56.6375 35.5625 56.0729 35.3059 55.4193C35.2863 55.3685 35.2683 55.3173 35.2497 55.2652V55.2595L35.2547 55.2559C35.0056 54.5249 35.0049 53.7321 35.2527 53.0007C35.4273 52.4876 35.7146 52.0202 36.0935 51.6327C36.5294 51.1816 37.0813 50.8592 37.6884 50.701C38.2955 50.5427 38.9345 50.5548 39.5352 50.7359C40.0047 50.8799 40.4337 51.1324 40.7875 51.473L41.8555 50.405C42.0438 50.2147 42.2395 50.0303 42.4202 49.8337C41.8786 49.3284 41.2429 48.9348 40.5494 48.675C39.287 48.2177 37.9062 48.2059 36.6363 48.6418C36.592 48.6568 36.5477 48.6726 36.5034 48.689C35.1331 49.2041 34.0059 50.2143 33.3443 51.5201C33.1107 51.9823 32.9405 52.474 32.8384 52.9817C32.5469 54.4303 32.8179 55.9356 33.5964 57.1915C34.3749 58.4474 35.6025 59.3597 37.0296 59.743C38.0036 59.9937 39.0239 60.0044 40.0029 59.7742C40.9181 59.5754 41.7611 59.1291 42.4399 58.4839C43.1187 57.8387 43.6072 57.0194 43.8522 56.1155C44.0736 55.3401 44.1542 54.5313 44.0901 53.7275Z" fill="white"/>
</g>
<defs>
<linearGradient id="paint0_linear_145_304" x1="11.0342" y1="48.7839" x2="46.0823" y2="48.7839" gradientUnits="userSpaceOnUse">
<stop offset="0.03" stop-color="#4079D8"/>
<stop offset="1" stop-color="#4989F5"/>
</linearGradient>
<clipPath id="clip0_145_304">
<rect width="40.0997" height="35" fill="white" transform="translate(9 27)"/>
</clipPath>
</defs>
</svg>
